ply
format ascii 1.0
comment VCGLIB generated
element vertex 434
property float x
property float y
property float z
property float nx
property float ny
property float nz
element face 864
property list uchar int vertex_indices
end_header
-0.0745 -0.029 0.1 -1.5708 -1.5708 1.5708 
-0.0745 0.029 0.1 -1.5708 1.5708 1.5708 
-0.0745 -0.029 -0.1 -1.5708 -1.5708 -1.5708 
-0.0745 0.029 -0.1 -1.5708 1.5708 -1.5708 
0.0745 -0.029 0.1 1.5708 -1.5708 1.5708 
0.0745 0.029 0.1 1.5708 1.5708 1.5708 
0.0745 -0.029 -0.1 1.5708 -1.5708 -1.5708 
0.0745 0.029 -0.1 1.5708 1.5708 -1.5708 
-0.0745 -0.029 0 -3.14159 -3.14159 0 
-0.0745 0.029 0 -3.14159 3.14159 0 
0.0745 -0.029 0 3.14159 -3.14159 0 
0.0745 0.029 0 3.14159 3.14159 0 
-0.0745 0.029 -0.069477 -3.14159 3.14159 0 
0.0745 -0.029 -0.069477 3.14159 -3.14159 0 
-0.0745 -0.029 -0.069477 -3.14159 -3.14159 0 
0.0745 0.029 -0.069477 3.14159 3.14159 0 
-0.0745 -0.029 0.072248 -3.14159 -3.14159 0 
0.0745 0.029 0.072248 3.14159 3.14159 0 
-0.0745 0.029 0.072248 -3.14159 3.14159 0 
0.0745 -0.029 0.072248 3.14159 -3.14159 0 
0 -0.029 -0.1 0 -3.14159 -3.14159 
0 0.029 -0.1 0 3.14159 -3.14159 
0 -0.029 0.1 0 -3.14159 3.14159 
0 0.029 0.1 0 3.14159 3.14159 
0 0.029 0 0 6.28319 0 
0 -0.029 0 0 -6.28319 0 
0 -0.029 -0.069477 0 -6.28319 0 
0 0.029 -0.069477 0 6.28319 0 
0 0.029 0.072248 0 6.28319 0 
0 -0.029 0.072248 0 -6.28319 0 
-0.045065 -0.029 -0.1 0 -3.14159 -3.14159 
-0.045065 0.029 0.1 0 3.14159 3.14159 
-0.045065 -0.029 0 0 -6.28319 0 
-0.045065 -0.029 -0.069477 0 -6.28319 0 
-0.045065 -0.029 0.072248 0 -6.28319 0 
-0.045065 0.029 -0.1 0 3.14159 -3.14159 
-0.045065 -0.029 0.1 0 -3.14159 3.14159 
-0.045065 0.029 0 0 6.28319 0 
-0.045065 0.029 -0.069477 0 6.28319 0 
-0.045065 0.029 0.072248 0 6.28319 0 
0.04501 0.029 -0.1 0 3.14159 -3.14159 
0.04501 -0.029 0.1 0 -3.14159 3.14159 
0.04501 0.029 0 0 6.28319 0 
0.04501 0.029 -0.069477 0 6.28319 0 
0.04501 0.029 0.072248 0 6.28319 0 
0.04501 -0.029 -0.1 0 -3.14159 -3.14159 
0.04501 0.029 0.1 0 3.14159 3.14159 
0.04501 -0.029 0 0 -6.28319 0 
0.04501 -0.029 -0.069477 0 -6.28319 0 
0.04501 -0.029 0.072248 0 -6.28319 0 
-0.0745 -0.006964 0.1 -3.14159 0 3.14159 
-0.0745 -0.006964 -0.1 -3.14159 0 -3.14159 
0.0745 -0.006964 -0.1 3.14159 0 -3.14159 
0.0745 -0.006964 0.1 3.14159 0 3.14159 
0.0745 -0.006964 0 6.28319 0 0 
-0.0745 -0.006964 0 -6.28319 0 0 
0.0745 -0.006964 -0.069477 6.28319 0 0 
-0.0745 -0.006964 -0.069477 -6.28319 0 0 
-0.0745 -0.006964 0.072248 -6.28319 0 0 
0.0745 -0.006964 0.072248 6.28319 0 0 
0 -0.006964 0.1 0 0 6.28319 
0 -0.006964 -0.1 0 0 -6.28319 
-0.045065 -0.006964 -0.1 0 0 -6.28319 
-0.045065 -0.006964 0.1 0 0 6.28319 
0.04501 -0.006964 0.1 0 0 6.28319 
0.04501 -0.006964 -0.1 0 0 -6.28319 
-0.0745 -0.029 -0.034739 -3.14159 -3.14159 0 
0.0745 0.029 -0.034739 3.14159 3.14159 0 
-0.0745 0.029 -0.034739 -3.14159 3.14159 0 
0.0745 -0.029 -0.034739 3.14159 -3.14159 0 
0 -0.029 -0.034739 0 -6.28319 0 
0 0.029 -0.034739 0 6.28319 0 
-0.045065 -0.029 -0.034739 0 -6.28319 0 
-0.045065 0.029 -0.034739 0 6.28319 0 
0.04501 0.029 -0.034739 0 6.28319 0 
0.04501 -0.029 -0.034739 0 -6.28319 0 
-0.0745 -0.006964 -0.034739 -6.28319 0 0 
0.0745 -0.006964 -0.034739 6.28319 0 0 
-0.0745 0.029 0.036124 -3.14159 3.14159 0 
0.0745 -0.029 0.036124 3.14159 -3.14159 0 
-0.0745 -0.029 0.036124 -3.14159 -3.14159 0 
0.0745 0.029 0.036124 3.14159 3.14159 0 
0 -0.029 0.036124 0 -6.28319 0 
0 0.029 0.036124 0 6.28319 0 
-0.045065 -0.029 0.036124 0 -6.28319 0 
-0.045065 0.029 0.036124 0 6.28319 0 
0.04501 0.029 0.036124 0 6.28319 0 
0.04501 -0.029 0.036124 0 -6.28319 0 
0.0745 -0.006964 0.036124 6.28319 0 0 
-0.0745 -0.006964 0.036124 -6.28319 0 0 
-0.0745 -0.029 -0.017369 -3.14159 -3.14159 0 
0.0745 0.029 -0.017369 3.14159 3.14159 0 
0 -0.029 -0.017369 0 -6.28319 0 
0 0.029 -0.017369 0 6.28319 0 
-0.045065 -0.029 -0.017369 0 -6.28319 0 
-0.045065 0.029 -0.017369 0 6.28319 0 
0.04501 0.029 -0.017369 0 6.28319 0 
0.04501 -0.029 -0.017369 0 -6.28319 0 
0.0745 -0.006964 -0.017369 6.28319 0 0 
-0.0745 0.029 -0.017369 -3.14159 3.14159 0 
0.0745 -0.029 -0.017369 3.14159 -3.14159 0 
-0.0745 -0.006964 -0.017369 -6.28319 0 0 
-0.0745 0.029 0.018062 -3.14159 3.14159 0 
0.0745 -0.029 0.018062 3.14159 -3.14159 0 
-0.0745 -0.006964 0.018062 -6.28319 0 0 
-0.0745 -0.029 0.018062 -3.14159 -3.14159 0 
0.0745 0.029 0.018062 3.14159 3.14159 0 
0 -0.029 0.018062 0 -6.28319 0 
0 0.029 0.018062 0 6.28319 0 
-0.045065 -0.029 0.018062 0 -6.28319 0 
-0.045065 0.029 0.018062 0 6.28319 0 
0.04501 0.029 0.018062 0 6.28319 0 
0.04501 -0.029 0.018062 0 -6.28319 0 
0.0745 -0.006964 0.018062 6.28319 0 0 
-0.0745 0.029 -0.052108 -3.14159 3.14159 0 
0.0745 -0.029 -0.052108 3.14159 -3.14159 0 
-0.0745 -0.006964 -0.052108 -6.28319 0 0 
-0.0745 -0.029 -0.052108 -3.14159 -3.14159 0 
0.0745 0.029 -0.052108 3.14159 3.14159 0 
0 -0.029 -0.052108 0 -6.28319 0 
0 0.029 -0.052108 0 6.28319 0 
-0.045065 -0.029 -0.052108 0 -6.28319 0 
-0.045065 0.029 -0.052108 0 6.28319 0 
0.04501 0.029 -0.052108 0 6.28319 0 
0.04501 -0.029 -0.052108 0 -6.28319 0 
0.0745 -0.006964 -0.052108 6.28319 0 0 
-0.0745 0.029 -0.084739 -3.14159 3.14159 0 
0.0745 -0.029 -0.084739 3.14159 -3.14159 0 
-0.0745 -0.029 -0.084739 -3.14159 -3.14159 0 
0.0745 0.029 -0.084739 3.14159 3.14159 0 
0 0.029 -0.084739 0 6.28319 0 
0 -0.029 -0.084739 0 -6.28319 0 
-0.045065 -0.029 -0.084739 0 -6.28319 0 
-0.045065 0.029 -0.084739 0 6.28319 0 
0.04501 0.029 -0.084739 0 6.28319 0 
0.04501 -0.029 -0.084739 0 -6.28319 0 
0.0745 -0.006964 -0.084739 6.28319 0 0 
-0.0745 -0.006964 -0.084739 -6.28319 0 0 
-0.0745 -0.029 0.054186 -3.14159 -3.14159 0 
0.0745 0.029 0.054186 3.14159 3.14159 0 
0 -0.029 0.054186 0 -6.28319 0 
0 0.029 0.054186 0 6.28319 0 
-0.045065 -0.029 0.054186 0 -6.28319 0 
-0.045065 0.029 0.054186 0 6.28319 0 
0.04501 0.029 0.054186 0 6.28319 0 
0.04501 -0.029 0.054186 0 -6.28319 0 
0.0745 -0.006964 0.054186 6.28319 0 0 
-0.0745 0.029 0.054186 -3.14159 3.14159 0 
0.0745 -0.029 0.054186 3.14159 -3.14159 0 
-0.0745 -0.006964 0.054186 -6.28319 0 0 
-0.0745 -0.029 0.086124 -3.14159 -3.14159 0 
0.0745 0.029 0.086124 3.14159 3.14159 0 
-0.0745 0.029 0.086124 -3.14159 3.14159 0 
0.0745 -0.029 0.086124 3.14159 -3.14159 0 
0 0.029 0.086124 0 6.28319 0 
0 -0.029 0.086124 0 -6.28319 0 
-0.045065 -0.029 0.086124 0 -6.28319 0 
-0.045065 0.029 0.086124 0 6.28319 0 
0.04501 0.029 0.086124 0 6.28319 0 
0.04501 -0.029 0.086124 0 -6.28319 0 
-0.0745 -0.006964 0.086124 -6.28319 0 0 
0.0745 -0.006964 0.086124 6.28319 0 0 
-0.022532 0.029 -0.1 0 3.14159 -3.14159 
-0.022532 -0.029 0.1 0 -3.14159 3.14159 
-0.022532 0.029 0 0 6.28319 0 
-0.022532 0.029 -0.069477 0 6.28319 0 
-0.022532 0.029 0.072248 0 6.28319 0 
-0.022532 -0.029 -0.1 0 -3.14159 -3.14159 
-0.022532 0.029 0.1 0 3.14159 3.14159 
-0.022532 -0.029 0 0 -6.28319 0 
-0.022532 -0.029 -0.069477 0 -6.28319 0 
-0.022532 -0.029 0.072248 0 -6.28319 0 
-0.022532 -0.006964 0.1 0 0 6.28319 
-0.022532 -0.006964 -0.1 0 0 -6.28319 
-0.022532 0.029 -0.034739 0 6.28319 0 
-0.022532 -0.029 -0.034739 0 -6.28319 0 
-0.022532 0.029 0.036124 0 6.28319 0 
-0.022532 -0.029 0.036124 0 -6.28319 0 
-0.022532 0.029 -0.017369 0 6.28319 0 
-0.022532 -0.029 -0.017369 0 -6.28319 0 
-0.022532 -0.029 0.018062 0 -6.28319 0 
-0.022532 0.029 0.018062 0 6.28319 0 
-0.022532 -0.029 -0.052108 0 -6.28319 0 
-0.022532 0.029 -0.052108 0 6.28319 0 
-0.022532 0.029 -0.084739 0 6.28319 0 
-0.022532 -0.029 -0.084739 0 -6.28319 0 
-0.022532 0.029 0.054186 0 6.28319 0 
-0.022532 -0.029 0.054186 0 -6.28319 0 
-0.022532 0.029 0.086124 0 6.28319 0 
-0.022532 -0.029 0.086124 0 -6.28319 0 
0.022505 -0.029 -0.1 0 -3.14159 -3.14159 
0.022505 0.029 0.1 0 3.14159 3.14159 
0.022505 -0.029 0 0 -6.28319 0 
0.022505 -0.029 -0.069477 0 -6.28319 0 
0.022505 -0.029 0.072248 0 -6.28319 0 
0.022505 0.029 -0.1 0 3.14159 -3.14159 
0.022505 -0.029 0.1 0 -3.14159 3.14159 
0.022505 0.029 0 0 6.28319 0 
0.022505 0.029 -0.069477 0 6.28319 0 
0.022505 0.029 0.072248 0 6.28319 0 
0.022505 -0.006964 -0.1 0 0 -6.28319 
0.022505 -0.006964 0.1 0 0 6.28319 
0.022505 -0.029 -0.034739 0 -6.28319 0 
0.022505 0.029 -0.034739 0 6.28319 0 
0.022505 -0.029 0.036124 0 -6.28319 0 
0.022505 0.029 0.036124 0 6.28319 0 
0.022505 -0.029 -0.017369 0 -6.28319 0 
0.022505 0.029 -0.017369 0 6.28319 0 
0.022505 0.029 0.018062 0 6.28319 0 
0.022505 -0.029 0.018062 0 -6.28319 0 
0.022505 0.029 -0.052108 0 6.28319 0 
0.022505 -0.029 -0.052108 0 -6.28319 0 
0.022505 -0.029 -0.084739 0 -6.28319 0 
0.022505 0.029 -0.084739 0 6.28319 0 
0.022505 -0.029 0.054186 0 -6.28319 0 
0.022505 0.029 0.054186 0 6.28319 0 
0.022505 -0.029 0.086124 0 -6.28319 0 
0.022505 0.029 0.086124 0 6.28319 0 
0.059755 0.029 -0.1 0 3.14159 -3.14159 
0.059755 -0.029 0.1 0 -3.14159 3.14159 
0.059755 0.029 0 0 6.28319 0 
0.059755 0.029 -0.069477 0 6.28319 0 
0.059755 0.029 0.072248 0 6.28319 0 
0.059755 -0.029 -0.1 0 -3.14159 -3.14159 
0.059755 0.029 0.1 0 3.14159 3.14159 
0.059755 -0.029 0 0 -6.28319 0 
0.059755 -0.029 -0.069477 0 -6.28319 0 
0.059755 -0.029 0.072248 0 -6.28319 0 
0.059755 -0.006964 0.1 0 0 6.28319 
0.059755 -0.006964 -0.1 0 0 -6.28319 
0.059755 0.029 -0.034739 0 6.28319 0 
0.059755 -0.029 -0.034739 0 -6.28319 0 
0.059755 0.029 0.036124 0 6.28319 0 
0.059755 -0.029 0.036124 0 -6.28319 0 
0.059755 0.029 -0.017369 0 6.28319 0 
0.059755 -0.029 -0.017369 0 -6.28319 0 
0.059755 -0.029 0.018062 0 -6.28319 0 
0.059755 0.029 0.018062 0 6.28319 0 
0.059755 -0.029 -0.052108 0 -6.28319 0 
0.059755 0.029 -0.052108 0 6.28319 0 
0.059755 0.029 -0.084739 0 6.28319 0 
0.059755 -0.029 -0.084739 0 -6.28319 0 
0.059755 0.029 0.054186 0 6.28319 0 
0.059755 -0.029 0.054186 0 -6.28319 0 
0.059755 0.029 0.086124 0 6.28319 0 
0.059755 -0.029 0.086124 0 -6.28319 0 
-0.059782 -0.029 -0.1 0 -3.14159 -3.14159 
-0.059782 0.029 0.1 0 3.14159 3.14159 
-0.059782 -0.029 0 0 -6.28319 0 
-0.059782 -0.029 -0.069477 0 -6.28319 0 
-0.059782 -0.029 0.072248 0 -6.28319 0 
-0.059782 0.029 -0.1 0 3.14159 -3.14159 
-0.059782 -0.029 0.1 0 -3.14159 3.14159 
-0.059782 0.029 0 0 6.28319 0 
-0.059782 0.029 -0.069477 0 6.28319 0 
-0.059782 0.029 0.072248 0 6.28319 0 
-0.059782 -0.006964 -0.1 0 0 -6.28319 
-0.059782 -0.006964 0.1 0 0 6.28319 
-0.059782 -0.029 -0.034739 0 -6.28319 0 
-0.059782 0.029 -0.034739 0 6.28319 0 
-0.059782 -0.029 0.036124 0 -6.28319 0 
-0.059782 0.029 0.036124 0 6.28319 0 
-0.059782 -0.029 -0.017369 0 -6.28319 0 
-0.059782 0.029 -0.017369 0 6.28319 0 
-0.059782 0.029 0.018062 0 6.28319 0 
-0.059782 -0.029 0.018062 0 -6.28319 0 
-0.059782 0.029 -0.052108 0 6.28319 0 
-0.059782 -0.029 -0.052108 0 -6.28319 0 
-0.059782 -0.029 -0.084739 0 -6.28319 0 
-0.059782 0.029 -0.084739 0 6.28319 0 
-0.059782 -0.029 0.054186 0 -6.28319 0 
-0.059782 0.029 0.054186 0 6.28319 0 
-0.059782 -0.029 0.086124 0 -6.28319 0 
-0.059782 0.029 0.086124 0 6.28319 0 
-0.0745 0.011018 0.1 -3.14159 0 3.14159 
-0.0745 0.011018 -0.1 -3.14159 0 -3.14159 
0.0745 0.011018 -0.1 3.14159 0 -3.14159 
0.0745 0.011018 0.1 3.14159 0 3.14159 
0.0745 0.011018 0 6.28319 0 0 
-0.0745 0.011018 0 -6.28319 0 0 
0.0745 0.011018 -0.069477 6.28319 0 0 
-0.0745 0.011018 -0.069477 -6.28319 0 0 
-0.0745 0.011018 0.072248 -6.28319 0 0 
0.0745 0.011018 0.072248 6.28319 0 0 
0 0.011018 0.1 0 0 6.28319 
0 0.011018 -0.1 0 0 -6.28319 
-0.045065 0.011018 -0.1 0 0 -6.28319 
-0.045065 0.011018 0.1 0 0 6.28319 
0.04501 0.011018 0.1 0 0 6.28319 
0.04501 0.011018 -0.1 0 0 -6.28319 
-0.0745 0.011018 -0.034739 -6.28319 0 0 
0.0745 0.011018 -0.034739 6.28319 0 0 
0.0745 0.011018 0.036124 6.28319 0 0 
-0.0745 0.011018 0.036124 -6.28319 0 0 
-0.0745 0.011018 -0.017369 -6.28319 0 0 
0.0745 0.011018 -0.017369 6.28319 0 0 
0.0745 0.011018 0.018062 6.28319 0 0 
-0.0745 0.011018 0.018062 -6.28319 0 0 
0.0745 0.011018 -0.052108 6.28319 0 0 
-0.0745 0.011018 -0.052108 -6.28319 0 0 
0.0745 0.011018 -0.084739 6.28319 0 0 
-0.0745 0.011018 -0.084739 -6.28319 0 0 
-0.0745 0.011018 0.054186 -6.28319 0 0 
0.0745 0.011018 0.054186 6.28319 0 0 
-0.0745 0.011018 0.086124 -6.28319 0 0 
0.0745 0.011018 0.086124 6.28319 0 0 
-0.022532 0.011018 0.1 0 0 6.28319 
-0.022532 0.011018 -0.1 0 0 -6.28319 
0.022505 0.011018 -0.1 0 0 -6.28319 
0.022505 0.011018 0.1 0 0 6.28319 
0.059755 0.011018 0.1 0 0 6.28319 
0.059755 0.011018 -0.1 0 0 -6.28319 
-0.059782 0.011018 -0.1 0 0 -6.28319 
-0.059782 0.011018 0.1 0 0 6.28319 
-0.0745 -0.017982 -0.1 -3.14159 0 -3.14159 
0.0745 -0.017982 -0.1 3.14159 0 -3.14159 
0.0745 -0.017982 0.1 3.14159 0 3.14159 
0.0745 -0.017982 0 6.28319 0 0 
-0.0745 -0.017982 0 -6.28319 0 0 
0.0745 -0.017982 -0.069477 6.28319 0 0 
-0.0745 -0.017982 -0.069477 -6.28319 0 0 
-0.0745 -0.017982 0.072248 -6.28319 0 0 
0.0745 -0.017982 0.072248 6.28319 0 0 
0 -0.017982 0.1 0 0 6.28319 
0 -0.017982 -0.1 0 0 -6.28319 
-0.045065 -0.017982 -0.1 0 0 -6.28319 
-0.045065 -0.017982 0.1 0 0 6.28319 
0.04501 -0.017982 0.1 0 0 6.28319 
0.04501 -0.017982 -0.1 0 0 -6.28319 
-0.0745 -0.017982 0.1 -3.14159 0 3.14159 
0.0745 -0.017982 -0.034739 6.28319 0 0 
-0.0745 -0.017982 -0.034739 -6.28319 0 0 
-0.0745 -0.017982 0.036124 -6.28319 0 0 
0.0745 -0.017982 0.036124 6.28319 0 0 
-0.0745 -0.017982 -0.017369 -6.28319 0 0 
0.0745 -0.017982 -0.017369 6.28319 0 0 
0.0745 -0.017982 0.018062 6.28319 0 0 
-0.0745 -0.017982 0.018062 -6.28319 0 0 
0.0745 -0.017982 -0.052108 6.28319 0 0 
-0.0745 -0.017982 -0.052108 -6.28319 0 0 
-0.0745 -0.017982 -0.084739 -6.28319 0 0 
0.0745 -0.017982 -0.084739 6.28319 0 0 
-0.0745 -0.017982 0.054186 -6.28319 0 0 
0.0745 -0.017982 0.054186 6.28319 0 0 
0.0745 -0.017982 0.086124 6.28319 0 0 
-0.0745 -0.017982 0.086124 -6.28319 0 0 
-0.022532 -0.017982 -0.1 0 0 -6.28319 
-0.022532 -0.017982 0.1 0 0 6.28319 
0.022505 -0.017982 0.1 0 0 6.28319 
0.022505 -0.017982 -0.1 0 0 -6.28319 
0.059755 -0.017982 -0.1 0 0 -6.28319 
0.059755 -0.017982 0.1 0 0 6.28319 
-0.059782 -0.017982 0.1 0 0 6.28319 
-0.059782 -0.017982 -0.1 0 0 -6.28319 
-0.0745 0.002027 -0.1 -3.14159 0 -3.14159 
0.0745 0.002027 -0.1 3.14159 0 -3.14159 
0.0745 0.002027 0.1 3.14159 0 3.14159 
0.0745 0.002027 0 6.28319 0 0 
-0.0745 0.002027 0 -6.28319 0 0 
0.0745 0.002027 -0.069477 6.28319 0 0 
-0.0745 0.002027 -0.069477 -6.28319 0 0 
-0.0745 0.002027 0.072248 -6.28319 0 0 
0.0745 0.002027 0.072248 6.28319 0 0 
0 0.002027 0.1 0 0 6.28319 
0 0.002027 -0.1 0 0 -6.28319 
-0.045065 0.002027 -0.1 0 0 -6.28319 
-0.045065 0.002027 0.1 0 0 6.28319 
0.04501 0.002027 0.1 0 0 6.28319 
0.04501 0.002027 -0.1 0 0 -6.28319 
-0.0745 0.002027 -0.034739 -6.28319 0 0 
0.0745 0.002027 -0.034739 6.28319 0 0 
0.0745 0.002027 0.036124 6.28319 0 0 
-0.0745 0.002027 0.036124 -6.28319 0 0 
-0.0745 0.002027 -0.017369 -6.28319 0 0 
0.0745 0.002027 -0.017369 6.28319 0 0 
0.0745 0.002027 0.018062 6.28319 0 0 
-0.0745 0.002027 0.018062 -6.28319 0 0 
0.0745 0.002027 -0.052108 6.28319 0 0 
-0.0745 0.002027 -0.052108 -6.28319 0 0 
0.0745 0.002027 -0.084739 6.28319 0 0 
-0.0745 0.002027 -0.084739 -6.28319 0 0 
-0.0745 0.002027 0.054186 -6.28319 0 0 
0.0745 0.002027 0.054186 6.28319 0 0 
-0.0745 0.002027 0.086124 -6.28319 0 0 
0.0745 0.002027 0.086124 6.28319 0 0 
-0.022532 0.002027 0.1 0 0 6.28319 
-0.022532 0.002027 -0.1 0 0 -6.28319 
0.022505 0.002027 -0.1 0 0 -6.28319 
0.022505 0.002027 0.1 0 0 6.28319 
0.059755 0.002027 0.1 0 0 6.28319 
0.059755 0.002027 -0.1 0 0 -6.28319 
-0.059782 0.002027 -0.1 0 0 -6.28319 
-0.059782 0.002027 0.1 0 0 6.28319 
-0.0745 0.002027 0.1 -3.14159 0 3.14159 
-0.0745 0.020009 0.1 -3.14159 0 3.14159 
-0.0745 0.020009 -0.1 -3.14159 0 -3.14159 
0.0745 0.020009 -0.1 3.14159 0 -3.14159 
0.0745 0.020009 0.1 3.14159 0 3.14159 
0.0745 0.020009 0 6.28319 0 0 
-0.0745 0.020009 0 -6.28319 0 0 
0.0745 0.020009 -0.069477 6.28319 0 0 
-0.0745 0.020009 -0.069477 -6.28319 0 0 
-0.0745 0.020009 0.072248 -6.28319 0 0 
0.0745 0.020009 0.072248 6.28319 0 0 
0 0.020009 0.1 0 0 6.28319 
0 0.020009 -0.1 0 0 -6.28319 
-0.045065 0.020009 -0.1 0 0 -6.28319 
-0.045065 0.020009 0.1 0 0 6.28319 
0.04501 0.020009 0.1 0 0 6.28319 
0.04501 0.020009 -0.1 0 0 -6.28319 
-0.0745 0.020009 -0.034739 -6.28319 0 0 
0.0745 0.020009 -0.034739 6.28319 0 0 
0.0745 0.020009 0.036124 6.28319 0 0 
-0.0745 0.020009 0.036124 -6.28319 0 0 
-0.0745 0.020009 -0.017369 -6.28319 0 0 
0.0745 0.020009 -0.017369 6.28319 0 0 
0.0745 0.020009 0.018062 6.28319 0 0 
-0.0745 0.020009 0.018062 -6.28319 0 0 
0.0745 0.020009 -0.052108 6.28319 0 0 
-0.0745 0.020009 -0.052108 -6.28319 0 0 
0.0745 0.020009 -0.084739 6.28319 0 0 
-0.0745 0.020009 -0.084739 -6.28319 0 0 
-0.0745 0.020009 0.054186 -6.28319 0 0 
0.0745 0.020009 0.054186 6.28319 0 0 
-0.0745 0.020009 0.086124 -6.28319 0 0 
0.0745 0.020009 0.086124 6.28319 0 0 
-0.022532 0.020009 0.1 0 0 6.28319 
-0.022532 0.020009 -0.1 0 0 -6.28319 
0.022505 0.020009 -0.1 0 0 -6.28319 
0.022505 0.020009 0.1 0 0 6.28319 
0.059755 0.020009 0.1 0 0 6.28319 
0.059755 0.020009 -0.1 0 0 -6.28319 
-0.059782 0.020009 -0.1 0 0 -6.28319 
-0.059782 0.020009 0.1 0 0 6.28319 
3 421 126 3 
3 421 3 395 
3 431 218 7 
3 431 7 396 
3 425 151 5 
3 425 5 397 
3 433 247 1 
3 433 1 394 
3 245 153 4 
3 245 4 219 
3 273 152 1 
3 273 1 247 
3 263 99 9 
3 263 9 253 
3 235 100 10 
3 235 10 225 
3 415 91 11 
3 415 11 398 
3 417 102 9 
3 417 9 399 
3 420 129 15 
3 420 15 400 
3 241 127 13 
3 241 13 226 
3 269 126 12 
3 269 12 254 
3 419 114 12 
3 419 12 401 
3 424 152 18 
3 424 18 402 
3 271 147 18 
3 271 18 255 
3 243 148 19 
3 243 19 227 
3 423 139 17 
3 423 17 403 
3 187 140 29 
3 187 29 171 
3 215 141 28 
3 215 28 199 
3 213 130 27 
3 213 27 198 
3 185 131 26 
3 185 26 170 
3 179 92 25 
3 179 25 169 
3 207 93 24 
3 207 24 197 
3 217 154 23 
3 217 23 191 
3 189 155 22 
3 189 22 163 
3 429 191 23 
3 429 23 404 
3 427 162 21 
3 427 21 405 
3 432 251 35 
3 432 35 406 
3 272 156 36 
3 272 36 252 
3 262 94 32 
3 262 32 248 
3 268 132 33 
3 268 33 249 
3 270 142 34 
3 270 34 250 
3 186 143 39 
3 186 39 166 
3 184 133 38 
3 184 38 165 
3 178 95 37 
3 178 37 164 
3 188 157 31 
3 188 31 168 
3 426 168 31 
3 426 31 407 
3 430 224 46 
3 430 46 408 
3 244 158 46 
3 244 46 224 
3 234 96 42 
3 234 42 220 
3 240 134 43 
3 240 43 221 
3 242 144 44 
3 242 44 222 
3 214 145 49 
3 214 49 194 
3 212 135 48 
3 212 48 193 
3 206 97 47 
3 206 47 192 
3 216 159 41 
3 216 41 196 
3 428 195 40 
3 428 40 409 
3 349 200 65 
3 349 65 328 
3 351 228 64 
3 351 64 327 
3 347 172 63 
3 347 63 326 
3 353 256 62 
3 353 62 325 
3 346 173 61 
3 346 61 324 
3 348 201 60 
3 348 60 323 
3 343 146 59 
3 343 59 322 
3 345 160 58 
3 345 58 321 
3 339 116 57 
3 339 57 320 
3 341 136 56 
3 341 56 319 
3 337 104 55 
3 337 55 318 
3 335 98 54 
3 335 54 317 
3 352 257 50 
3 352 50 329 
3 344 161 53 
3 344 53 316 
3 350 229 52 
3 350 52 315 
3 340 137 51 
3 340 51 314 
3 338 125 77 
3 338 77 330 
3 334 101 76 
3 334 76 331 
3 211 124 75 
3 211 75 202 
3 239 123 74 
3 239 74 230 
3 183 122 73 
3 183 73 174 
3 267 121 72 
3 267 72 258 
3 210 120 71 
3 210 71 203 
3 182 119 70 
3 182 70 175 
3 414 99 68 
3 414 68 410 
3 418 118 67 
3 418 67 411 
3 238 115 69 
3 238 69 231 
3 266 114 68 
3 266 68 259 
3 342 149 89 
3 342 89 332 
3 336 113 88 
3 336 88 333 
3 209 112 87 
3 209 87 204 
3 237 111 86 
3 237 86 232 
3 181 110 85 
3 181 85 176 
3 265 109 84 
3 265 84 260 
3 208 108 83 
3 208 83 205 
3 180 107 82 
3 180 82 177 
3 416 106 81 
3 416 81 412 
3 236 103 79 
3 236 79 233 
3 264 102 78 
3 264 78 261 
3 422 147 78 
3 422 78 413 
3 399 9 99 
3 399 99 414 
3 318 55 101 
3 318 101 334 
3 330 77 98 
3 330 98 335 
3 202 75 97 
3 202 97 206 
3 230 74 96 
3 230 96 234 
3 174 73 95 
3 174 95 178 
3 258 72 94 
3 258 94 262 
3 203 71 93 
3 203 93 207 
3 175 70 92 
3 175 92 179 
3 411 67 91 
3 411 91 415 
3 231 69 100 
3 231 100 235 
3 259 68 99 
3 259 99 263 
3 253 9 102 
3 253 102 264 
3 225 10 103 
3 225 103 236 
3 398 11 106 
3 398 106 416 
3 169 25 107 
3 169 107 180 
3 197 24 108 
3 197 108 208 
3 248 32 109 
3 248 109 265 
3 164 37 110 
3 164 110 181 
3 220 42 111 
3 220 111 237 
3 192 47 112 
3 192 112 209 
3 317 54 113 
3 317 113 336 
3 332 89 104 
3 332 104 337 
3 413 78 102 
3 413 102 417 
3 254 12 114 
3 254 114 266 
3 226 13 115 
3 226 115 238 
3 400 15 118 
3 400 118 418 
3 170 26 119 
3 170 119 182 
3 198 27 120 
3 198 120 210 
3 249 33 121 
3 249 121 267 
3 165 38 122 
3 165 122 183 
3 221 43 123 
3 221 123 239 
3 193 48 124 
3 193 124 211 
3 319 56 125 
3 319 125 338 
3 331 76 116 
3 331 116 339 
3 410 68 114 
3 410 114 419 
3 320 57 137 
3 320 137 340 
3 315 52 136 
3 315 136 341 
3 190 45 135 
3 190 135 212 
3 218 40 134 
3 218 134 240 
3 162 35 133 
3 162 133 184 
3 246 30 132 
3 246 132 268 
3 167 20 131 
3 167 131 185 
3 195 21 130 
3 195 130 213 
3 251 3 126 
3 251 126 269 
3 223 6 127 
3 223 127 241 
3 396 7 129 
3 396 129 420 
3 401 12 126 
3 401 126 421 
3 402 18 147 
3 402 147 422 
3 321 58 149 
3 321 149 342 
3 333 88 146 
3 333 146 343 
3 204 87 145 
3 204 145 214 
3 232 86 144 
3 232 144 242 
3 176 85 143 
3 176 143 186 
3 260 84 142 
3 260 142 270 
3 205 83 141 
3 205 141 215 
3 177 82 140 
3 177 140 187 
3 412 81 139 
3 412 139 423 
3 233 79 148 
3 233 148 243 
3 261 78 147 
3 261 147 271 
3 322 59 161 
3 322 161 344 
3 329 50 160 
3 329 160 345 
3 194 49 159 
3 194 159 216 
3 222 44 158 
3 222 158 244 
3 166 39 157 
3 166 157 188 
3 250 34 156 
3 250 156 272 
3 171 29 155 
3 171 155 189 
3 199 28 154 
3 199 154 217 
3 394 1 152 
3 394 152 424 
3 255 18 152 
3 255 152 273 
3 227 19 153 
3 227 153 245 
3 403 17 151 
3 403 151 425 
3 34 171 189 
3 34 189 156 
3 28 166 188 
3 28 188 154 
3 84 177 187 
3 84 187 142 
3 83 176 186 
3 83 186 141 
3 30 167 185 
3 30 185 132 
3 21 162 184 
3 21 184 130 
3 27 165 183 
3 27 183 120 
3 33 170 182 
3 33 182 121 
3 24 164 181 
3 24 181 108 
3 32 169 180 
3 32 180 109 
3 72 175 179 
3 72 179 94 
3 71 174 178 
3 71 178 93 
3 109 180 177 
3 109 177 84 
3 108 181 176 
3 108 176 83 
3 121 182 175 
3 121 175 72 
3 120 183 174 
3 120 174 71 
3 325 62 173 
3 325 173 346 
3 323 60 172 
3 323 172 347 
3 404 23 168 
3 404 168 426 
3 154 188 168 
3 154 168 23 
3 93 178 164 
3 93 164 24 
3 130 184 165 
3 130 165 27 
3 141 186 166 
3 141 166 28 
3 406 35 162 
3 406 162 427 
3 156 189 163 
3 156 163 36 
3 94 179 169 
3 94 169 32 
3 132 185 170 
3 132 170 33 
3 142 187 171 
3 142 171 34 
3 44 199 217 
3 44 217 158 
3 29 194 216 
3 29 216 155 
3 86 205 215 
3 86 215 144 
3 82 204 214 
3 82 214 140 
3 40 195 213 
3 40 213 134 
3 20 190 212 
3 20 212 131 
3 26 193 211 
3 26 211 119 
3 43 198 210 
3 43 210 123 
3 25 192 209 
3 25 209 107 
3 42 197 208 
3 42 208 111 
3 74 203 207 
3 74 207 96 
3 70 202 206 
3 70 206 92 
3 111 208 205 
3 111 205 86 
3 107 209 204 
3 107 204 82 
3 123 210 203 
3 123 203 74 
3 119 211 202 
3 119 202 70 
3 327 64 201 
3 327 201 348 
3 324 61 200 
3 324 200 349 
3 405 21 195 
3 405 195 428 
3 155 216 196 
3 155 196 22 
3 92 206 192 
3 92 192 25 
3 131 212 193 
3 131 193 26 
3 140 214 194 
3 140 194 29 
3 408 46 191 
3 408 191 429 
3 158 217 191 
3 158 191 46 
3 96 207 197 
3 96 197 42 
3 134 213 198 
3 134 198 43 
3 144 215 199 
3 144 199 44 
3 49 227 245 
3 49 245 159 
3 17 222 244 
3 17 244 151 
3 87 233 243 
3 87 243 145 
3 81 232 242 
3 81 242 139 
3 45 223 241 
3 45 241 135 
3 7 218 240 
3 7 240 129 
3 15 221 239 
3 15 239 118 
3 48 226 238 
3 48 238 124 
3 11 220 237 
3 11 237 106 
3 47 225 236 
3 47 236 112 
3 75 231 235 
3 75 235 97 
3 67 230 234 
3 67 234 91 
3 112 236 233 
3 112 233 87 
3 106 237 232 
3 106 232 81 
3 124 238 231 
3 124 231 75 
3 118 239 230 
3 118 230 67 
3 328 65 229 
3 328 229 350 
3 316 53 228 
3 316 228 351 
3 139 242 222 
3 139 222 17 
3 129 240 221 
3 129 221 15 
3 91 234 220 
3 91 220 11 
3 151 244 224 
3 151 224 5 
3 397 5 224 
3 397 224 430 
3 145 243 227 
3 145 227 49 
3 135 241 226 
3 135 226 48 
3 97 235 225 
3 97 225 47 
3 159 245 219 
3 159 219 41 
3 409 40 218 
3 409 218 431 
3 39 255 273 
3 39 273 157 
3 16 250 272 
3 16 272 150 
3 85 261 271 
3 85 271 143 
3 80 260 270 
3 80 270 138 
3 35 251 269 
3 35 269 133 
3 2 246 268 
3 2 268 128 
3 14 249 267 
3 14 267 117 
3 38 254 266 
3 38 266 122 
3 8 248 265 
3 8 265 105 
3 37 253 264 
3 37 264 110 
3 73 259 263 
3 73 263 95 
3 66 258 262 
3 66 262 90 
3 110 264 261 
3 110 261 85 
3 105 265 260 
3 105 260 80 
3 122 266 259 
3 122 259 73 
3 117 267 258 
3 117 258 66 
3 326 63 257 
3 326 257 352 
3 314 51 256 
3 314 256 353 
3 138 270 250 
3 138 250 16 
3 128 268 249 
3 128 249 14 
3 90 262 248 
3 90 248 8 
3 150 272 252 
3 150 252 0 
3 395 3 251 
3 395 251 432 
3 143 271 255 
3 143 255 39 
3 133 269 254 
3 133 254 38 
3 95 263 253 
3 95 253 37 
3 157 273 247 
3 157 247 31 
3 407 31 247 
3 407 247 433 
3 366 287 313 
3 366 313 392 
3 354 275 312 
3 354 312 391 
3 368 289 311 
3 368 311 390 
3 356 277 310 
3 356 310 389 
3 367 288 309 
3 367 309 388 
3 364 285 308 
3 364 308 387 
3 365 286 307 
3 365 307 386 
3 363 284 306 
3 363 306 385 
3 362 283 305 
3 362 305 384 
3 393 274 304 
3 393 304 383 
3 371 292 303 
3 371 303 382 
3 361 282 302 
3 361 302 381 
3 360 281 301 
3 360 301 380 
3 355 276 300 
3 355 300 379 
3 369 290 299 
3 369 299 378 
3 359 280 298 
3 359 298 377 
3 372 293 297 
3 372 297 376 
3 357 278 296 
3 357 296 375 
3 370 291 295 
3 370 295 374 
3 358 279 294 
3 358 294 373 
3 381 302 293 
3 381 293 372 
3 375 296 292 
3 375 292 371 
3 377 298 291 
3 377 291 370 
3 373 294 290 
3 373 290 369 
3 387 308 289 
3 387 289 368 
3 389 310 288 
3 389 288 367 
3 385 306 287 
3 385 287 366 
3 391 312 286 
3 391 286 365 
3 386 307 285 
3 386 285 364 
3 388 309 284 
3 388 284 363 
3 382 303 283 
3 382 283 362 
3 383 304 282 
3 383 282 361 
3 378 299 281 
3 378 281 360 
3 379 300 280 
3 379 280 359 
3 376 297 279 
3 376 279 358 
3 374 295 278 
3 374 278 357 
3 392 313 274 
3 392 274 393 
3 384 305 277 
3 384 277 356 
3 390 311 276 
3 390 276 355 
3 380 301 275 
3 380 275 354 
3 2 314 353 
3 2 353 246 
3 36 326 352 
3 36 352 252 
3 4 316 351 
3 4 351 219 
3 45 328 350 
3 45 350 223 
3 20 324 349 
3 20 349 190 
3 41 327 348 
3 41 348 196 
3 22 323 347 
3 22 347 163 
3 30 325 346 
3 30 346 167 
3 0 329 345 
3 0 345 150 
3 19 322 344 
3 19 344 153 
3 79 333 343 
3 79 343 148 
3 16 321 342 
3 16 342 138 
3 6 315 341 
3 6 341 127 
3 14 320 340 
3 14 340 128 
3 66 331 339 
3 66 339 117 
3 13 319 338 
3 13 338 115 
3 80 332 337 
3 80 337 105 
3 10 317 336 
3 10 336 103 
3 69 330 335 
3 69 335 100 
3 8 318 334 
3 8 334 90 
3 103 336 333 
3 103 333 79 
3 138 342 332 
3 138 332 80 
3 90 334 331 
3 90 331 66 
3 115 338 330 
3 115 330 69 
3 128 340 314 
3 128 314 2 
3 223 350 315 
3 223 315 6 
3 153 344 316 
3 153 316 4 
3 252 352 329 
3 252 329 0 
3 100 335 317 
3 100 317 10 
3 105 337 318 
3 105 318 8 
3 127 341 319 
3 127 319 13 
3 117 339 320 
3 117 320 14 
3 150 345 321 
3 150 321 16 
3 148 343 322 
3 148 322 19 
3 196 348 323 
3 196 323 22 
3 167 346 324 
3 167 324 20 
3 246 353 325 
3 246 325 30 
3 163 347 326 
3 163 326 36 
3 219 351 327 
3 219 327 41 
3 190 349 328 
3 190 328 45 
3 137 380 354 
3 137 354 51 
3 229 390 355 
3 229 355 52 
3 161 384 356 
3 161 356 53 
3 257 392 393 
3 257 393 50 
3 98 374 357 
3 98 357 54 
3 104 376 358 
3 104 358 55 
3 136 379 359 
3 136 359 56 
3 116 378 360 
3 116 360 57 
3 160 383 361 
3 160 361 58 
3 146 382 362 
3 146 362 59 
3 201 388 363 
3 201 363 60 
3 173 386 364 
3 173 364 61 
3 256 391 365 
3 256 365 62 
3 172 385 366 
3 172 366 63 
3 228 389 367 
3 228 367 64 
3 200 387 368 
3 200 368 65 
3 101 373 369 
3 101 369 76 
3 125 377 370 
3 125 370 77 
3 113 375 371 
3 113 371 88 
3 149 381 372 
3 149 372 89 
3 55 358 373 
3 55 373 101 
3 77 370 374 
3 77 374 98 
3 54 357 375 
3 54 375 113 
3 89 372 376 
3 89 376 104 
3 56 359 377 
3 56 377 125 
3 76 369 378 
3 76 378 116 
3 52 355 379 
3 52 379 136 
3 57 360 380 
3 57 380 137 
3 58 361 381 
3 58 381 149 
3 88 371 382 
3 88 382 146 
3 50 393 383 
3 50 383 160 
3 59 362 384 
3 59 384 161 
3 60 363 385 
3 60 385 172 
3 62 365 386 
3 62 386 173 
3 61 364 387 
3 61 387 200 
3 64 367 388 
3 64 388 201 
3 53 356 389 
3 53 389 228 
3 65 368 390 
3 65 390 229 
3 51 354 391 
3 51 391 256 
3 63 366 392 
3 63 392 257 
3 287 407 433 
3 287 433 313 
3 275 395 432 
3 275 432 312 
3 289 409 431 
3 289 431 311 
3 277 397 430 
3 277 430 310 
3 288 408 429 
3 288 429 309 
3 285 405 428 
3 285 428 308 
3 286 406 427 
3 286 427 307 
3 284 404 426 
3 284 426 306 
3 283 403 425 
3 283 425 305 
3 274 394 424 
3 274 424 304 
3 292 412 423 
3 292 423 303 
3 282 402 422 
3 282 422 302 
3 281 401 421 
3 281 421 301 
3 276 396 420 
3 276 420 300 
3 290 410 419 
3 290 419 299 
3 280 400 418 
3 280 418 298 
3 293 413 417 
3 293 417 297 
3 278 398 416 
3 278 416 296 
3 291 411 415 
3 291 415 295 
3 279 399 414 
3 279 414 294 
3 302 422 413 
3 302 413 293 
3 296 416 412 
3 296 412 292 
3 298 418 411 
3 298 411 291 
3 294 414 410 
3 294 410 290 
3 308 428 409 
3 308 409 289 
3 310 430 408 
3 310 408 288 
3 306 426 407 
3 306 407 287 
3 312 432 406 
3 312 406 286 
3 307 427 405 
3 307 405 285 
3 309 429 404 
3 309 404 284 
3 303 423 403 
3 303 403 283 
3 304 424 402 
3 304 402 282 
3 299 419 401 
3 299 401 281 
3 300 420 400 
3 300 400 280 
3 297 417 399 
3 297 399 279 
3 295 415 398 
3 295 398 278 
3 313 433 394 
3 313 394 274 
3 305 425 397 
3 305 397 277 
3 311 431 396 
3 311 396 276 
3 301 421 395 
3 301 395 275 
