ply
format ascii 1.0
comment VCGLIB generated
element vertex 42
property float x
property float y
property float z
property float nx
property float ny
property float nz
element face 80
property list uchar int vertex_indices
end_header
0.0795968 0.0108806 -0.0578298 0.841577 0.795275 -0.322139 
-0.01787 0.0552585 -0.0549995 -0.259957 0.915091 -0.188868 
2.71481e-08 0.0716866 -2.04891e-09 -0.322143 1.134 0.234049 
-0.01787 0.0552585 0.0549995 0.0992954 0.915087 0.305594 
0.104616 -0.0383134 -0.0339914 0.877697 0.320421 -0.259948 
0.0289156 0.0195177 -0.0889913 0.0240007 0.320428 -0.915083 
0.0646565 -0.0383134 -0.0889919 0.77842 0.121841 -0.565552 
-0.0304027 0.0108807 -0.0935714 -0.368452 0.150987 -1.13398 
0.0795968 0.0108806 0.0578298 0.964625 0.150987 0.700837 
0.104616 -0.0383134 0.0339914 0.778426 0.121842 0.565557 
0.0757009 -0.0961448 -0.0549997 0.39662 -0.641753 -0.609483 
0.0578303 -0.131885 -2.04891e-09 0.259954 -0.915078 0.188866 
0.0178702 -0.131885 0.0549995 0.259957 -0.915091 0.188868 
0.0304027 -0.0875076 0.0935715 0.491499 -0.795274 0.755284 
-0.0467854 -0.131885 0.0339912 -0.196449 -0.832167 0.604597 
-0.0795968 -0.0875076 0.0578298 -0.566438 -0.795272 0.700834 
-0.0467854 -0.131885 -0.0339913 -0.321321 -0.915093 0 
0.0304027 -0.0875076 -0.0935714 0.0463083 -0.795273 -0.899931 
0.0178702 -0.131885 -0.0549995 0.259957 -0.915091 -0.188868 
2.71481e-08 -0.148313 -2.04891e-09 0.322143 -1.134 -0.234049 
0.0757009 -0.0961448 0.0549997 0.862878 -0.320426 0.305596 
0.0646565 -0.0383134 0.0889922 0.557282 -0.320429 0.726213 
-0.0289156 -0.0961448 0.0889911 -0.518471 -0.320433 0.754431 
-0.0935713 -0.0961448 -2.04891e-09 -0.877725 -0.320431 0.259957 
-0.0646563 -0.0383134 -0.0889919 -0.31786 -0.196454 -0.978273 
-0.0289156 -0.0961448 -0.0889913 -0.0240007 -0.320428 -0.915083 
0.0289156 0.0195177 0.0889911 0.317854 0.196449 0.978252 
2.71481e-08 -0.0383134 0.11 0.0240005 0.320424 0.915072 
-0.0646563 -0.0383134 0.0889922 -0.77842 -0.121841 0.565552 
-0.104616 -0.0383134 0.0339914 -0.778426 -0.121842 0.565557 
-0.104616 -0.0383134 -0.0339914 -0.778426 -0.121842 -0.565557 
-0.0795968 -0.0875076 -0.0578298 -0.964625 -0.150987 -0.700837 
2.71481e-08 -0.0383134 -0.11 0.317856 0.196451 -0.978261 
0.0983869 -0.0875072 -2.04891e-09 1.19233 -0.150986 0 
-0.0757008 0.0195175 0.0549997 -0.39662 0.641753 0.609483 
-0.0304027 0.0108807 0.0935715 -0.491499 0.795274 0.755284 
-0.0578303 0.0552582 -2.04891e-09 -0.514304 0.832171 0.373665 
-0.0983869 0.0108802 -2.04891e-09 -0.870198 0.795266 -0.234046 
-0.0757008 0.0195175 -0.0549997 -0.39662 0.641753 -0.609483 
0.0935713 0.0195175 -2.04891e-09 0.679127 0.641762 0.259956 
0.0467855 0.0552585 0.0339912 0.635717 0.832167 0 
0.0467855 0.0552585 -0.0339913 0.457096 0.641756 -0.565548 
3 2 41 1 
3 0 41 39 
3 2 1 36 
3 2 36 3 
3 2 3 40 
3 0 39 4 
3 7 5 32 
3 37 38 30 
3 35 34 28 
3 8 26 21 
3 0 4 6 
3 7 32 24 
3 37 30 29 
3 35 28 27 
3 8 21 9 
3 17 10 18 
3 31 25 16 
3 15 23 14 
3 13 22 12 
3 33 20 11 
3 11 12 19 
3 11 20 12 
3 20 13 12 
3 12 14 19 
3 12 22 14 
3 22 15 14 
3 14 16 19 
3 14 23 16 
3 23 31 16 
3 16 18 19 
3 16 25 18 
3 25 17 18 
3 18 11 19 
3 18 10 11 
3 10 33 11 
3 9 20 33 
3 9 21 20 
3 21 13 20 
3 27 22 13 
3 27 28 22 
3 28 15 22 
3 29 23 15 
3 29 30 23 
3 30 31 23 
3 24 25 31 
3 24 32 25 
3 32 17 25 
3 6 10 17 
3 6 4 10 
3 4 33 10 
3 21 27 13 
3 21 26 27 
3 26 35 27 
3 28 29 15 
3 28 34 29 
3 34 37 29 
3 30 24 31 
3 30 38 24 
3 38 7 24 
3 32 6 17 
3 32 5 6 
3 5 0 6 
3 4 9 33 
3 4 39 9 
3 39 8 9 
3 40 26 8 
3 40 3 26 
3 3 35 26 
3 3 34 35 
3 3 36 34 
3 36 37 34 
3 36 38 37 
3 36 1 38 
3 1 7 38 
3 39 40 8 
3 39 41 40 
3 41 2 40 
3 1 5 7 
3 1 41 5 
3 41 0 5 
