ply
format ascii 1.0
comment VCGLIB generated
element vertex 208
property float x
property float y
property float z
property float nx
property float ny
property float nz
element face 408
property list uchar int vertex_indices
end_header
-0.081 -0.080935 0.080935 -1.5708 -1.5708 1.5708 
-0.081 0.080935 0.080935 -1.5708 1.5708 1.5708 
-0.081 -0.080935 -0.080935 -1.5708 -1.5708 -1.5708 
-0.081 0.080935 -0.080935 -1.5708 1.5708 -1.5708 
0.081 -0.080935 0.080935 1.5708 -1.5708 1.5708 
0.081 0.080935 0.080935 1.5708 1.5708 1.5708 
0.081 -0.080935 -0.080935 1.5708 -1.5708 -1.5708 
0.081 0.080935 -0.080935 1.5708 1.5708 -1.5708 
-0.081 -0.080935 0 -3.14159 -3.14159 0 
-0.081 0.080935 0 -3.14159 3.14159 0 
0.081 -0.080935 0 3.14159 -3.14159 0 
0.081 0.080935 0 3.14159 3.14159 0 
-0.081 -0.080935 0.040468 -3.14159 -3.14159 0 
0.081 0.080935 0.040468 3.14159 3.14159 0 
-0.081 0.080935 0.040468 -3.14159 3.14159 0 
0.081 -0.080935 0.040468 3.14159 -3.14159 0 
-0.081 0.080935 -0.040468 -3.14159 3.14159 0 
0.081 -0.080935 -0.040468 3.14159 -3.14159 0 
-0.081 -0.080935 -0.040468 -3.14159 -3.14159 0 
0.081 0.080935 -0.040468 3.14159 3.14159 0 
0 -0.080935 -0.080935 0 -3.14159 -3.14159 
0 0.080935 -0.080935 0 3.14159 -3.14159 
0 -0.080935 0.080935 0 -3.14159 3.14159 
0 0.080935 0.080935 0 3.14159 3.14159 
0 0.080935 0 0 6.28319 0 
0 -0.080935 0 0 -6.28319 0 
0 0.080935 0.040468 0 6.28319 0 
0 -0.080935 0.040468 0 -6.28319 0 
0 -0.080935 -0.040468 0 -6.28319 0 
0 0.080935 -0.040468 0 6.28319 0 
-0.0405 -0.080935 -0.080935 0 -3.14159 -3.14159 
-0.0405 0.080935 0.080935 0 3.14159 3.14159 
-0.0405 -0.080935 0 0 -6.28319 0 
-0.0405 -0.080935 0.040468 0 -6.28319 0 
-0.0405 -0.080935 -0.040468 0 -6.28319 0 
-0.0405 0.080935 -0.080935 0 3.14159 -3.14159 
-0.0405 -0.080935 0.080935 0 -3.14159 3.14159 
-0.0405 0.080935 0 0 6.28319 0 
-0.0405 0.080935 0.040468 0 6.28319 0 
-0.0405 0.080935 -0.040468 0 6.28319 0 
0.0405 0.080935 -0.080935 0 3.14159 -3.14159 
0.0405 -0.080935 0.080935 0 -3.14159 3.14159 
0.0405 0.080935 0 0 6.28319 0 
0.0405 0.080935 0.040468 0 6.28319 0 
0.0405 0.080935 -0.040468 0 6.28319 0 
0.0405 -0.080935 -0.080935 0 -3.14159 -3.14159 
0.0405 0.080935 0.080935 0 3.14159 3.14159 
0.0405 -0.080935 0 0 -6.28319 0 
0.0405 -0.080935 0.040468 0 -6.28319 0 
0.0405 -0.080935 -0.040468 0 -6.28319 0 
-0.081 0 0.080935 -3.14159 0 3.14159 
-0.081 0 -0.080935 -3.14159 0 -3.14159 
0.081 0 -0.080935 3.14159 0 -3.14159 
0.081 0 0.080935 3.14159 0 3.14159 
0.081 0 0 6.28319 0 0 
-0.081 0 0 -6.28319 0 0 
-0.081 0 0.040468 -6.28319 0 0 
0.081 0 0.040468 6.28319 0 0 
0.081 0 -0.040468 6.28319 0 0 
-0.081 0 -0.040468 -6.28319 0 0 
0 0 0.080935 0 0 6.28319 
0 0 -0.080935 0 0 -6.28319 
-0.0405 0 -0.080935 0 0 -6.28319 
-0.0405 0 0.080935 0 0 6.28319 
0.0405 0 0.080935 0 0 6.28319 
0.0405 0 -0.080935 0 0 -6.28319 
-0.081 0.040468 0.080935 -3.14159 0 3.14159 
-0.081 0.040468 -0.080935 -3.14159 0 -3.14159 
0.081 0.040468 -0.080935 3.14159 0 -3.14159 
0.081 0.040468 0.080935 3.14159 0 3.14159 
0.081 0.040468 0 6.28319 0 0 
-0.081 0.040468 0 -6.28319 0 0 
-0.081 0.040468 0.040468 -6.28319 0 0 
0.081 0.040468 0.040468 6.28319 0 0 
0.081 0.040468 -0.040468 6.28319 0 0 
-0.081 0.040468 -0.040468 -6.28319 0 0 
0 0.040468 0.080935 0 0 6.28319 
0 0.040468 -0.080935 0 0 -6.28319 
-0.0405 0.040468 -0.080935 0 0 -6.28319 
-0.0405 0.040468 0.080935 0 0 6.28319 
0.0405 0.040468 0.080935 0 0 6.28319 
0.0405 0.040468 -0.080935 0 0 -6.28319 
-0.081 -0.040468 -0.080935 -3.14159 0 -3.14159 
0.081 -0.040468 -0.080935 3.14159 0 -3.14159 
0.081 -0.040468 0.080935 3.14159 0 3.14159 
0.081 -0.040468 0 6.28319 0 0 
-0.081 -0.040468 0 -6.28319 0 0 
-0.081 -0.040468 0.040468 -6.28319 0 0 
0.081 -0.040468 0.040468 6.28319 0 0 
0.081 -0.040468 -0.040468 6.28319 0 0 
-0.081 -0.040468 -0.040468 -6.28319 0 0 
0 -0.040468 0.080935 0 0 6.28319 
0 -0.040468 -0.080935 0 0 -6.28319 
-0.0405 -0.040468 -0.080935 0 0 -6.28319 
-0.0405 -0.040468 0.080935 0 0 6.28319 
0.0405 -0.040468 0.080935 0 0 6.28319 
0.0405 -0.040468 -0.080935 0 0 -6.28319 
-0.081 -0.040468 0.080935 -3.14159 0 3.14159 
-0.072583 -0.080935 -0.080935 0 -3.14159 -3.14159 
-0.072583 0.080935 0.080935 0 3.14159 3.14159 
-0.072583 -0.080935 0 0 -6.28319 0 
-0.072583 -0.080935 0.040468 0 -6.28319 0 
-0.072583 -0.080935 -0.040468 0 -6.28319 0 
-0.072583 0.080935 -0.080935 0 3.14159 -3.14159 
-0.072583 -0.080935 0.080935 0 -3.14159 3.14159 
-0.072583 0.080935 0 0 6.28319 0 
-0.072583 0.080935 0.040468 0 6.28319 0 
-0.072583 0.080935 -0.040468 0 6.28319 0 
-0.072583 0 -0.080935 0 0 -6.28319 
-0.072583 0 0.080935 0 0 6.28319 
-0.072583 0.040468 -0.080935 0 0 -6.28319 
-0.072583 0.040468 0.080935 0 0 6.28319 
-0.072583 -0.040468 0.080935 0 0 6.28319 
-0.072583 -0.040468 -0.080935 0 0 -6.28319 
0.072566 0.080935 -0.080935 0 3.14159 -3.14159 
0.072566 -0.080935 0.080935 0 -3.14159 3.14159 
0.072566 0.080935 0 0 6.28319 0 
0.072566 0.080935 0.040468 0 6.28319 0 
0.072566 0.080935 -0.040468 0 6.28319 0 
0.072566 -0.080935 -0.080935 0 -3.14159 -3.14159 
0.072566 0.080935 0.080935 0 3.14159 3.14159 
0.072566 -0.080935 0 0 -6.28319 0 
0.072566 -0.080935 0.040468 0 -6.28319 0 
0.072566 -0.080935 -0.040468 0 -6.28319 0 
0.072566 0 0.080935 0 0 6.28319 
0.072566 0 -0.080935 0 0 -6.28319 
0.072566 0.040468 0.080935 0 0 6.28319 
0.072566 0.040468 -0.080935 0 0 -6.28319 
0.072566 -0.040468 -0.080935 0 0 -6.28319 
0.072566 -0.040468 0.080935 0 0 6.28319 
-0.081 0.080935 -0.072011 -3.14159 3.14159 0 
0.081 -0.080935 -0.072011 3.14159 -3.14159 0 
-0.081 -0.080935 -0.072011 -3.14159 -3.14159 0 
0.081 0.080935 -0.072011 3.14159 3.14159 0 
0 0.080935 -0.072011 0 6.28319 0 
0 -0.080935 -0.072011 0 -6.28319 0 
-0.0405 -0.080935 -0.072011 0 -6.28319 0 
-0.0405 0.080935 -0.072011 0 6.28319 0 
0.0405 0.080935 -0.072011 0 6.28319 0 
0.0405 -0.080935 -0.072011 0 -6.28319 0 
0.081 0 -0.072011 6.28319 0 0 
-0.081 0 -0.072011 -6.28319 0 0 
0.081 0.040468 -0.072011 6.28319 0 0 
-0.081 0.040468 -0.072011 -6.28319 0 0 
-0.081 -0.040468 -0.072011 -6.28319 0 0 
0.081 -0.040468 -0.072011 6.28319 0 0 
-0.072583 -0.080935 -0.072011 0 -6.28319 0 
-0.072583 0.080935 -0.072011 0 6.28319 0 
0.072566 0.080935 -0.072011 0 6.28319 0 
0.072566 -0.080935 -0.072011 0 -6.28319 0 
-0.081 -0.080935 0.071943 -3.14159 -3.14159 0 
0.081 0.080935 0.071943 3.14159 3.14159 0 
-0.081 0.080935 0.071943 -3.14159 3.14159 0 
0.081 -0.080935 0.071943 3.14159 -3.14159 0 
0 0.080935 0.071943 0 6.28319 0 
0 -0.080935 0.071943 0 -6.28319 0 
-0.0405 -0.080935 0.071943 0 -6.28319 0 
-0.0405 0.080935 0.071943 0 6.28319 0 
0.0405 0.080935 0.071943 0 6.28319 0 
0.0405 -0.080935 0.071943 0 -6.28319 0 
-0.081 0 0.071943 -6.28319 0 0 
0.081 0 0.071943 6.28319 0 0 
-0.081 0.040468 0.071943 -6.28319 0 0 
0.081 0.040468 0.071943 6.28319 0 0 
0.081 -0.040468 0.071943 6.28319 0 0 
-0.081 -0.040468 0.071943 -6.28319 0 0 
-0.072583 -0.080935 0.071943 0 -6.28319 0 
-0.072583 0.080935 0.071943 0 6.28319 0 
0.072566 0.080935 0.071943 0 6.28319 0 
0.072566 -0.080935 0.071943 0 -6.28319 0 
-0.081 0.072392 0.080935 -3.14159 0 3.14159 
-0.081 0.072392 -0.080935 -3.14159 0 -3.14159 
0.081 0.072392 -0.080935 3.14159 0 -3.14159 
0.081 0.072392 0.080935 3.14159 0 3.14159 
0.081 0.072392 0 6.28319 0 0 
-0.081 0.072392 0 -6.28319 0 0 
-0.081 0.072392 0.040468 -6.28319 0 0 
0.081 0.072392 0.040468 6.28319 0 0 
0.081 0.072392 -0.040468 6.28319 0 0 
-0.081 0.072392 -0.040468 -6.28319 0 0 
0 0.072392 0.080935 0 0 6.28319 
0 0.072392 -0.080935 0 0 -6.28319 
-0.0405 0.072392 -0.080935 0 0 -6.28319 
-0.0405 0.072392 0.080935 0 0 6.28319 
0.0405 0.072392 0.080935 0 0 6.28319 
0.0405 0.072392 -0.080935 0 0 -6.28319 
-0.072583 0.072392 -0.080935 0 0 -6.28319 
-0.072583 0.072392 0.080935 0 0 6.28319 
0.072566 0.072392 0.080935 0 0 6.28319 
0.072566 0.072392 -0.080935 0 0 -6.28319 
0.081 0.072392 -0.072011 6.28319 0 0 
-0.081 0.072392 -0.072011 -6.28319 0 0 
-0.081 0.072392 0.071943 -6.28319 0 0 
0.081 0.072392 0.071943 6.28319 0 0 
-0.081 0.080935 0.080935 0 0 0 
-0.081 0.080935 -0.080935 0 0 0 
-0.081 0.080935 0 0 0 0 
-0.081 0.080935 0.040468 0 0 0 
-0.081 0.080935 -0.040468 0 0 0 
-0.081 0.080935 -0.072011 0 0 0 
-0.081 0.080935 0.071943 0 0 0 
-0.081 0.080935 -0.072011 0 0 0 
-0.081 0.080935 -0.080935 0 0 0 
-0.081 0.080935 0.040468 0 0 0 
-0.081 0.080935 0 0 0 0 
-0.081 0.080935 0.071943 0 0 0 
-0.081 0.080935 -0.040468 0 0 0 
-0.081 0.080935 0.080935 0 0 0 
3 191 130 3 
3 191 3 171 
3 189 114 7 
3 189 7 172 
3 193 151 5 
3 193 5 173 
3 187 99 1 
3 187 1 170 
3 169 153 4 
3 169 4 115 
3 167 152 1 
3 167 1 99 
3 107 16 9 
3 107 9 105 
3 123 17 10 
3 123 10 121 
3 178 19 11 
3 178 11 174 
3 176 14 9 
3 176 9 175 
3 192 152 14 
3 192 14 176 
3 105 9 14 
3 105 14 106 
3 121 10 15 
3 121 15 122 
3 174 11 13 
3 174 13 177 
3 190 133 19 
3 190 19 178 
3 149 131 17 
3 149 17 123 
3 147 130 16 
3 147 16 107 
3 175 9 16 
3 175 16 179 
3 138 134 29 
3 138 29 44 
3 136 135 28 
3 136 28 34 
3 32 25 27 
3 32 27 33 
3 42 24 26 
3 42 26 43 
3 34 28 25 
3 34 25 32 
3 44 29 24 
3 44 24 42 
3 158 154 23 
3 158 23 46 
3 156 155 22 
3 156 22 36 
3 184 46 23 
3 184 23 180 
3 182 35 21 
3 182 21 181 
3 186 103 35 
3 186 35 182 
3 166 156 36 
3 166 36 104 
3 102 34 32 
3 102 32 100 
3 100 32 33 
3 100 33 101 
3 146 136 34 
3 146 34 102 
3 134 137 39 
3 134 39 29 
3 24 37 38 
3 24 38 26 
3 29 39 37 
3 29 37 24 
3 154 157 31 
3 154 31 23 
3 180 23 31 
3 180 31 183 
3 188 120 46 
3 188 46 184 
3 168 158 46 
3 168 46 120 
3 118 44 42 
3 118 42 116 
3 116 42 43 
3 116 43 117 
3 148 138 44 
3 148 44 118 
3 135 139 49 
3 135 49 28 
3 25 47 48 
3 25 48 27 
3 28 49 47 
3 28 47 25 
3 155 159 41 
3 155 41 22 
3 181 21 40 
3 181 40 185 
3 92 61 65 
3 92 65 96 
3 129 124 64 
3 129 64 95 
3 91 60 63 
3 91 63 94 
3 113 108 62 
3 113 62 93 
3 93 62 61 
3 93 61 92 
3 95 64 60 
3 95 60 91 
3 86 55 59 
3 86 59 90 
3 145 140 58 
3 145 58 89 
3 85 54 57 
3 85 57 88 
3 165 160 56 
3 165 56 87 
3 87 56 55 
3 87 55 86 
3 89 58 54 
3 89 54 85 
3 112 109 50 
3 112 50 97 
3 164 161 53 
3 164 53 84 
3 128 125 52 
3 128 52 83 
3 144 141 51 
3 144 51 82 
3 61 77 81 
3 61 81 65 
3 124 126 80 
3 124 80 64 
3 60 76 79 
3 60 79 63 
3 108 110 78 
3 108 78 62 
3 62 78 77 
3 62 77 61 
3 64 80 76 
3 64 76 60 
3 55 71 75 
3 55 75 59 
3 140 142 74 
3 140 74 58 
3 54 70 73 
3 54 73 57 
3 160 162 72 
3 160 72 56 
3 56 72 71 
3 56 71 55 
3 58 74 70 
3 58 70 54 
3 109 111 66 
3 109 66 50 
3 161 163 69 
3 161 69 53 
3 125 127 68 
3 125 68 52 
3 141 143 67 
3 141 67 51 
3 132 144 82 
3 132 82 2 
3 119 128 83 
3 119 83 6 
3 153 164 84 
3 153 84 4 
3 104 112 97 
3 104 97 0 
3 17 89 85 
3 17 85 10 
3 12 87 86 
3 12 86 8 
3 150 165 87 
3 150 87 12 
3 10 85 88 
3 10 88 15 
3 131 145 89 
3 131 89 17 
3 8 86 90 
3 8 90 18 
3 41 95 91 
3 41 91 22 
3 30 93 92 
3 30 92 20 
3 98 113 93 
3 98 93 30 
3 22 91 94 
3 22 94 36 
3 115 129 95 
3 115 95 41 
3 20 92 96 
3 20 96 45 
3 2 82 113 
3 2 113 98 
3 36 94 112 
3 36 112 104 
3 63 79 111 
3 63 111 109 
3 51 67 110 
3 51 110 108 
3 94 63 109 
3 94 109 112 
3 82 51 108 
3 82 108 113 
3 132 146 102 
3 132 102 18 
3 8 100 101 
3 8 101 12 
3 18 102 100 
3 18 100 8 
3 150 166 104 
3 150 104 0 
3 171 3 103 
3 171 103 186 
3 137 147 107 
3 137 107 39 
3 37 105 106 
3 37 106 38 
3 39 107 105 
3 39 105 37 
3 157 167 99 
3 157 99 31 
3 183 31 99 
3 183 99 187 
3 4 84 129 
3 4 129 115 
3 45 96 128 
3 45 128 119 
3 65 81 127 
3 65 127 125 
3 53 69 126 
3 53 126 124 
3 96 65 125 
3 96 125 128 
3 84 53 124 
3 84 124 129 
3 133 148 118 
3 133 118 19 
3 11 116 117 
3 11 117 13 
3 19 118 116 
3 19 116 11 
3 151 168 120 
3 151 120 5 
3 173 5 120 
3 173 120 188 
3 139 149 123 
3 139 123 49 
3 47 121 122 
3 47 122 48 
3 49 123 121 
3 49 121 47 
3 159 169 115 
3 159 115 41 
3 185 40 114 
3 185 114 189 
3 45 119 149 
3 45 149 139 
3 7 114 148 
3 7 148 133 
3 35 103 147 
3 35 147 137 
3 2 98 146 
3 2 146 132 
3 6 83 145 
3 6 145 131 
3 18 90 144 
3 18 144 132 
3 59 75 143 
3 59 143 141 
3 52 68 142 
3 52 142 140 
3 90 59 141 
3 90 141 144 
3 83 52 140 
3 83 140 145 
3 20 45 139 
3 20 139 135 
3 114 40 138 
3 114 138 148 
3 21 35 137 
3 21 137 134 
3 98 30 136 
3 98 136 146 
3 30 20 135 
3 30 135 136 
3 40 21 134 
3 40 134 138 
3 103 3 130 
3 103 130 147 
3 119 6 131 
3 119 131 149 
3 172 7 133 
3 172 133 190 
3 179 16 130 
3 179 130 191 
3 48 122 169 
3 48 169 159 
3 13 117 168 
3 13 168 151 
3 38 106 167 
3 38 167 157 
3 12 101 166 
3 12 166 150 
3 0 97 165 
3 0 165 150 
3 15 88 164 
3 15 164 153 
3 57 73 163 
3 57 163 161 
3 50 66 162 
3 50 162 160 
3 88 57 161 
3 88 161 164 
3 97 50 160 
3 97 160 165 
3 27 48 159 
3 27 159 155 
3 117 43 158 
3 117 158 168 
3 26 38 157 
3 26 157 154 
3 101 33 156 
3 101 156 166 
3 33 27 155 
3 33 155 156 
3 43 26 154 
3 43 154 158 
3 170 1 152 
3 170 152 192 
3 106 14 152 
3 106 152 167 
3 122 15 153 
3 122 153 169 
3 177 13 151 
3 177 151 193 
3 73 177 193 
3 73 193 163 
3 66 170 192 
3 66 192 162 
3 75 179 191 
3 75 191 143 
3 68 172 190 
3 68 190 142 
3 81 185 189 
3 81 189 127 
3 69 173 188 
3 69 188 126 
3 79 183 187 
3 79 187 111 
3 67 171 186 
3 67 186 110 
3 77 181 185 
3 77 185 81 
3 126 188 184 
3 126 184 80 
3 76 180 183 
3 76 183 79 
3 110 186 182 
3 110 182 78 
3 78 182 181 
3 78 181 77 
3 80 184 180 
3 80 180 76 
3 71 175 179 
3 71 179 75 
3 142 190 178 
3 142 178 74 
3 70 174 177 
3 70 177 73 
3 162 192 176 
3 162 176 72 
3 72 176 175 
3 72 175 71 
3 74 178 174 
3 74 174 70 
3 111 187 170 
3 111 170 66 
3 163 193 173 
3 163 173 69 
3 127 189 172 
3 127 172 68 
3 143 191 171 
3 143 171 67 
3 205 207 194 
3 205 194 200 
3 204 206 198 
3 204 198 196 
3 202 201 199 
3 202 199 195 
3 203 204 196 
3 203 196 197 
3 203 205 200 
3 203 200 197 
3 201 206 198 
3 201 198 199 
3 130 16 206 
3 130 206 201 
3 3 130 201 
3 3 201 202 
3 14 9 204 
3 14 204 203 
3 14 152 205 
3 14 205 203 
3 9 16 206 
3 9 206 204 
3 152 1 207 
3 152 207 205 
