ply
format ascii 1.0
comment VCGLIB generated
element vertex 66
property float x
property float y
property float z
property float nx
property float ny
property float nz
element face 128
property list uchar int vertex_indices
end_header
-0.0745 -0.029 0.1 -1.5708 -1.5708 1.5708 
-0.0745 0.029 0.1 -1.5708 1.5708 1.5708 
-0.0745 -0.029 -0.1 -1.5708 -1.5708 -1.5708 
-0.0745 0.029 -0.1 -1.5708 1.5708 -1.5708 
0.0745 -0.029 0.1 1.5708 -1.5708 1.5708 
0.0745 0.029 0.1 1.5708 1.5708 1.5708 
0.0745 -0.029 -0.1 1.5708 -1.5708 -1.5708 
0.0745 0.029 -0.1 1.5708 1.5708 -1.5708 
-0.0745 -0.029 0 -3.14159 -3.14159 0 
-0.0745 0.029 0 -3.14159 3.14159 0 
0.0745 -0.029 0 3.14159 -3.14159 0 
0.0745 0.029 0 3.14159 3.14159 0 
-0.0745 0.029 -0.069477 -3.14159 3.14159 0 
0.0745 -0.029 -0.069477 3.14159 -3.14159 0 
-0.0745 -0.029 -0.069477 -3.14159 -3.14159 0 
0.0745 0.029 -0.069477 3.14159 3.14159 0 
-0.0745 -0.029 0.072248 -3.14159 -3.14159 0 
0.0745 0.029 0.072248 3.14159 3.14159 0 
-0.0745 0.029 0.072248 -3.14159 3.14159 0 
0.0745 -0.029 0.072248 3.14159 -3.14159 0 
0 -0.029 -0.1 0 -3.14159 -3.14159 
0 0.029 -0.1 0 3.14159 -3.14159 
0 -0.029 0.1 0 -3.14159 3.14159 
0 0.029 0.1 0 3.14159 3.14159 
0 0.029 0 0 6.28319 0 
0 -0.029 0 0 -6.28319 0 
0 -0.029 -0.069477 0 -6.28319 0 
0 0.029 -0.069477 0 6.28319 0 
0 0.029 0.072248 0 6.28319 0 
0 -0.029 0.072248 0 -6.28319 0 
-0.045065 -0.029 -0.1 0 -3.14159 -3.14159 
-0.045065 0.029 0.1 0 3.14159 3.14159 
-0.045065 -0.029 0 0 -6.28319 0 
-0.045065 -0.029 -0.069477 0 -6.28319 0 
-0.045065 -0.029 0.072248 0 -6.28319 0 
-0.045065 0.029 -0.1 0 3.14159 -3.14159 
-0.045065 -0.029 0.1 0 -3.14159 3.14159 
-0.045065 0.029 0 0 6.28319 0 
-0.045065 0.029 -0.069477 0 6.28319 0 
-0.045065 0.029 0.072248 0 6.28319 0 
0.04501 0.029 -0.1 0 3.14159 -3.14159 
0.04501 -0.029 0.1 0 -3.14159 3.14159 
0.04501 0.029 0 0 6.28319 0 
0.04501 0.029 -0.069477 0 6.28319 0 
0.04501 0.029 0.072248 0 6.28319 0 
0.04501 -0.029 -0.1 0 -3.14159 -3.14159 
0.04501 0.029 0.1 0 3.14159 3.14159 
0.04501 -0.029 0 0 -6.28319 0 
0.04501 -0.029 -0.069477 0 -6.28319 0 
0.04501 -0.029 0.072248 0 -6.28319 0 
-0.0745 -0.006964 0.1 -3.14159 0 3.14159 
-0.0745 -0.006964 -0.1 -3.14159 0 -3.14159 
0.0745 -0.006964 -0.1 3.14159 0 -3.14159 
0.0745 -0.006964 0.1 3.14159 0 3.14159 
0.0745 -0.006964 0 6.28319 0 0 
-0.0745 -0.006964 0 -6.28319 0 0 
0.0745 -0.006964 -0.069477 6.28319 0 0 
-0.0745 -0.006964 -0.069477 -6.28319 0 0 
-0.0745 -0.006964 0.072248 -6.28319 0 0 
0.0745 -0.006964 0.072248 6.28319 0 0 
0 -0.006964 0.1 0 0 6.28319 
0 -0.006964 -0.1 0 0 -6.28319 
-0.045065 -0.006964 -0.1 0 0 -6.28319 
-0.045065 -0.006964 0.1 0 0 6.28319 
0.04501 -0.006964 0.1 0 0 6.28319 
0.04501 -0.006964 -0.1 0 0 -6.28319 
3 57 12 3 
3 57 3 51 
3 65 40 7 
3 65 7 52 
3 59 17 5 
3 59 5 53 
3 63 31 1 
3 63 1 50 
3 49 19 4 
3 49 4 41 
3 39 18 1 
3 39 1 31 
3 38 12 9 
3 38 9 37 
3 48 13 10 
3 48 10 47 
3 56 15 11 
3 56 11 54 
3 58 18 9 
3 58 9 55 
3 52 7 15 
3 52 15 56 
3 45 6 13 
3 45 13 48 
3 35 3 12 
3 35 12 38 
3 55 9 12 
3 55 12 57 
3 50 1 18 
3 50 18 58 
3 37 9 18 
3 37 18 39 
3 47 10 19 
3 47 19 49 
3 54 11 17 
3 54 17 59 
3 32 25 29 
3 32 29 34 
3 42 24 28 
3 42 28 44 
3 40 21 27 
3 40 27 43 
3 30 20 26 
3 30 26 33 
3 33 26 25 
3 33 25 32 
3 43 27 24 
3 43 24 42 
3 44 28 23 
3 44 23 46 
3 34 29 22 
3 34 22 36 
3 64 46 23 
3 64 23 60 
3 62 35 21 
3 62 21 61 
3 51 3 35 
3 51 35 62 
3 16 34 36 
3 16 36 0 
3 14 33 32 
3 14 32 8 
3 2 30 33 
3 2 33 14 
3 8 32 34 
3 8 34 16 
3 24 37 39 
3 24 39 28 
3 21 35 38 
3 21 38 27 
3 27 38 37 
3 27 37 24 
3 28 39 31 
3 28 31 23 
3 60 23 31 
3 60 31 63 
3 53 5 46 
3 53 46 64 
3 17 44 46 
3 17 46 5 
3 15 43 42 
3 15 42 11 
3 7 40 43 
3 7 43 15 
3 11 42 44 
3 11 44 17 
3 25 47 49 
3 25 49 29 
3 20 45 48 
3 20 48 26 
3 26 48 47 
3 26 47 25 
3 29 49 41 
3 29 41 22 
3 61 21 40 
3 61 40 65 
3 20 61 65 
3 20 65 45 
3 4 53 64 
3 4 64 41 
3 22 60 63 
3 22 63 36 
3 2 51 62 
3 2 62 30 
3 30 62 61 
3 30 61 20 
3 41 64 60 
3 41 60 22 
3 10 54 59 
3 10 59 19 
3 0 50 58 
3 0 58 16 
3 8 55 57 
3 8 57 14 
3 6 52 56 
3 6 56 13 
3 16 58 55 
3 16 55 8 
3 13 56 54 
3 13 54 10 
3 36 63 50 
3 36 50 0 
3 19 59 53 
3 19 53 4 
3 45 65 52 
3 45 52 6 
3 14 57 51 
3 14 51 2 
