ply
format ascii 1.0
comment VCGLIB generated
element vertex 482
property float x
property float y
property float z
property float nx
property float ny
property float nz
element face 960
property list uchar int vertex_indices
end_header
-0.0810324 -0.0511272 0.0511272 -0.708518 -0.510915 0.486794 
-0.0511272 0.0810324 0.0511272 -0.197657 0.962011 0.188325 
-0.0511272 -0.0511272 -0.0810324 -0.534397 -0.558254 -0.634643 
-0.0511272 0.0511272 -0.0810324 -0.546174 0.520388 -0.656422 
0.0511272 -0.0810324 0.0511272 0.526349 -0.6849 0.503855 
0.0511272 0.0810324 0.0511272 0.518295 0.68025 0.518295 
0.0810324 -0.0511272 -0.0511272 0.68732 -0.5247 -0.502276 
0.0810324 0.0511272 -0.0511272 0.754697 0.452565 -0.474991 
-0.0810324 -0.040176 0.0601182 -0.764263 -0.37276 0.526262 
-0.0810324 -0.0276696 0.0668088 -0.753463 -0.274623 0.59739 
-0.0810324 -0.0141102 0.0709236 -0.795535 -0.140222 0.589459 
-0.0810324 0.0141102 0.0709236 -0.776392 0.104029 0.621605 
-0.0810324 0.0276696 0.0668088 -0.777162 0.224132 0.588034 
-0.0810324 0.040176 0.0601182 -0.728652 0.364485 0.579842 
-0.0601182 0.040176 -0.0810324 -0.244653 0.153787 -0.957337 
-0.0668088 0.0276696 -0.0810324 -0.167623 0.0638905 -0.983779 
-0.0709236 0.0141102 -0.0810324 -0.524582 0.0877914 -0.846821 
-0.0723168 0 -0.0810324 -0.520424 -0.0181829 -0.853714 
-0.0709236 -0.0141102 -0.0810324 -0.33958 -0.0807803 -0.937102 
-0.0668088 -0.0276696 -0.0810324 -0.434443 -0.199716 -0.878278 
-0.0601182 -0.040176 -0.0810324 -0.546888 -0.38737 -0.742198 
0.0810324 0.040176 -0.0601182 0.91706 0.212208 -0.337593 
0.0810324 0 -0.0723168 0.833654 -0.0192843 -0.55195 
0.0810324 -0.0141102 -0.0709236 0.775127 -0.146215 -0.614654 
0.0810324 -0.040176 -0.0601182 0.772875 -0.36678 -0.517819 
0.0511272 0.0511272 0.0810324 0.136498 0.130054 0.982066 
0.0668088 0.0276696 0.0810324 0.0696222 0.0265368 0.99722 
0.0709236 0.0141102 0.0810324 0.061801 0.0103427 0.998035 
0.0723168 0 0.0810324 0.0668525 -0.00233574 0.99776 
0.0709236 -0.0141102 0.0810324 0.0908313 -0.0216072 0.995632 
0.0668088 -0.0276696 0.0810324 0.13567 -0.0623681 0.988789 
0.0511272 -0.0511272 0.0810324 0.537258 -0.56388 0.627211 
-0.0276696 0.0810324 -0.0668088 -0.249115 0.714685 -0.65358 
-0.0141102 0.0810324 -0.0709236 -0.0855718 0.85512 -0.51132 
0 0.0810324 -0.0723168 0.0124046 0.934769 -0.35504 
0.0141102 0.0810324 -0.0709236 0.0417298 0.983609 -0.175422 
0.0276696 0.0810324 -0.0668088 0.298575 0.699296 -0.649491 
0.0511272 0.0810324 -0.0511272 0.257997 0.934351 -0.245816 
0.0511272 -0.0810324 -0.0511272 0.494566 -0.697115 -0.519072 
0.040176 -0.0601182 -0.0810324 0.393579 -0.555654 -0.732356 
0.0276696 -0.0668088 -0.0810324 0.258905 -0.563197 -0.784715 
0.0141102 -0.0709236 -0.0810324 0.12923 -0.543252 -0.829564 
0 -0.0723168 -0.0810324 0.0181829 -0.520424 -0.853714 
-0.0141102 -0.0709236 -0.0810324 -0.0813251 -0.485944 -0.870198 
-0.0276696 -0.0668088 -0.0810324 -0.249115 -0.65358 -0.714685 
0.0141102 0.0810324 0.0709236 0.0084617 0.998685 0.0505615 
0 0.0810324 0.0723168 -0.00179229 0.998682 0.051298 
-0.0141102 0.0810324 0.0709236 -0.0155573 0.997738 0.0653989 
-0.0276696 0.0810324 0.0668088 -0.042315 0.994855 0.0920482 
-0.040176 0.0810324 0.0601182 -0.0898402 0.987847 0.126836 
-0.0276696 -0.0810324 0.0668088 -0.213298 -0.800838 0.559609 
-0.0141102 -0.0810324 0.0709236 -0.0905522 -0.836082 0.541079 
0 -0.0810324 0.0723168 0.0172782 -0.86899 0.494528 
0.0141102 -0.0810324 0.0709236 0.158092 -0.7303 0.664582 
0.040176 -0.0810324 0.0601182 0.434076 -0.660317 0.612829 
0.0412614 0.0471582 -0.0810324 0 0 -1 
0.023571 0.0471582 -0.0810324 0 0 -1 
0.0117936 0.0471582 -0.0810324 0 0 -1 
0 0.0471582 -0.0810324 0 0 -1 
-0.0117936 0.0471582 -0.0810324 0 0 -1 
-0.0174049 0.0370667 -0.0810324 0 0 -1 
0.0117936 0.0353646 -0.0810324 0 0 -1 
0.0442098 0.0294678 -0.0810324 0 0 -1 
0.0320253 0.00407058 -0.0810324 0 0 -1 
0.0058968 0.023571 -0.0810324 0 0 -1 
0.0471582 0.0117936 -0.0810324 0 0 -1 
0.0324162 0.0206307 -0.0810324 0 0 -1 
0.0471582 0 -0.0810324 0 0 -1 
-0.0471582 -0.0117936 -0.0810324 0 0 -1 
0 -0.023571 -0.0810324 0 0 -1 
-0.0191565 -0.0250452 -0.0810324 0 0 -1 
-0.0471582 -0.023571 -0.0810324 0 0 -1 
0 -0.0353646 -0.0810324 0 0 -1 
-0.0117936 -0.0353646 -0.0810324 0 0 -1 
0.0117936 -0.0471582 -0.0810324 0 0 -1 
0 -0.0471582 -0.0810324 0 0 -1 
-0.0117936 -0.0471582 -0.0810324 0 0 -1 
-0.023571 -0.0471582 -0.0810324 0 0 -1 
-0.0601182 0.0810324 0.040176 -0.141478 0.985939 0.0889319 
-0.0668088 0.0810324 0.0276696 -0.136401 0.989289 0.0519898 
-0.0709236 0.0810324 0.0141102 -0.142007 0.98958 0.0237656 
-0.0723168 0.0810324 0 -0.18127 0.983413 -0.00633334 
-0.0709236 0.0810324 -0.0141102 -0.281987 0.957071 -0.0670797 
-0.0668088 0.0810324 -0.0276696 -0.434443 0.878278 -0.199716 
-0.0601182 0.0810324 -0.040176 -0.546888 0.742198 -0.38737 
-0.0810324 0.0511272 -0.0511272 -0.683666 0.528365 -0.503419 
-0.0511272 -0.0810324 -0.0511272 -0.56388 -0.62721 -0.537258 
-0.0810324 -0.0601182 -0.040176 -0.742199 -0.546888 -0.387369 
-0.0810324 -0.0668088 -0.0276696 -0.907881 -0.380907 -0.175105 
-0.0810324 -0.0709236 -0.0141102 -0.795787 -0.589137 -0.140145 
-0.0810324 -0.0723168 0 -0.818603 -0.57401 -0.0200552 
-0.0810324 -0.0709236 0.0141102 -0.811357 -0.576533 0.0964856 
-0.0810324 -0.0668088 0.0276696 -0.835191 -0.513896 0.195874 
-0.0810324 -0.0601182 0.040176 -0.796905 -0.511453 0.321495 
0.0810324 0.0601182 -0.040176 0.742325 0.546773 -0.387288 
0.0810324 0.0668088 -0.0276696 0.699295 0.649491 -0.298575 
0.0810324 0.0723168 0 0.745702 0.665873 -0.0232647 
0.0810324 0.0709236 0.0141102 0.855138 0.51129 0.085567 
0.0810324 0.0668088 0.0276696 0.90414 0.399219 0.152164 
0.0810324 0.0601182 0.040176 0.873036 0.404316 0.272647 
0.0810324 -0.0601182 0.040176 0.873945 -0.396612 0.280927 
0.0810324 -0.0668088 0.0276696 0.957811 -0.26113 0.120043 
0.0810324 -0.0709236 -0.0141102 0.826625 -0.555034 -0.0928876 
0.0810324 -0.0668088 -0.0276696 0.85011 -0.492073 -0.187556 
0.0810324 -0.0601182 -0.040176 0.785316 -0.524144 -0.329473 
0.0810324 0.0709236 -0.0141102 0.999927 0.0117723 -0.00280043 
0.0810324 0 -0.0353646 1 0 0 
0.0810324 0.0141103 -0.0709236 0.998953 0.00755279 -0.0451305 
0.0810324 -0.0117936 0.0471582 1 0 0 
0.0810324 -0.0117936 -0.0353646 1 0 0 
0.0810324 -0.0117936 -0.0471582 1 0 0 
0.0810324 -0.023571 0.0471582 1 0 0 
0.0810324 -0.0176823 -0.0176823 1 0 0 
0.0810324 -0.0353646 0 1 0 0 
0.0810324 -0.0353646 -0.0117936 1 0 0 
-0.0810324 0.0471582 -0.0117936 -1 0 0 
-0.0810324 0.0471582 0 -1 0 0 
-0.0810324 0.0471582 0.0117936 -1 0 0 
-0.0810324 0.0353646 -0.021141 -1 0 0 
-0.0810324 0.0353646 -0.0117936 -1 0 0 
-0.0810324 0.0353646 0 -1 0 0 
-0.0810324 0.0353646 0.0117936 -1 0 0 
-0.0810324 0.023571 -0.0058968 -1 0 0 
-0.0810324 0.0511272 0.0511272 -0.985386 0.117787 0.123045 
-0.0810324 0.0117936 -0.0471582 -1 0 0 
-0.0810324 0.0117936 -0.0353646 -1 0 0 
-0.0810324 0.0117936 -0.023571 -1 0 0 
-0.0810324 0.0117936 0.0471582 -1 0 0 
-0.0810324 0 -0.0471582 -1 0 0 
-0.0810324 0 0.0353646 -1 0 0 
-0.0810324 0 0.0471582 -1 0 0 
-0.0810324 -0.0117936 0.023571 -1 0 0 
-0.0810324 -0.0117936 0.0353646 -1 0 0 
-0.0810324 -0.0117936 0.0471582 -1 0 0 
-0.0810324 -0.023571 0.0058968 -1 0 0 
-0.0810324 -0.0353646 0 -1 0 0 
-0.0810324 -0.0353646 0.0117936 -1 0 0 
-0.0810324 -0.0471582 0 -1 0 0 
-0.0810324 -0.0471582 0.0117936 -1 0 0 
-0.0601182 -0.0810324 0.040176 -0.06398 -0.996922 0.0453181 
-0.0353646 -0.0810324 0 0 -1 0 
-0.023571 -0.0810324 0 0 -1 0 
-0.019381 -0.0810324 -0.0309783 0 -1 0 
-0.0117936 -0.0810324 0.0117936 0 -1 0 
-0.0117936 -0.0810324 0.0353646 0 -1 0 
-0.0117936 -0.0810324 0.0471582 0 -1 0 
0 -0.0810324 -0.0471582 0 -1 0 
0 -0.0810324 -0.0353646 0 -1 0 
-0.0058968 -0.0810324 -0.0176823 0 -1 0 
-0.0058968 -0.0810324 0.0176823 0 -1 0 
0 -0.0810324 0.0353646 0 -1 0 
0 -0.0810324 0.0471582 0 -1 0 
0.0117936 -0.0810324 -0.0471582 0 -1 0 
0.0117936 -0.0810324 -0.0353646 0 -1 0 
0.0117936 -0.0810324 -0.023571 0 -1 0 
0.0058968 -0.0810324 0.0176823 0 -1 0 
0.0117936 -0.0810324 0.023571 0 -1 0 
0.0117936 -0.0810324 0.0353646 0 -1 0 
0.0117936 -0.0810324 0.0471582 0 -1 0 
0.0147339 -0.0810324 -0.0058968 0 -1 0 
0.023571 -0.0810324 0 0 -1 0 
0.023571 -0.0810324 0.0117936 0 -1 0 
0.0353646 -0.0810324 -0.021141 0 -1 0 
0.0353646 -0.0810324 -0.0117936 0 -1 0 
0.0353646 -0.0810324 0 0 -1 0 
0.0353646 -0.0810324 0.0117936 0 -1 0 
0.0471582 -0.0810324 -0.0117936 0 -1 0 
0.0471582 -0.0810324 0 0 -1 0 
0.0471582 -0.0810324 0.0117936 0 -1 0 
-0.019764 -0.0109269 -0.0810324 0 0 -1 
0.0810324 -0.0253044 -0.0253044 1 0 0 
0.0810324 -0.021141 -0.0353646 1 0 0 
0.0810324 -0.0253044 -0.0454248 1 0 0 
0.0810324 -0.0454248 -0.0253044 1 0 0 
-0.0810324 0.0276696 -0.0668088 -0.991419 0.0545999 -0.118771 
-0.0810324 0.0454248 -0.0253044 -1 0 0 
-0.0810324 0.0601182 0.040176 -0.952743 0.247891 0.175585 
-0.0810324 0.0253044 -0.0454248 -1 0 0 
-0.0810324 0.021141 -0.0353646 -1 0 0 
-0.0810324 0.0253044 -0.0253044 -1 0 0 
-0.0810324 0.0100602 -0.0100602 -1 0 0 
-0.0810324 0.0142236 0 -1 0 0 
-0.0810324 0.0100602 0.0100602 -1 0 0 
-0.0810324 -0.0142236 0 -1 0 0 
-0.0810324 -0.0050301 0.0144787 -1 0 0 
-0.0810324 -0.0253044 0.0253044 -1 0 0 
-0.0810324 -0.021141 0.0353646 -1 0 0 
-0.0810324 -0.0253044 0.0454248 -1 0 0 
-0.0810324 -0.0454248 0.0253044 -1 0 0 
-0.0810324 -0.0516253 0.0398804 -1 0 0 
-0.0810324 -0.0454248 0.0454248 -1 0 0 
-0.040176 0.0810324 -0.0601182 -0.00651797 0.999925 -0.0103691 
-0.0454248 -0.0810324 -0.0454248 0 -1 0 
-0.0253044 -0.0810324 0.0454248 0 -1 0 
0.0253044 -0.0810324 -0.0454248 0 -1 0 
0.021141 -0.0810324 -0.0353646 0 -1 0 
0.018549 -0.0810324 -0.018549 0 -1 0 
0.0253044 -0.0810324 0.0253044 0 -1 0 
0.021141 -0.0810324 0.0353646 0 -1 0 
0.0253044 -0.0810324 0.0454248 0 -1 0 
0.0601182 -0.0810324 -0.040176 0.234735 -0.957734 -0.166267 
0.0454248 -0.0810324 -0.0253044 0 -1 0 
0.0475065 -0.0810324 0.0303345 0 -1 0 
0.0454248 -0.0810324 0.0454248 0 -1 0 
0.0353646 -0.0810324 0.021141 0 -1 0 
-0.0511272 -0.0810324 0.0511272 -0.397233 -0.81854 0.414967 
0.0668088 0.0810324 0.0276696 0.033142 0.999335 0.0152355 
-0.0810324 -0.0353646 0.0495882 -1 0 0 
-0.0810324 -0.0353646 0.021141 -1 0 0 
-0.0810324 -0.040176 -0.0601182 -0.999104 -0.022521 -0.0358277 
0.0810324 -0.0403947 -0.0475065 1 0 0 
0.0810324 -0.0353646 -0.021141 1 0 0 
-0.0511272 0.0511272 0.0810324 -0.168983 0.177356 0.969531 
-0.0511272 0.0810324 -0.0511272 -0.534397 0.634643 -0.558254 
-0.0810324 -0.0511272 -0.0511272 -0.627211 -0.537258 -0.56388 
-0.0511272 -0.0511272 0.0810324 -0.528365 -0.503419 0.683667 
0.0511272 0.0511272 -0.0810324 0.503855 0.526348 -0.6849 
0.0511272 -0.0511272 -0.0810324 0.521437 -0.496818 -0.69374 
0.0810324 0.0511272 0.0511272 0.882367 0.332738 0.332738 
0.0810324 -0.0511272 0.0511272 0.681669 -0.505945 0.528533 
-0.0601182 -0.040176 0.0810324 -0.435431 -0.273709 0.857603 
-0.0668088 -0.0276696 0.0810324 -0.293321 -0.111801 0.949454 
-0.0709236 -0.0141102 0.0810324 -0.186162 -0.0311552 0.982025 
-0.0723168 0 0.0810324 -0.138013 0.004822 0.990419 
-0.0709236 0.0141102 0.0810324 -0.128868 0.0306556 0.991188 
-0.0668088 0.0276696 0.0810324 -0.135595 0.0623335 0.988802 
-0.0601182 0.040176 0.0810324 -0.143347 0.101535 0.98445 
-0.0810324 0.040176 -0.0601182 -0.660317 0.434076 -0.612829 
-0.0810324 0.0141102 -0.0709236 -0.763151 0.149551 -0.628677 
-0.0810324 0 -0.0723168 -0.956035 0.0102396 -0.293072 
-0.0810324 -0.0141102 -0.0709236 -0.855119 -0.0855719 -0.51132 
-0.0810324 -0.0276696 -0.0668088 -0.714684 -0.249115 -0.653581 
0.0668088 0.0276696 -0.0810324 0.600546 0.276074 -0.750418 
0.0709236 0.0141102 -0.0810324 0.543437 0.129274 -0.829436 
0.0723168 0 -0.0810324 0.520424 0.0181829 -0.853714 
0.0709236 -0.0141102 -0.0810324 0.524582 -0.0877914 -0.846821 
0.0668088 -0.0276696 -0.0810324 0.17674 -0.0673653 -0.981949 
0.0601182 -0.040176 -0.0810324 0.283872 -0.17844 -0.942112 
0.0810324 0.040176 0.0601182 0.956561 0.168507 0.237898 
0.0810324 0.0276696 0.0668088 0.983867 0.0747248 0.162549 
0.0810324 0.0141102 0.0709236 0.99398 0.0253554 0.106588 
0.0810324 -0.0141102 0.0709236 0.739805 -0.111055 0.663592 
-0.0276696 0.0668088 -0.0810324 -0.258905 0.563197 -0.784715 
-0.0141102 0.0709236 -0.0810324 -0.12923 0.543252 -0.829564 
0 0.0723168 -0.0810324 -0.0181829 0.520424 -0.853714 
0.0141102 0.0709236 -0.0810324 0.0878257 0.524788 -0.84669 
0.0276696 0.0668088 -0.0810324 0.119297 0.312989 -0.942235 
0.040176 0.0601182 -0.0810324 0.393916 0.626664 -0.6724 
0.0276696 -0.0810324 -0.0668088 0.213298 -0.800838 -0.559609 
0.0141102 -0.0810324 -0.0709236 0.0905522 -0.836082 -0.541079 
0 -0.0810324 -0.0723168 -0.0207345 -0.8046 -0.593454 
-0.040176 -0.0810324 -0.0601182 -0.38737 -0.742198 -0.546888 
0.040176 0.0601182 0.0810324 0.0655612 0.0925592 0.993546 
0.0276696 0.0668088 0.0810324 0.0336284 0.0731521 0.996754 
0.0141102 0.0709236 0.0810324 0.0135284 0.0568699 0.99829 
0 0.0723168 0.0810324 0.0017102 0.0489487 0.9988 
-0.0141102 0.0709236 0.0810324 -0.00886661 0.0529809 0.998556 
-0.0276696 0.0668088 0.0810324 -0.0265416 0.0696349 0.997219 
-0.040176 0.0601182 0.0810324 -0.0605938 0.096396 0.993497 
-0.040176 -0.0601182 0.0810324 -0.434076 -0.612829 0.660317 
-0.0141102 -0.0709236 0.0810324 -0.158092 -0.664581 0.7303 
0 -0.0723168 0.0810324 -0.0177426 -0.507819 0.861281 
0.0141102 -0.0709236 0.0810324 0.0604365 -0.361128 0.930556 
0.0276696 -0.0668088 0.0810324 0.0476685 -0.125063 0.991003 
0.040176 -0.0601182 0.0810324 0.341121 -0.542673 0.767556 
-0.0810324 0.0668088 0.0276696 -0.753423 0.597433 0.274643 
-0.0810324 0.0709236 0.0141102 -0.763151 0.628677 0.149551 
-0.0810324 0.0668088 -0.0276696 -0.745337 0.622969 -0.237448 
-0.0668088 -0.0810324 -0.0276696 -0.176801 -0.981937 -0.0673885 
-0.0709236 -0.0810324 -0.0141102 -0.13529 -0.990547 -0.0226414 
-0.0723168 -0.0810324 0 -0.192219 -0.981329 0.00671588 
-0.0709236 -0.0810324 0.0141102 -0.133303 -0.990568 0.0317105 
-0.0668088 -0.0810324 0.0276696 -0.145985 -0.987008 0.06711 
0.0601182 0.0810324 -0.040176 0.141515 0.985931 -0.088955 
0.0668088 0.0810324 -0.0276696 0.0964989 0.994653 -0.036781 
0.0709236 0.0810324 -0.0141102 0.069007 0.997549 -0.0115487 
0.0709236 0.0810324 0.0141102 0.664581 0.7303 0.158092 
0.0601182 0.0810324 0.040176 0.608593 0.68124 0.40685 
0.0668088 -0.0810324 0.0276696 0.601961 -0.764853 0.22944 
0.0723168 -0.0810324 0 0.627093 -0.778944 1.03665e-09 
0.0709236 -0.0810324 -0.0141102 0.558049 -0.81912 -0.13275 
0.0668088 -0.0810324 -0.0276696 0.574233 -0.774966 -0.263978 
-0.0511596 -0.066177 -0.066177 -0.515047 -0.613096 -0.599033 
0.0511596 -0.066177 -0.066177 0.528598 -0.601596 -0.598888 
0.0399816 -0.0704376 -0.0704376 0.427633 -0.642326 -0.636041 
0.02754 -0.0737586 -0.0737586 0.291951 -0.676512 -0.676089 
0.0140454 -0.0757998 -0.0757998 0.14693 -0.699515 -0.69935 
0 -0.0764964 -0.0764964 -5.81061e-09 -0.707107 -0.707107 
-0.0140454 -0.0757998 -0.0757998 -0.14693 -0.69935 -0.699515 
-0.02754 -0.0737586 -0.0737586 -0.291951 -0.676089 -0.676512 
-0.0399816 -0.0704376 -0.0704376 -0.427633 -0.636041 -0.642326 
-0.066177 -0.066177 -0.0511596 -0.598888 -0.601596 -0.528597 
-0.066177 -0.066177 0.0511596 -0.616235 -0.595827 0.515019 
-0.0704376 -0.0704376 0.0399816 -0.642326 -0.636041 0.427633 
-0.0737586 -0.0737586 0.02754 -0.676512 -0.676089 0.291951 
-0.0757998 -0.0757998 0.0140454 -0.699515 -0.69935 0.14693 
-0.0764964 -0.0764964 0 -0.707107 -0.707107 -5.81061e-09 
-0.0757998 -0.0757998 -0.0140454 -0.69935 -0.699515 -0.14693 
-0.0737586 -0.0737586 -0.02754 -0.676089 -0.676512 -0.291951 
-0.0704376 -0.0704376 -0.0399816 -0.636041 -0.642326 -0.427633 
-0.066177 0.0511596 -0.066177 -0.598888 0.528597 -0.601596 
-0.066177 -0.0511596 -0.066177 -0.616235 -0.515019 -0.595827 
-0.0704376 -0.0399816 -0.0704376 -0.642326 -0.427633 -0.636041 
-0.0737586 -0.02754 -0.0737586 -0.676512 -0.291951 -0.676089 
-0.0757998 -0.0140454 -0.0757998 -0.699515 -0.14693 -0.69935 
-0.0764964 0 -0.0764964 -0.707107 5.81061e-09 -0.707107 
-0.0757998 0.0140454 -0.0757998 -0.69935 0.14693 -0.699515 
-0.0737586 0.02754 -0.0737586 -0.676089 0.291951 -0.676512 
-0.0704376 0.0399816 -0.0704376 -0.636041 0.427633 -0.642326 
0.0511596 -0.066177 0.066177 0.515019 -0.595827 0.616235 
-0.0511596 -0.066177 0.066177 -0.515047 -0.599033 0.613096 
0.0399816 -0.0704376 0.0704376 0.427633 -0.636041 0.642326 
0.02754 -0.0737586 0.0737586 0.291951 -0.676089 0.676512 
0.0140454 -0.0757998 0.0757998 0.14693 -0.69935 0.699515 
0 -0.0764964 0.0764964 -5.81061e-09 -0.707107 0.707107 
-0.0140454 -0.0757998 0.0757998 -0.14693 -0.699515 0.69935 
-0.02754 -0.0737586 0.0737586 -0.291951 -0.676512 0.676089 
-0.0399816 -0.0704376 0.0704376 -0.427633 -0.642326 0.636041 
-0.066177 0.0511596 0.066177 -0.599033 0.515047 0.613096 
-0.066177 -0.0511596 0.066177 -0.598888 -0.528597 0.601596 
-0.0704376 -0.0399816 0.0704376 -0.636041 -0.427633 0.642326 
-0.0737586 -0.02754 0.0737586 -0.676089 -0.291951 0.676512 
-0.0757998 -0.0140454 0.0757998 -0.69935 -0.14693 0.699515 
-0.0764964 0 0.0764964 -0.707107 5.81061e-09 0.707107 
-0.0757998 0.0140454 0.0757998 -0.699515 0.14693 0.69935 
-0.0737586 0.02754 0.0737586 -0.676512 0.291951 0.676089 
-0.0704376 0.0399816 0.0704376 -0.642326 0.427633 0.636041 
0.0757998 -0.0757998 0.0140454 0.707372 -0.691404 0.146921 
0.0764964 -0.0764964 0 0.697702 -0.716389 0 
0.0737586 -0.0737586 0.02754 0.676089 -0.676512 0.291951 
0.0704376 -0.0704376 0.0399816 0.636041 -0.642326 0.427633 
0.066177 -0.066177 0.0511596 0.612194 -0.616024 0.495714 
0.066177 -0.066177 -0.0511596 0.599033 -0.613096 -0.515047 
0.0704376 -0.0704376 -0.0399816 0.642326 -0.636041 -0.427633 
0.0737586 -0.0737586 -0.02754 0.676512 -0.676089 -0.291951 
0.0757998 -0.0757998 -0.0140454 0.699515 -0.69935 -0.14693 
0.066177 -0.0511596 0.066177 0.599033 -0.515047 0.613096 
0.066177 0.0511596 0.066177 0.595827 0.515019 0.616235 
0.0704376 -0.0399816 0.0704376 0.642326 -0.427633 0.636041 
0.0737586 -0.02754 0.0737586 0.676512 -0.291951 0.676089 
0.0757998 -0.0140454 0.0757998 0.699515 -0.14693 0.69935 
0.0764964 0 0.0764964 0.707107 5.8106e-09 0.707107 
0.0757998 0.0140454 0.0757998 0.69935 0.14693 0.699515 
0.0737586 0.02754 0.0737586 0.676089 0.291951 0.676512 
0.0704376 0.0399816 0.0704376 0.636041 0.427633 0.642326 
0.066177 0.0511596 -0.066177 0.616235 0.515019 -0.595827 
0.0704376 0.0399816 -0.0704376 0.642326 0.427633 -0.636041 
0.0737586 0.02754 -0.0737586 0.676512 0.291951 -0.676089 
0.0757998 0.0140454 -0.0757998 0.699515 0.14693 -0.69935 
0.0764964 0 -0.0764964 0.707107 6.7237e-08 -0.707107 
0.0757998 -0.0140454 -0.0757998 0.69935 -0.14693 -0.699515 
0.0737586 -0.02754 -0.0737586 0.676089 -0.291951 -0.676512 
0.0704376 -0.0399816 -0.0704376 0.636041 -0.427633 -0.642326 
0.066177 -0.0511596 -0.066177 0.595827 -0.515019 -0.616235 
0.0511596 0.066177 -0.066177 0.515047 0.613096 -0.599033 
-0.0511596 0.066177 -0.066177 -0.515047 0.599033 -0.613096 
0.0399816 0.0704376 -0.0704376 0.427633 0.636041 -0.642326 
0.02754 0.0737586 -0.0737586 0.291951 0.676089 -0.676512 
0.0140454 0.0757998 -0.0757998 0.14693 0.69935 -0.699515 
0 0.0764964 -0.0764964 -5.81061e-09 0.707107 -0.707107 
-0.0140454 0.0757998 -0.0757998 -0.14693 0.699515 -0.69935 
-0.02754 0.0737586 -0.0737586 -0.291951 0.676512 -0.676089 
-0.0399816 0.0704376 -0.0704376 -0.427633 0.642326 -0.636041 
0.066177 0.066177 0.0511596 0.595827 0.616235 0.515019 
0.066177 0.066177 -0.0511596 0.598888 0.601596 -0.528597 
0.0704376 0.0704376 0.0399816 0.640259 0.638119 0.427637 
0.0737586 0.0737586 0.02754 0.676512 0.676089 0.291951 
0.0757998 0.0757998 0.0140454 0.699515 0.69935 0.14693 
0.0764964 0.0764964 0 0.707107 0.707107 -5.81061e-09 
0.0757998 0.0757998 -0.0140454 0.69935 0.699515 -0.14693 
0.0737586 0.0737586 -0.02754 0.676089 0.676512 -0.291951 
0.0704376 0.0704376 -0.0399816 0.636041 0.642326 -0.427633 
-0.066177 0.066177 -0.0511596 -0.616235 0.595827 -0.515019 
-0.066177 0.066177 0.0511596 -0.595827 0.616235 0.515019 
-0.0704376 0.0704376 0.0399816 -0.636041 0.642326 0.427633 
-0.0737586 0.0737586 0.02754 -0.676089 0.676512 0.291951 
-0.0757998 0.0757998 0.0140454 -0.69935 0.699515 0.14693 
-0.0764964 0.0764964 0 -0.707107 0.707107 -5.81061e-09 
-0.0757998 0.0757998 -0.0140454 -0.699515 0.69935 -0.14693 
-0.0737586 0.0737586 -0.02754 -0.676512 0.676089 -0.291951 
-0.0704376 0.0704376 -0.0399816 -0.642326 0.636041 -0.427633 
0.0511596 0.066177 0.066177 0.528598 0.601596 0.598888 
-0.0511596 0.066177 0.066177 -0.528597 0.598888 0.601596 
0.0399816 0.0704376 0.0704376 0.427633 0.642326 0.636041 
0.02754 0.0737586 0.0737586 0.291951 0.676512 0.676089 
0.0140454 0.0757998 0.0757998 0.14693 0.699515 0.69935 
0 0.0764964 0.0764964 -5.81061e-09 0.707107 0.707107 
-0.0140454 0.0757998 0.0757998 -0.14693 0.69935 0.699515 
-0.02754 0.0737586 0.0737586 -0.291951 0.676089 0.676512 
-0.0399816 0.0704376 0.0704376 -0.427633 0.636041 0.642326 
0.061722 -0.061722 0.061722 0.578321 -0.578321 0.575403 
0.061722 -0.061722 -0.061722 0.580262 -0.575889 -0.575889 
-0.061722 -0.061722 -0.061722 -0.575889 -0.575889 -0.580262 
-0.061722 0.061722 -0.061722 -0.575889 0.580262 -0.575889 
-0.061722 0.061722 0.061722 -0.580261 0.575889 0.575889 
0.061722 0.061722 0.061722 0.580262 0.575889 0.575889 
0.061722 0.061722 -0.061722 0.575889 0.575889 -0.580262 
-0.061722 -0.061722 0.061722 -0.575889 -0.580261 0.575889 
0.0601182 0.040176 0.0810324 0.0831639 0.0522762 0.995164 
-0.0276696 -0.0668088 0.0810324 -0.00451413 -0.00981962 0.999942 
0.0601182 -0.040176 0.0810324 0.138179 -0.0978745 0.985559 
0.0810324 0.0276696 -0.0668088 0.971963 0.0837461 -0.219717 
0.0810324 0 -0.0695142 1 0 0 
0.0810324 -0.0138348 -0.0681372 1 0 0 
0.0810324 -0.0276696 -0.0668088 0.96064 -0.116031 -0.252403 
0.0810324 2.53486e-08 0.0723168 0.998809 0.00170371 0.0487627 
0.0810324 -0.0276696 0.0668088 0.997667 -0.0243159 0.0637954 
0.0810324 -0.040176 0.0601182 0.913062 -0.217035 0.345272 
0.0810324 -0.039204 0.05751 1 0 0 
0.0810324 -0.0491508 0.0491508 1 0 0 
0.0810324 -0.0488632 -0.0453073 1 0 0 
0.0810324 -0.064071 -0.0271026 1 0 0 
0.0810324 -0.0681372 -0.0138348 1 0 0 
0.0810324 -0.0723168 0 0.99889 -0.0471078 0 
0.0810324 -0.0709236 0.0141102 0.967376 -0.248022 0.051659 
0.0810324 -0.0372101 0.0182032 1 0 0 
0.0810324 -0.05751 0.039204 1 0 0 
-0.0675216 0.01377 -0.0810324 0 0 -1 
-0.0688824 0 -0.0810324 0 0 -1 
-0.0675216 -0.01377 -0.0810324 0 0 -1 
-0.040176 -0.0601182 -0.0810324 -0.0610805 -0.0971703 -0.993392 
0.0601182 0.040176 -0.0810324 0.277533 0.196581 -0.940389 
0.0634554 0.026973 -0.0810324 0 0 -1 
0.0675216 0.01377 -0.0810324 0 0 -1 
0.0688824 0 -0.0810324 0 0 -1 
0.0675216 -0.01377 -0.0810324 0 0 -1 
0.0569106 -0.0389772 -0.0810324 0 0 -1 
0.0487134 -0.0487134 -0.0810324 0 0 -1 
-0.040176 0.0601182 -0.0810324 -0.204992 0.289407 -0.934998 
-0.026973 0.0634554 -0.0810324 0 0 -1 
-0.01377 0.0675216 -0.0810324 0 0 -1 
0 0.0688824 -0.0810324 0 0 -1 
0.01377 0.0675216 -0.0810324 0 0 -1 
0.026973 0.0634554 -0.0810324 0 0 -1 
-0.01377 -0.0675216 -0.0810324 0 0 -1 
0 -0.0688824 -0.0810324 0 0 -1 
0.01377 -0.0675216 -0.0810324 0 0 -1 
0.026973 -0.0634554 -0.0810324 0 0 -1 
0.0389772 -0.0569106 -0.0810324 0 0 -1 
-0.0487134 0.0487134 -0.0810324 0 0 -1 
-0.0810324 0.0271836 0.064476 -1 0 0 
-0.0810324 0.0138834 0.0685422 -1 0 0 
-0.0810324 -1.56306e-08 0.0723168 -0.986283 -0.00576366 0.164965 
-0.0810324 -0.0138834 0.0685422 -1 0 0 
-0.0810324 -0.0271836 0.064476 -1 0 0 
-0.0810324 -0.0393498 0.0578826 -1 0 0 
-0.0810324 0.0138834 -0.0685422 -1 0 0 
-0.0810324 0.064476 0.0271836 -1 0 0 
-0.0810324 0.0685422 0.0138834 -1 0 0 
-0.0810324 0.0723168 0 -0.98628 0.164982 0.00576425 
-0.0810324 0.0709236 -0.0141102 -0.98357 0.17805 -0.0297975 
-0.0810324 0.064476 -0.0271836 -1 0 0 
-0.0810324 0.0601182 -0.040176 -0.889115 0.387488 -0.243572 
-0.0810324 -0.064476 0.0271836 -1 0 0 
-0.0810324 -0.0685422 0.0138834 -1 0 0 
-0.0810324 -0.0699192 0 -1 0 0 
-0.0810324 -0.0685422 -0.0138834 -1 0 0 
0.040176 0.0810324 0.0601182 0.0259732 0.998808 0.0413197 
0.0276696 0.0810324 0.0668088 0.0230982 0.997895 0.0606007 
0.040176 0.0810324 -0.0601182 0.139811 0.970305 -0.197385 
0.0723168 0.0810324 0 0.0389328 0.999241 0.00136026 
0.048924 0.0810324 0.048924 0 1 0 
-0.040176 -0.0810324 0.0601182 -0.214712 -0.915 0.341576 
-0.0270378 -0.0810324 0.0637956 0 -1 0 
-0.0138024 -0.0810324 0.0678618 0 -1 0 
0 -0.0810324 0.0692388 0 -1 0 
-0.0276696 -0.0810324 -0.0668088 -0.0736811 -0.984318 -0.160279 
-0.0141102 -0.0810324 -0.0709236 -0.0417209 -0.983616 -0.175384 
0 -0.0810324 -0.0692388 0 -1 0 
0.0138024 -0.0810324 -0.0678618 0 -1 0 
0.0270378 -0.0810324 -0.0637956 0 -1 0 
0.040176 -0.0810324 -0.0601182 0.207434 -0.920909 -0.329997 
0.0446756 -0.0810324 -0.0482315 0 -1 0 
-0.0692388 -0.0810324 0 0 -1 0 
-0.0601182 -0.0810324 -0.040176 -0.203272 -0.970749 -0.127775 
0.0601182 -0.0810324 0.040176 0.286131 -0.941159 0.17986 
0.0637956 -0.0810324 0.0270378 0 -1 0 
0.0709236 -0.0810324 0.0141102 0.121771 -0.992262 0.0242401 
0.0692388 -0.0810324 0 0 -1 0 
0.0678618 -0.0810324 -0.0138024 0 -1 0 
0.0637956 -0.0810324 -0.0270378 0 -1 0 
0.0276696 -0.0810324 0.0668088 0.0563769 -0.990849 0.122637 
3 399 212 226 
3 399 226 225 
3 399 225 224 
3 399 224 223 
3 399 223 222 
3 399 222 221 
3 399 221 220 
3 105 238 239 
3 105 239 240 
3 105 240 405 
3 405 241 406 
3 408 407 219 
3 408 219 409 
3 421 232 422 
3 422 232 233 
3 422 233 423 
3 423 233 234 
3 423 234 424 
3 424 234 235 
3 424 235 425 
3 425 235 236 
3 425 236 63 
3 63 236 237 
3 63 237 426 
3 426 237 217 
3 426 217 427 
3 174 228 446 
3 446 228 229 
3 446 229 209 
3 209 229 230 
3 209 230 231 
3 420 70 77 
3 70 73 76 
3 70 76 77 
3 73 72 75 
3 73 75 76 
3 72 63 74 
3 72 74 75 
3 71 70 420 
3 70 69 72 
3 70 72 73 
3 69 63 72 
3 419 68 71 
3 419 71 420 
3 68 169 70 
3 68 70 71 
3 169 63 69 
3 169 69 70 
3 418 60 68 
3 418 68 419 
3 60 169 68 
3 417 60 418 
3 66 65 67 
3 66 67 63 
3 66 62 65 
3 60 61 64 
3 61 66 63 
3 61 63 64 
3 59 58 60 
3 58 57 61 
3 58 61 60 
3 57 56 66 
3 57 66 61 
3 56 55 62 
3 56 62 66 
3 428 429 60 
3 429 430 59 
3 429 59 60 
3 430 431 58 
3 430 58 59 
3 431 432 57 
3 431 57 58 
3 432 433 56 
3 432 56 57 
3 433 246 55 
3 433 55 56 
3 191 37 459 
3 459 36 35 
3 459 35 191 
3 191 35 34 
3 191 34 33 
3 191 33 32 
3 481 475 4 
3 142 466 467 
3 467 250 468 
3 468 250 249 
3 468 249 469 
3 469 249 248 
3 469 248 470 
3 470 248 471 
3 471 38 472 
3 400 399 263 
3 400 263 264 
3 399 262 263 
3 399 261 262 
3 399 260 261 
3 438 427 217 
3 438 217 39 
3 420 434 43 
3 420 43 44 
3 434 435 42 
3 434 42 43 
3 435 436 41 
3 435 41 42 
3 436 437 40 
3 436 40 41 
3 437 438 39 
3 437 39 40 
3 204 165 168 
3 204 168 202 
3 165 164 167 
3 165 167 168 
3 164 163 166 
3 164 166 167 
3 163 162 201 
3 163 201 166 
3 197 161 165 
3 197 165 204 
3 161 160 164 
3 161 164 165 
3 160 159 163 
3 160 163 164 
3 159 196 162 
3 159 162 163 
3 481 158 199 
3 158 157 198 
3 158 198 199 
3 157 156 197 
3 157 197 198 
3 156 155 161 
3 156 161 197 
3 155 159 160 
3 155 160 161 
3 154 153 195 
3 154 195 196 
3 153 152 194 
3 153 194 195 
3 465 151 158 
3 465 158 481 
3 151 150 157 
3 151 157 158 
3 150 155 156 
3 150 156 157 
3 149 159 155 
3 159 139 196 
3 139 148 154 
3 139 154 196 
3 148 147 153 
3 148 153 154 
3 147 146 152 
3 147 152 153 
3 464 145 151 
3 464 151 465 
3 145 144 150 
3 145 150 151 
3 144 149 155 
3 144 155 150 
3 143 139 159 
3 143 159 149 
3 142 147 148 
3 142 146 147 
3 463 193 145 
3 463 145 464 
3 193 139 144 
3 193 144 145 
3 139 149 144 
3 139 143 149 
3 141 142 148 
3 141 148 139 
3 462 205 193 
3 462 193 463 
3 139 140 141 
3 140 142 141 
3 139 142 140 
3 457 206 191 
3 457 191 458 
3 191 78 1 
3 460 191 206 
3 461 206 457 
3 208 136 138 
3 208 138 188 
3 136 135 137 
3 136 137 138 
3 135 209 137 
3 444 187 207 
3 444 207 445 
3 185 134 136 
3 185 136 208 
3 134 135 136 
3 134 209 135 
3 443 133 187 
3 443 187 444 
3 133 132 186 
3 133 186 187 
3 132 131 185 
3 132 185 186 
3 131 184 134 
3 131 134 185 
3 184 183 134 
3 183 209 134 
3 442 130 133 
3 442 133 443 
3 130 129 132 
3 130 132 133 
3 129 184 131 
3 129 131 132 
3 441 127 130 
3 441 130 442 
3 127 123 129 
3 127 129 130 
3 123 184 129 
3 123 182 184 
3 180 126 209 
3 126 125 209 
3 125 124 128 
3 125 128 209 
3 440 123 127 
3 440 127 441 
3 123 122 181 
3 123 181 182 
3 122 180 181 
3 122 179 126 
3 122 126 180 
3 179 178 125 
3 179 125 126 
3 178 177 124 
3 178 124 125 
3 121 120 122 
3 121 122 123 
3 120 119 122 
3 119 118 179 
3 119 179 122 
3 176 117 121 
3 176 121 123 
3 117 116 120 
3 117 120 121 
3 116 115 119 
3 116 119 120 
3 115 175 118 
3 115 118 119 
3 246 216 421 
3 447 448 117 
3 447 117 176 
3 448 449 116 
3 448 116 117 
3 449 450 115 
3 449 115 116 
3 450 451 175 
3 450 175 115 
3 451 452 174 
3 451 174 175 
3 211 114 413 
3 211 413 173 
3 114 113 413 
3 113 415 413 
3 404 172 210 
3 404 210 410 
3 170 112 114 
3 170 114 211 
3 112 415 113 
3 112 113 114 
3 403 110 172 
3 403 172 404 
3 110 109 171 
3 110 171 172 
3 109 112 170 
3 109 170 171 
3 415 108 111 
3 402 107 110 
3 402 110 403 
3 107 106 109 
3 107 109 110 
3 106 105 112 
3 106 112 109 
3 105 415 112 
3 415 105 108 
3 105 106 107 
3 401 105 107 
3 410 104 6 
3 191 79 78 
3 191 80 79 
3 191 81 80 
3 191 82 81 
3 191 83 82 
3 191 84 83 
3 191 213 84 
3 200 472 38 
3 474 86 251 
3 474 251 466 
3 475 476 278 
3 476 477 278 
3 477 478 279 
3 478 479 280 
3 478 280 279 
3 479 480 281 
3 479 281 280 
3 480 200 281 
3 416 409 219 
3 416 219 100 
3 410 411 103 
3 410 103 104 
3 411 412 102 
3 411 102 103 
3 412 413 102 
3 414 415 101 
3 415 416 100 
3 415 100 101 
3 209 214 87 
3 174 85 227 
3 189 453 92 
3 189 92 93 
3 453 454 91 
3 453 91 92 
3 454 455 90 
3 454 90 91 
3 455 456 89 
3 455 89 90 
3 456 209 88 
3 456 88 89 
3 209 87 88 
3 105 218 238 
3 400 264 31 
3 399 220 215 
3 399 215 259 
3 445 207 190 
3 445 190 189 
3 189 93 0 
3 439 60 14 
3 439 428 60 
3 328 413 414 
3 328 414 327 
3 329 327 414 
3 329 414 101 
3 330 329 101 
3 330 101 100 
3 331 330 100 
3 331 100 219 
3 336 31 309 
3 336 309 390 
3 373 394 382 
3 373 382 1 
3 311 309 31 
3 311 31 264 
3 312 311 264 
3 312 264 263 
3 313 312 263 
3 313 263 262 
3 314 313 262 
3 314 262 261 
3 315 314 261 
3 315 261 260 
3 316 315 260 
3 316 260 399 
3 317 316 399 
3 317 399 259 
3 310 317 259 
3 310 259 215 
3 293 292 0 
3 293 0 93 
3 294 293 93 
3 294 93 92 
3 295 294 92 
3 295 92 91 
3 296 295 91 
3 296 91 90 
3 297 296 90 
3 297 90 89 
3 298 297 89 
3 298 89 88 
3 299 298 88 
3 299 88 87 
3 291 299 87 
3 291 87 214 
3 320 319 215 
3 320 215 220 
3 321 320 220 
3 321 220 221 
3 322 321 221 
3 322 221 222 
3 323 322 222 
3 323 222 223 
3 324 323 223 
3 324 223 224 
3 325 324 224 
3 325 224 225 
3 326 325 225 
3 326 225 226 
3 318 326 226 
3 318 226 212 
3 374 373 1 
3 374 1 78 
3 375 374 78 
3 375 78 79 
3 376 375 79 
3 376 79 80 
3 377 376 80 
3 377 80 81 
3 378 377 81 
3 378 81 82 
3 379 378 82 
3 379 82 83 
3 380 379 83 
3 380 83 84 
3 372 380 84 
3 372 84 213 
3 383 381 5 
3 383 5 457 
3 384 383 457 
3 384 457 458 
3 385 384 458 
3 385 458 45 
3 386 385 45 
3 386 45 46 
3 387 386 46 
3 387 46 47 
3 388 387 47 
3 388 47 48 
3 389 388 48 
3 389 48 49 
3 382 389 49 
3 382 49 1 
3 363 218 99 
3 363 99 365 
3 366 365 99 
3 366 99 98 
3 367 366 98 
3 367 98 97 
3 368 367 97 
3 368 97 96 
3 369 368 96 
3 369 96 105 
3 370 369 105 
3 370 105 95 
3 371 370 95 
3 371 95 94 
3 364 371 94 
3 364 94 7 
3 356 354 216 
3 356 216 247 
3 357 356 247 
3 357 247 246 
3 358 357 246 
3 358 246 245 
3 359 358 245 
3 359 245 244 
3 360 359 244 
3 360 244 243 
3 361 360 243 
3 361 243 242 
3 362 361 242 
3 362 242 428 
3 355 362 428 
3 355 428 3 
3 346 345 7 
3 346 7 21 
3 347 346 21 
3 347 21 401 
3 348 347 401 
3 348 401 107 
3 349 348 107 
3 349 107 22 
3 350 349 22 
3 350 22 23 
3 351 350 23 
3 351 23 404 
3 352 351 404 
3 352 404 24 
3 353 352 24 
3 353 24 6 
3 333 332 6 
3 333 6 104 
3 334 333 104 
3 334 104 103 
3 335 334 103 
3 335 103 102 
3 328 335 102 
3 328 102 413 
3 284 283 38 
3 284 38 471 
3 285 284 471 
3 285 471 248 
3 286 285 248 
3 286 248 249 
3 287 286 249 
3 287 249 250 
3 288 287 250 
3 288 250 467 
3 289 288 467 
3 289 467 466 
3 290 289 466 
3 290 466 251 
3 282 290 251 
3 282 251 86 
3 302 301 214 
3 302 214 209 
3 303 302 209 
3 303 209 231 
3 304 303 231 
3 304 231 230 
3 305 304 230 
3 305 230 229 
3 306 305 229 
3 306 229 228 
3 307 306 228 
3 307 228 174 
3 308 307 174 
3 308 174 227 
3 300 308 227 
3 300 227 85 
3 338 336 219 
3 338 219 407 
3 339 338 407 
3 339 407 406 
3 340 339 406 
3 340 406 241 
3 341 340 241 
3 341 241 405 
3 342 341 405 
3 342 405 240 
3 343 342 240 
3 343 240 239 
3 344 343 239 
3 344 239 238 
3 337 344 238 
3 337 238 218 
3 2 420 290 
3 2 290 282 
3 420 44 289 
3 420 289 290 
3 44 43 288 
3 44 288 289 
3 43 42 287 
3 43 287 288 
3 42 41 286 
3 42 286 287 
3 41 40 285 
3 41 285 286 
3 40 39 284 
3 40 284 285 
3 39 217 283 
3 39 283 284 
3 86 474 299 
3 86 299 291 
3 474 268 298 
3 474 298 299 
3 268 269 297 
3 268 297 298 
3 269 270 296 
3 269 296 297 
3 270 271 295 
3 270 295 296 
3 271 272 294 
3 271 294 295 
3 272 139 293 
3 272 293 294 
3 139 205 292 
3 139 292 293 
3 3 14 308 
3 3 308 300 
3 14 15 307 
3 14 307 308 
3 15 16 306 
3 15 306 307 
3 16 17 305 
3 16 305 306 
3 17 18 304 
3 17 304 305 
3 18 19 303 
3 18 303 304 
3 19 20 302 
3 19 302 303 
3 20 2 301 
3 20 301 302 
3 205 462 317 
3 205 317 310 
3 462 50 316 
3 462 316 317 
3 50 51 315 
3 50 315 316 
3 51 52 314 
3 51 314 315 
3 52 53 313 
3 52 313 314 
3 53 481 312 
3 53 312 313 
3 481 54 311 
3 481 311 312 
3 54 4 309 
3 54 309 311 
3 123 13 326 
3 123 326 318 
3 13 12 325 
3 13 325 326 
3 12 11 324 
3 12 324 325 
3 11 442 323 
3 11 323 324 
3 442 10 322 
3 442 322 323 
3 10 9 321 
3 10 321 322 
3 9 8 320 
3 9 320 321 
3 8 0 319 
3 8 319 320 
3 279 280 335 
3 279 335 328 
3 280 281 334 
3 280 334 335 
3 281 200 333 
3 281 333 334 
3 200 38 332 
3 200 332 333 
3 4 475 330 
3 4 330 331 
3 475 278 329 
3 475 329 330 
3 278 477 327 
3 278 327 329 
3 279 328 327 
3 279 327 477 
3 25 398 344 
3 25 344 337 
3 398 26 343 
3 398 343 344 
3 26 27 342 
3 26 342 343 
3 27 28 341 
3 27 341 342 
3 28 29 340 
3 28 340 341 
3 29 30 339 
3 29 339 340 
3 30 400 338 
3 30 338 339 
3 400 31 336 
3 400 336 338 
3 217 237 352 
3 217 352 353 
3 237 236 351 
3 237 351 352 
3 236 235 350 
3 236 350 351 
3 235 234 349 
3 235 349 350 
3 234 233 348 
3 234 348 349 
3 233 232 347 
3 233 347 348 
3 232 421 346 
3 232 346 347 
3 421 216 345 
3 421 345 346 
3 213 191 362 
3 213 362 355 
3 191 32 361 
3 191 361 362 
3 32 33 360 
3 32 360 361 
3 33 34 359 
3 33 359 360 
3 34 35 358 
3 34 358 359 
3 35 36 357 
3 35 357 358 
3 36 459 356 
3 36 356 357 
3 459 37 354 
3 459 354 356 
3 37 273 371 
3 37 371 364 
3 273 274 370 
3 273 370 371 
3 274 275 369 
3 274 369 370 
3 275 460 368 
3 275 368 369 
3 460 276 367 
3 460 367 368 
3 276 206 366 
3 276 366 367 
3 206 277 365 
3 206 365 366 
3 5 363 365 
3 5 365 277 
3 85 452 380 
3 85 380 372 
3 452 267 379 
3 452 379 380 
3 267 450 378 
3 267 378 379 
3 450 449 377 
3 450 377 378 
3 449 266 376 
3 449 376 377 
3 266 265 375 
3 266 375 376 
3 265 176 374 
3 265 374 375 
3 176 123 373 
3 176 373 374 
3 212 258 389 
3 212 389 382 
3 258 257 388 
3 258 388 389 
3 257 256 387 
3 257 387 388 
3 256 255 386 
3 256 386 387 
3 255 254 385 
3 255 385 386 
3 254 253 384 
3 254 384 385 
3 253 252 383 
3 253 383 384 
3 252 25 381 
3 252 381 383 
3 332 38 283 
3 332 283 391 
3 282 86 291 
3 282 291 392 
3 355 3 300 
3 355 300 393 
3 381 25 337 
3 381 337 395 
3 364 7 345 
3 364 345 396 
3 292 397 319 
3 292 319 0 
3 363 5 381 
3 363 381 395 
3 354 37 364 
3 354 364 396 
3 372 393 300 
3 372 300 85 
3 301 392 291 
3 301 291 214 
3 310 215 319 
3 310 319 397 
3 353 391 283 
3 353 283 217 
3 219 336 390 
3 219 390 331 
3 4 331 390 
3 4 390 309 
3 6 332 391 
3 6 391 353 
3 2 282 392 
3 2 392 301 
3 213 355 393 
3 213 393 372 
3 318 212 382 
3 318 382 394 
3 123 318 394 
3 123 394 373 
3 218 363 395 
3 218 395 337 
3 216 354 396 
3 216 396 345 
3 205 310 397 
3 205 397 292 
3 258 212 399 
3 25 252 399 
3 257 258 399 
3 256 257 399 
3 255 256 399 
3 254 255 399 
3 253 254 399 
3 252 253 399 
3 25 399 398 
3 398 399 26 
3 26 399 27 
3 27 399 28 
3 28 399 29 
3 29 399 30 
3 30 399 400 
3 7 94 105 
3 7 105 21 
3 413 415 414 
3 173 413 412 
3 173 412 411 
3 410 173 411 
3 415 409 416 
3 99 218 105 
3 98 99 105 
3 97 98 105 
3 96 97 105 
3 94 95 105 
3 24 410 6 
3 21 105 401 
3 107 402 22 
3 22 402 403 
3 22 403 23 
3 23 403 404 
3 404 410 24 
3 415 408 409 
3 111 407 408 
3 111 408 415 
3 108 406 407 
3 108 407 111 
3 105 405 406 
3 105 406 108 
3 20 420 2 
3 3 428 439 
3 3 439 14 
3 55 246 421 
3 55 421 62 
3 63 438 437 
3 74 63 437 
3 74 437 436 
3 75 74 436 
3 75 436 435 
3 76 75 435 
3 76 435 434 
3 77 76 434 
3 77 434 420 
3 63 427 438 
3 247 216 246 
3 245 246 433 
3 245 433 432 
3 244 245 432 
3 244 432 431 
3 243 244 431 
3 243 431 430 
3 242 243 430 
3 242 430 429 
3 428 242 429 
3 14 60 15 
3 15 60 417 
3 15 417 16 
3 16 417 418 
3 16 418 17 
3 17 418 419 
3 17 419 18 
3 18 419 420 
3 18 420 19 
3 19 420 20 
3 63 426 427 
3 67 424 425 
3 67 425 63 
3 65 423 424 
3 65 424 67 
3 62 422 423 
3 62 423 65 
3 62 421 422 
3 8 445 189 
3 8 189 0 
3 137 209 456 
3 137 456 455 
3 138 137 455 
3 138 455 454 
3 188 138 454 
3 188 454 453 
3 189 188 453 
3 452 85 174 
3 267 452 451 
3 450 267 451 
3 266 449 448 
3 265 266 448 
3 265 448 447 
3 176 265 447 
3 13 123 440 
3 13 440 12 
3 12 440 441 
3 12 441 11 
3 11 441 442 
3 442 443 10 
3 10 443 444 
3 10 444 9 
3 9 444 445 
3 9 445 8 
3 124 446 209 
3 124 209 128 
3 177 174 446 
3 177 446 124 
3 5 461 457 
3 274 273 191 
3 275 274 191 
3 460 275 191 
3 276 460 206 
3 49 191 1 
3 458 191 45 
3 45 191 46 
3 46 191 47 
3 47 191 48 
3 48 191 49 
3 5 277 206 
3 5 206 461 
3 273 37 191 
3 201 200 480 
3 166 201 480 
3 166 480 479 
3 167 166 479 
3 167 479 478 
3 168 167 478 
3 168 478 477 
3 202 168 477 
3 202 477 476 
3 202 476 475 
3 192 474 466 
3 192 466 142 
3 54 481 4 
3 268 474 142 
3 269 268 142 
3 270 269 142 
3 270 142 473 
3 271 270 473 
3 271 473 142 
3 272 271 142 
3 272 142 139 
3 462 463 50 
3 50 463 464 
3 50 464 51 
3 51 464 465 
3 51 465 52 
3 52 465 481 
3 52 481 53 
3 194 470 471 
3 194 471 472 
3 152 469 470 
3 152 470 194 
3 146 468 469 
3 146 469 152 
3 142 467 468 
3 142 468 146 
3 203 202 475 
3 203 475 481 
3 180 209 183 
3 181 180 183 
3 182 181 183 
3 182 183 184 
3 178 179 118 
3 177 178 118 
3 174 177 118 
3 174 118 175 
3 186 185 208 
3 187 186 208 
3 207 187 208 
3 190 207 208 
3 190 208 188 
3 188 189 190 
3 171 170 211 
3 172 171 211 
3 210 172 211 
3 210 211 173 
3 173 410 210 
3 198 197 204 
3 199 198 204 
3 481 199 204 
3 203 481 204 
3 203 204 202 
3 162 196 195 
3 201 162 195 
3 200 201 195 
3 472 200 195 
3 472 195 194 
3 193 205 139 
3 474 192 142 
3 63 169 60 
3 60 64 63 
