ply
format ascii 1.0
comment VCGLIB generated
element vertex 242
property float x
property float y
property float z
property float nx
property float ny
property float nz
element face 480
property list uchar int vertex_indices
end_header
-0.0810324 -0.0511272 0.0511272 -4.9147 -1.83917 1.81918 
-0.0511272 0.0810324 0.0511272 -1.83416 4.91701 1.82254 
-0.0511272 -0.0511272 -0.0810324 -1.80273 -1.82272 -4.94624 
-0.0511272 0.0511272 -0.0810324 -1.83497 1.82324 -4.91197 
0.0511272 -0.0810324 0.0511272 1.8265 -4.94343 1.80154 
0.0511272 0.0810324 0.0511272 1.83187 4.90797 1.83187 
0.0810324 -0.0511272 -0.0511272 4.94499 -1.79118 -1.80515 
0.0810324 0.0511272 -0.0511272 4.9147 1.81918 -1.83917 
-0.0810324 -0.040176 0.0601182 -4.97267 -1.22748 1.8814 
-0.0810324 0.040176 0.0601182 -4.94816 1.45229 2.10302 
-0.0709236 -0.0141102 -0.0810324 -2.31268 -0.444173 -5.19712 
-0.0668088 -0.0276696 -0.0810324 -2.22768 -0.979603 -5.11965 
-0.0601182 -0.040176 -0.0810324 -2.08212 -1.44105 -4.99219 
0.0810324 0.040176 -0.0601182 4.95526 1.48276 -2.08502 
0.0810326 -0.00928292 -0.0720486 5.1593 -0.318848 -2.37063 
0.0511272 0.0511272 0.0810324 1.83917 1.81918 4.9147 
0.0668088 0.0276696 0.0810324 2.22662 0.970201 5.12552 
0.0709236 0.0141102 0.0810324 2.31073 0.490468 5.205 
0.0709236 -0.0141102 0.0810324 2.31946 -0.492445 5.19407 
0.0668088 -0.0276696 0.0810324 2.25384 -0.973691 5.09322 
0.0511272 -0.0511272 0.0810324 1.81918 -1.83917 4.9147 
-0.0276696 0.0810324 -0.0668088 -0.970316 5.12498 -2.22705 
-0.0141102 0.0810324 -0.0709236 -0.485065 5.20065 -2.31545 
0 0.0810324 -0.0723168 -0.00398801 5.22583 -2.3437 
0.0141102 0.0810324 -0.0709236 0.498689 5.1982 -2.31352 
0.0511272 0.0810324 -0.0511272 1.83917 4.9147 -1.81918 
0.0511272 -0.0810324 -0.0511272 1.83154 -4.91355 -1.82698 
0.0276696 -0.0668088 -0.0810324 0.98572 -2.22163 -5.12213 
0.0141102 -0.0709236 -0.0810324 0.434161 -2.28499 -5.19708 
-0.0141102 -0.0709236 -0.0810324 -0.502253 -2.31991 -5.18669 
-0.0141102 0.0810324 0.0709236 -0.500448 5.21761 2.29646 
-0.0276696 0.0810324 0.0668088 -0.973691 5.09322 2.25384 
-0.040176 0.0810324 0.0601182 -1.44105 4.99219 2.08212 
0.00928276 -0.0810356 0.0720458 0.320709 -5.15221 2.37397 
0.040176 -0.0810324 0.0601182 1.44105 -4.99219 2.08212 
-0.0601182 0.0810324 0.040176 -2.07026 4.98883 1.46137 
-0.0668088 0.0810324 0.0276696 -2.22663 5.1255 0.970206 
-0.0709236 0.0810324 0.0141102 -2.30736 5.20795 0.494971 
-0.0723168 0.0810324 0 -2.31864 5.25306 -0.0127912 
-0.0668088 0.0810324 -0.0276696 -2.23686 5.11276 -0.961749 
-0.0601182 0.0810324 -0.040176 -2.08212 4.99219 -1.44105 
-0.0810324 0.0511272 -0.0511272 -4.9147 1.83917 -1.81918 
-0.0511272 -0.0810324 -0.0511272 -1.83917 -4.9147 -1.81918 
-0.0810324 -0.0601182 -0.040176 -4.99219 -2.08212 -1.44105 
-0.0810324 -0.0668088 -0.0276696 -5.11387 -2.23915 -0.956475 
0.0810324 0.0601182 -0.040176 4.98655 2.09567 -1.42524 
0.0810324 0.0709236 0.0141102 5.18248 2.3116 0.499902 
0.0810324 0.0601182 0.040176 4.9876 2.09187 1.43083 
0.0810324 -0.0601182 0.040176 4.97928 -2.09805 1.43238 
0.0810324 -0.0668088 -0.0276696 5.12336 -2.23093 -0.962356 
0.0810324 -0.0601182 -0.040176 4.98877 -2.07036 -1.46128 
0.0810324 0.0709236 -0.0141102 5.21637 2.30001 -0.47645 
0.0810324 0.0141103 -0.0709236 5.19663 0.461199 -2.32126 
-0.0810324 -0.0601182 0.0401761 -4.94823 -2.09651 1.46885 
-0.0810324 0.0511272 0.0511272 -4.94277 1.81166 1.8154 
-0.0601182 -0.0810324 0.040176 -2.08212 -4.99219 1.44105 
0.0709236 -0.0810324 0.0141102 2.32613 -5.19156 0.465102 
-0.0810324 0.0276696 -0.0668088 -5.1319 0.967014 -2.2226 
-0.040176 0.0810324 -0.0601182 -1.46131 4.98878 -2.07033 
-0.0723168 -0.0810324 0 -2.34233 -5.2263 -0.00390979 
-0.0511272 -0.0810324 0.0511272 -1.79342 -4.94696 1.82312 
0.0668088 0.0810324 0.0276696 2.2388 5.11388 0.960804 
-0.0810324 -0.040176 -0.0601182 -4.94835 -1.46587 -2.10037 
-0.0511272 0.0511272 0.0810324 -1.81918 1.83917 4.9147 
-0.0511272 0.0810324 -0.0511272 -1.80609 4.94855 -1.81771 
-0.0810324 -0.0511272 -0.0511272 -4.9147 -1.81918 -1.83917 
-0.0511272 -0.0511272 0.0810324 -1.83917 -1.81918 4.9147 
0.0511272 0.0511272 -0.0810324 1.80273 1.82272 -4.94624 
0.0511272 -0.0511272 -0.0810324 1.72083 -1.75604 -4.91078 
0.0810324 0.0511272 0.0511272 4.95297 1.81003 1.81003 
0.0810324 -0.0511272 0.0511272 4.94732 -1.80178 1.82247 
-0.0601182 -0.040176 0.0810324 -2.08509 -1.48271 4.95521 
-0.0668088 -0.0276696 0.0810324 -2.22748 -0.970433 5.12443 
-0.0709236 -0.0141102 0.0810324 -2.31219 -0.490453 5.20335 
-0.0709236 0.0141102 0.0810324 -2.31166 0.478533 5.20671 
-0.0668088 0.0276696 0.0810324 -2.22687 0.979801 5.12045 
-0.0601182 0.040176 0.0810324 -2.08212 1.44105 4.99219 
-0.0810324 0.040176 -0.0601182 -5.00507 1.44501 -2.06779 
-0.0810324 0.0141102 -0.0709236 -5.20664 0.477755 -2.3119 
-0.0810324 0 -0.0723168 -5.21468 -0.0275355 -2.3519 
0.0601182 -0.040176 -0.0810324 2.07028 -1.46138 -4.9888 
0.0810324 0.040176 0.0601182 4.9862 1.4279 2.09448 
0.0276696 0.0668088 -0.0810324 0.933552 2.21068 -5.12149 
0.040176 0.0601182 -0.0810324 1.48252 2.08537 -4.95503 
0 -0.0810324 -0.0723168 0.0405637 -5.21104 -2.31776 
-0.040176 -0.0810324 -0.0601182 -1.44105 -4.99219 -2.08212 
0.040176 0.0601182 0.0810324 1.44105 2.08212 4.99219 
0.0276696 0.0668088 0.0810324 0.973691 2.25384 5.09322 
0.0141102 0.0709236 0.0810324 0.500448 2.29646 5.21761 
0 0.0723168 0.0810324 -1.86265e-08 2.31415 5.2589 
-0.0276696 0.0668088 0.0810324 -0.985024 2.25682 5.08373 
-0.040176 0.0601182 0.0810324 -1.47681 2.09275 4.95055 
-0.040176 -0.0601182 0.0810324 -1.445 -2.0678 5.00506 
-0.0141102 -0.0709236 0.0810324 -0.442464 -2.2654 5.19775 
0.0276696 -0.0668088 0.0810324 0.972767 -2.26551 5.07837 
0.040176 -0.0601182 0.0810324 1.47681 -2.09275 4.95055 
-0.0709236 -0.0810324 -0.0141102 -2.31925 -5.18644 -0.510929 
-0.0709236 -0.0810324 0.0141102 -2.31249 -5.206 0.477648 
-0.0668088 -0.0810324 0.0276696 -2.22627 -5.12103 0.979946 
0.0601182 0.0810324 -0.040176 2.08537 4.95503 -1.48252 
0.0668088 0.0810324 -0.0276696 2.2235 5.12675 -0.975603 
0.0601182 0.0810324 0.040176 2.08887 4.95283 1.47995 
0.0709236 -0.0810324 -0.0141102 2.30576 -5.18895 -0.492329 
-0.0511596 -0.066177 -0.066177 -3.18216 -3.85883 -3.79394 
0.0511596 -0.066177 -0.066177 3.24629 -3.80473 -3.78931 
0.0398591 -0.0603214 -0.0808543 1.52027 -2.16035 -5.02743 
0.0278071 -0.0807996 -0.0667394 0.945385 -5.17246 -2.24595 
0.0143969 -0.0808585 -0.070805 0.49745 -5.25384 -2.26316 
-0.000559965 -0.0722212 -0.0809091 0.00960921 -2.34426 -5.27782 
-0.0277943 -0.0672532 -0.0802806 -1.41939 -3.29103 -4.92812 
-0.0399816 -0.0704376 -0.0704376 -2.63727 -4.00002 -4.04897 
-0.066177 -0.066177 -0.0511596 -3.78179 -3.81152 -3.24709 
-0.066177 -0.066177 0.0511596 -3.88856 -3.76422 3.18216 
-0.0704376 -0.0704376 0.0399816 -4.04862 -3.99968 2.6385 
-0.0809417 -0.0665988 0.0278106 -5.15896 -2.08735 0.892333 
-0.0807505 -0.0709113 0.0143903 -5.24617 -2.55479 0.5686 
-0.0810291 -0.0721047 0.000576571 -5.2777 -2.11624 -0.0212821 
-0.0807385 -0.0711343 -0.0134087 -5.24616 -2.43657 -0.455202 
-0.0665108 -0.0810306 -0.0278128 -2.20299 -5.15716 -0.96713 
-0.0704376 -0.0704376 -0.0399816 -3.99964 -4.04857 -2.63867 
-0.066177 0.0511596 -0.066177 -3.77782 3.27013 -3.79775 
-0.066177 -0.0511596 -0.066177 -3.88856 -3.18216 -3.76422 
-0.0704376 -0.0399816 -0.0704376 -4.04897 -2.63727 -4.00002 
-0.0802806 -0.0277943 -0.0672532 -4.96071 -1.38632 -3.22343 
-0.0809669 -0.0144035 -0.0706981 -5.25098 -0.509359 -2.34298 
-0.0722212 0.000559965 -0.0809091 -2.30332 0.0258671 -5.27804 
-0.0707732 0.0143988 -0.0808908 -2.27969 0.475854 -5.25981 
-0.0665107 0.0278128 -0.0810307 -2.18421 0.953034 -5.16848 
-0.0599896 0.0398465 -0.0810284 -2.0483 1.41364 -5.05293 
0.0511596 -0.066177 0.066177 3.19046 -3.75952 3.88586 
-0.0511596 -0.066177 0.066177 -3.20518 -3.78018 3.85485 
0.0399816 -0.0704376 0.0704376 2.62523 -4.00608 4.04947 
0.02754 -0.0737586 0.0737586 1.76362 -4.25142 4.25795 
0.0144066 -0.0706486 0.0810172 0.529406 -2.26957 5.25574 
0.000569028 -0.0721575 0.0809748 -0.0332114 -2.36813 5.2604 
-0.0144073 -0.0810283 0.0706377 -0.455712 -5.24856 2.27711 
-0.0278127 -0.0810263 0.066515 -0.970505 -5.1686 2.18877 
-0.066177 0.0511596 0.066177 -3.79394 3.18216 3.85883 
-0.066177 -0.0511596 0.066177 -3.78179 -3.24709 3.81152 
-0.0704376 -0.0399816 0.0704376 -4.01958 -2.6435 4.02576 
-0.0806291 -0.0269511 0.0672828 -5.16011 -0.996811 2.32596 
-0.080737 -0.013409 0.0711357 -5.25701 -0.543753 2.42089 
-0.0723168 0 0.0810324 -2.32514 0.00424597 5.24603 
-0.0810288 0.0144073 0.0706372 -5.25597 0.52589 2.13572 
-0.080654 0.0278035 0.0668835 -5.16 0.979784 2.31708 
-0.0704376 0.0399816 0.0704376 -4.04878 2.63797 3.99982 
0.0723234 -0.0807524 0 2.90847 -5.22219 -0.00101268 
0.0810288 -0.066909 0.0269072 5.16164 -2.2103 0.94306 
0.0704376 -0.0704376 0.0399816 4.01387 -4.00796 2.67474 
0.066177 -0.066177 -0.0511596 3.78729 -3.86636 -3.18115 
0.060159 -0.08103 -0.0398427 2.0589 -5.02808 -1.38219 
0.0671379 -0.080784 -0.0269341 2.23384 -5.17089 -0.966877 
0.0808237 -0.0708392 -0.0143948 5.21625 -2.73912 -0.565594 
0.066177 -0.0511596 0.066177 3.79025 -3.19619 3.85021 
0.066177 0.0511596 0.066177 3.76422 3.18216 3.88856 
0.0704376 -0.0399816 0.0704376 4.04947 -2.62523 4.00609 
0.0737586 -0.02754 0.0737586 4.26273 -1.78722 4.23892 
0.0804551 -0.0143723 0.0712022 5.08926 -0.694394 3.24903 
0.0723168 0 0.0810324 2.32522 -0.00586956 5.24592 
0.0810319 0.0133613 0.070858 5.2605 0.466891 2.26622 
0.0810314 0.0269069 0.0669065 5.16191 0.942454 2.20592 
0.0704376 0.0399816 0.0704376 4.01974 2.64507 4.02471 
0.066177 0.0511596 -0.066177 3.88856 3.18216 -3.76422 
0.0704376 0.0399816 -0.0704376 4.02548 2.64392 -4.01963 
0.0671816 0.0269392 -0.0807373 2.36207 0.970342 -5.15858 
0.0709976 0.0133852 -0.0808837 2.21471 0.465198 -5.25467 
0.0722212 -0.000559965 -0.0809091 2.33256 0.0308681 -5.27316 
0.0707732 -0.0143988 -0.0808908 2.43818 -0.53568 -5.26842 
0.0809824 -0.0398472 -0.060203 5.02846 -1.43365 -2.07821 
0.066177 -0.0511596 -0.066177 3.77174 -3.18121 -3.88187 
0.0511596 0.066177 -0.066177 3.18216 3.85883 -3.79394 
-0.0511596 0.066177 -0.066177 -3.18115 3.78729 -3.86636 
0.0399816 0.0704376 -0.0704376 2.64197 4.01938 -4.02683 
0.0269952 0.0802289 -0.0676571 1.41741 4.92107 -3.32067 
0.0143989 0.0707734 -0.0808904 0.475541 2.27851 -5.25747 
0.000559918 0.0722212 -0.0809091 0.0168687 2.28937 -5.28448 
-0.0133852 0.0709973 -0.080884 -0.459872 2.26816 -5.25529 
-0.0269291 0.067095 -0.0808298 -0.927897 2.23767 -5.16958 
0.066177 0.066177 0.0511596 3.76422 3.88856 3.18216 
0.066177 0.066177 -0.0511596 3.78179 3.81152 -3.24709 
0.0704376 0.0704376 0.0399816 4.01343 4.0348 2.63863 
0.0810126 0.0665286 0.0278124 5.15711 2.21641 0.970109 
0.0714276 0.080427 0.013459 3.27818 5.08058 0.66411 
0.0805266 0.0725923 0.000506838 5.15264 3.1996 0.0171111 
0.0709236 0.0810324 -0.0141102 2.29961 5.22052 -0.473702 
0.0802289 0.0676571 -0.0269952 4.92554 3.31424 -1.42366 
0.0704376 0.0704376 -0.0399816 4.01938 4.02683 -2.64197 
-0.066177 0.066177 -0.0511596 -3.88856 3.76422 -3.18216 
-0.066177 0.066177 0.0511596 -3.77175 3.88191 3.18115 
-0.08103 0.060159 0.0398427 -5.02843 2.0645 1.41816 
-0.0810246 0.0669129 0.0269077 -5.16921 2.20377 0.934299 
-0.0810286 0.0708611 0.0133618 -5.26405 2.26227 0.472554 
-0.0810324 0.0723168 0 -5.25317 2.31844 0.000274245 
-0.0708628 0.0810269 -0.0133621 -2.27432 5.25427 -0.472289 
-0.0804843 0.0670516 -0.0277993 -5.00121 3.10631 -1.34262 
-0.0704376 0.0704376 -0.0399816 -4.04886 3.99991 -2.63766 
0.0511596 0.066177 0.066177 3.24709 3.81152 3.78179 
-0.0511596 0.066177 0.066177 -3.24709 3.78179 3.81152 
0.0399816 0.0704376 0.0704376 2.62523 4.04947 4.00609 
0.02754 0.0737586 0.0737586 1.80353 4.25333 4.24288 
0.0141102 0.0810324 0.0709236 0.500448 5.21761 2.29646 
0 0.0810324 0.0723168 -2.23517e-08 5.2589 2.31415 
-0.0141102 0.0709236 0.0810324 -0.500448 2.29646 5.21761 
-0.02754 0.0737586 0.0737586 -1.80353 4.24288 4.25333 
-0.0399816 0.0704376 0.0704376 -2.62523 4.00609 4.04947 
0.0620823 -0.0627593 0.0603649 3.56052 -3.58026 3.65813 
0.061722 -0.061722 -0.061722 3.3954 -3.67439 -3.67439 
-0.061722 -0.061722 -0.061722 -3.67439 -3.67439 -3.3954 
-0.061722 0.061722 -0.061722 -3.67439 3.3954 -3.67439 
-0.061722 0.061722 0.061722 -3.3954 3.67439 3.67439 
0.061722 0.061722 0.061722 3.3954 3.67439 3.67439 
0.061722 0.061722 -0.061722 3.67439 3.67439 -3.3954 
-0.061722 -0.061722 0.061722 -3.67439 -3.3954 3.67439 
0.0601182 0.040176 0.0810324 2.08482 1.48289 4.95539 
-0.0276696 -0.0668088 0.0810324 -0.966549 -2.22269 5.13189 
0.0601182 -0.040176 0.0810324 2.08212 -1.44105 4.99219 
0.0810324 0.0276696 -0.0668088 5.12477 0.970426 -2.2272 
0.0810263 -0.0269075 -0.0669113 5.16887 -0.936067 -2.20386 
0.0810324 2.53486e-08 0.0723168 5.2424 -0.0134279 2.32639 
0.0810324 -0.0276696 0.0668088 5.07858 -0.970264 2.26596 
0.0810324 -0.040176 0.0601182 4.95055 -1.47681 2.09275 
0.0810324 -0.0723168 0 5.19945 -2.3639 -0.00157652 
0.0810293 -0.0707066 0.0138558 5.25993 -2.27041 0.464989 
-0.040176 -0.0601182 -0.0810324 -1.46652 -2.10008 -4.94836 
0.0601182 0.040176 -0.0810324 2.09689 1.42152 -4.98631 
-0.0398428 0.0601598 -0.0810291 -1.40172 2.06665 -5.02829 
0.0668088 -0.0276696 -0.0810324 2.22871 -0.960092 -5.12409 
-0.0810324 -1.56306e-08 0.0723168 -5.24238 0.000398685 2.32368 
-0.0810324 0.0709236 -0.0141102 -5.19159 2.31487 -0.518452 
-0.0810324 0.0601182 -0.040176 -4.94834 2.09964 -1.46747 
0.0276696 0.0810324 0.0668088 0.985024 5.08373 2.25682 
0.040176 0.0810324 -0.0601182 1.42524 4.98655 -2.09567 
0.0723168 0.0810324 0 2.34863 5.21883 0.0105802 
0.040176 0.0810324 0.0601182 1.47681 4.95055 2.09275 
-0.0398467 -0.08102 0.0599979 -1.41585 -5.05294 2.0504 
-0.0276696 -0.0810324 -0.0668088 -0.962951 -5.11231 -2.23928 
-0.0133615 -0.0810307 -0.0708592 -0.465132 -5.24952 -2.27707 
0.040176 -0.0810324 -0.0601182 1.43787 -4.98681 -2.07816 
-0.0601182 -0.0810324 -0.040176 -2.0985 -4.94824 -1.47007 
0.0601182 -0.0810324 0.040176 2.08483 -4.95539 1.48289 
0.0668088 -0.0810324 0.0276696 2.22676 -5.1254 0.970119 
0.0276696 -0.0810324 0.0668088 0.959123 -5.08662 2.26445 
3 214 63 76 
3 214 76 75 
3 214 75 74 
3 214 74 142 
3 214 142 73 
3 214 73 72 
3 214 72 71 
3 51 81 160 
3 51 160 159 
3 51 159 218 
3 218 157 219 
3 221 220 70 
3 224 164 226 
3 226 164 165 
3 226 165 166 
3 226 166 167 
3 226 80 68 
3 57 78 79 
3 57 79 62 
3 62 79 124 
3 62 124 123 
3 58 25 231 
3 231 173 24 
3 231 24 58 
3 58 24 23 
3 58 23 22 
3 58 22 21 
3 241 239 4 
3 59 235 236 
3 236 84 59 
3 59 84 107 
3 59 107 106 
3 59 106 237 
3 237 26 59 
3 215 214 94 
3 215 94 95 
3 214 133 94 
3 214 134 133 
3 214 93 134 
3 226 68 105 
3 223 226 29 
3 223 29 109 
3 226 108 29 
3 226 28 108 
3 226 27 28 
3 226 105 27 
3 136 59 135 
3 234 60 59 
3 234 59 136 
3 233 61 58 
3 233 58 230 
3 58 35 1 
3 232 58 61 
3 143 53 227 
3 192 57 53 
3 189 53 54 
3 82 67 224 
3 190 191 53 
3 190 53 189 
3 191 192 53 
3 192 228 57 
3 228 229 57 
3 14 52 221 
3 51 221 52 
3 216 51 52 
3 221 50 6 
3 58 36 35 
3 58 37 36 
3 58 38 37 
3 58 193 38 
3 58 39 193 
3 58 40 39 
3 58 64 40 
3 150 59 26 
3 238 42 85 
3 238 85 235 
3 56 59 102 
3 56 102 146 
3 59 151 102 
3 59 150 151 
3 221 70 48 
3 221 49 50 
3 221 152 49 
3 222 221 147 
3 221 48 147 
3 62 65 43 
3 57 41 77 
3 53 115 114 
3 53 116 115 
3 116 53 117 
3 53 62 44 
3 53 44 117 
3 62 43 44 
3 51 69 81 
3 215 95 20 
3 214 71 66 
3 214 66 92 
3 146 221 222 
3 148 147 48 
3 205 148 48 
3 205 48 70 
3 153 20 129 
3 153 129 205 
3 188 209 197 
3 188 197 1 
3 131 129 20 
3 131 20 95 
3 132 131 95 
3 132 95 94 
3 133 132 94 
3 135 134 93 
3 136 135 93 
3 136 93 214 
3 234 136 214 
3 234 214 92 
3 130 234 92 
3 130 92 66 
3 113 112 0 
3 113 0 53 
3 114 113 53 
3 118 117 44 
3 119 118 44 
3 119 44 43 
3 111 119 43 
3 111 43 65 
3 139 138 66 
3 139 66 71 
3 140 139 71 
3 140 71 72 
3 141 140 72 
3 141 72 73 
3 142 141 73 
3 143 142 74 
3 144 143 74 
3 144 74 75 
3 145 144 75 
3 145 75 76 
3 137 145 76 
3 137 76 63 
3 189 188 1 
3 189 1 35 
3 190 189 35 
3 190 35 36 
3 191 190 36 
3 191 36 37 
3 192 191 37 
3 192 37 38 
3 193 192 38 
3 194 193 39 
3 195 194 39 
3 195 39 40 
3 187 195 40 
3 187 40 64 
3 198 196 5 
3 198 5 233 
3 199 198 233 
3 199 233 230 
3 200 199 230 
3 202 201 30 
3 203 202 30 
3 203 30 31 
3 204 203 31 
3 204 31 32 
3 197 204 32 
3 197 32 1 
3 178 69 47 
3 178 47 180 
3 181 180 47 
3 182 181 46 
3 183 182 46 
3 184 183 51 
3 185 184 51 
3 186 185 45 
3 179 186 45 
3 179 45 7 
3 172 170 67 
3 172 67 83 
3 173 172 83 
3 173 83 82 
3 174 173 82 
3 171 225 3 
3 163 162 7 
3 163 7 13 
3 164 163 13 
3 164 13 216 
3 165 164 216 
3 165 216 52 
3 166 165 52 
3 166 52 14 
3 167 166 14 
3 217 167 14 
3 169 168 6 
3 150 149 6 
3 150 6 50 
3 151 150 50 
3 151 50 49 
3 152 151 49 
3 146 152 221 
3 105 104 26 
3 105 26 237 
3 106 105 237 
3 108 107 84 
3 236 108 84 
3 109 236 235 
3 110 109 235 
3 110 235 85 
3 103 110 85 
3 103 85 42 
3 122 121 65 
3 122 65 62 
3 123 122 62 
3 125 124 79 
3 126 125 79 
3 126 79 78 
3 127 126 78 
3 127 78 57 
3 128 127 57 
3 128 57 77 
3 120 128 77 
3 120 77 41 
3 155 153 70 
3 155 70 220 
3 156 155 220 
3 156 220 219 
3 157 156 219 
3 158 157 218 
3 159 158 218 
3 161 160 81 
3 154 161 81 
3 154 81 69 
3 2 223 110 
3 2 110 103 
3 223 109 110 
3 109 29 236 
3 29 108 236 
3 108 28 107 
3 28 27 106 
3 28 106 107 
3 27 105 106 
3 105 68 104 
3 42 238 119 
3 42 119 111 
3 238 118 119 
3 118 96 117 
3 96 59 116 
3 96 116 117 
3 59 97 115 
3 59 115 116 
3 97 98 114 
3 97 114 115 
3 98 55 113 
3 98 113 114 
3 55 60 112 
3 55 112 113 
3 3 128 120 
3 125 10 124 
3 10 11 123 
3 10 123 124 
3 11 12 122 
3 11 122 123 
3 12 2 121 
3 12 121 122 
3 60 234 130 
3 135 33 134 
3 33 133 134 
3 33 241 132 
3 33 132 133 
3 241 34 131 
3 241 131 132 
3 34 4 129 
3 34 129 131 
3 54 9 145 
3 54 145 137 
3 9 144 145 
3 143 227 142 
3 227 141 142 
3 140 8 139 
3 8 0 138 
3 8 138 139 
3 146 102 152 
3 102 151 152 
3 150 26 149 
3 4 239 148 
3 4 148 205 
3 239 240 147 
3 239 147 148 
3 240 56 222 
3 240 222 147 
3 146 222 56 
3 15 213 161 
3 15 161 154 
3 213 16 160 
3 213 160 161 
3 16 17 159 
3 16 159 160 
3 17 158 159 
3 158 18 157 
3 18 19 156 
3 18 156 157 
3 19 215 155 
3 19 155 156 
3 215 20 153 
3 215 153 155 
3 68 80 168 
3 68 168 169 
3 80 226 217 
3 80 217 168 
3 226 167 217 
3 164 224 163 
3 224 67 162 
3 224 162 163 
3 64 58 225 
3 64 225 171 
3 58 21 177 
3 58 177 225 
3 21 22 176 
3 21 176 177 
3 22 23 175 
3 22 175 176 
3 23 24 174 
3 23 174 175 
3 24 173 174 
3 173 231 172 
3 231 25 170 
3 231 170 172 
3 25 99 186 
3 25 186 179 
3 99 100 185 
3 99 185 186 
3 100 184 185 
3 184 232 183 
3 232 182 183 
3 182 61 181 
3 61 101 180 
3 61 180 181 
3 5 178 180 
3 5 180 101 
3 41 229 195 
3 41 195 187 
3 229 194 195 
3 194 228 193 
3 228 192 193 
3 189 54 188 
3 63 91 204 
3 63 204 197 
3 91 90 203 
3 91 203 204 
3 90 202 203 
3 202 89 201 
3 89 88 200 
3 89 200 201 
3 88 87 199 
3 88 199 200 
3 87 86 198 
3 87 198 199 
3 86 15 196 
3 86 196 198 
3 149 26 104 
3 149 104 206 
3 103 42 111 
3 103 111 207 
3 171 3 120 
3 171 120 208 
3 196 15 154 
3 196 154 210 
3 179 7 162 
3 179 162 211 
3 112 212 138 
3 112 138 0 
3 178 5 196 
3 178 196 210 
3 170 25 179 
3 170 179 211 
3 187 208 120 
3 187 120 41 
3 121 207 111 
3 121 111 65 
3 130 66 138 
3 130 138 212 
3 169 206 104 
3 169 104 68 
3 70 153 205 
3 4 205 129 
3 6 149 206 
3 6 206 169 
3 2 103 207 
3 2 207 121 
3 64 171 208 
3 64 208 187 
3 137 63 197 
3 137 197 209 
3 54 137 209 
3 54 209 188 
3 69 178 210 
3 69 210 154 
3 67 170 211 
3 67 211 162 
3 60 130 212 
3 60 212 112 
3 91 63 214 
3 15 86 214 
3 90 91 214 
3 202 90 214 
3 89 202 214 
3 88 89 214 
3 87 88 214 
3 86 87 214 
3 15 214 213 
3 213 214 16 
3 16 214 17 
3 17 214 158 
3 158 214 18 
3 18 214 19 
3 19 214 215 
3 7 45 51 
3 7 51 13 
3 47 69 51 
3 181 47 51 
3 46 181 51 
3 183 46 51 
3 45 185 51 
3 168 221 6 
3 13 51 216 
3 14 221 217 
3 217 221 168 
3 221 219 220 
3 51 218 219 
3 51 219 221 
3 12 223 2 
3 3 225 226 
3 3 226 128 
3 226 82 224 
3 83 67 82 
3 174 82 226 
3 175 174 226 
3 176 175 226 
3 177 176 226 
3 225 177 226 
3 128 226 127 
3 127 226 126 
3 126 226 125 
3 125 226 10 
3 10 226 223 
3 10 223 11 
3 11 223 12 
3 8 53 0 
3 229 41 57 
3 194 229 228 
3 9 54 53 
3 9 53 144 
3 144 53 143 
3 141 227 53 
3 141 53 140 
3 140 53 8 
3 100 99 58 
3 184 100 58 
3 232 184 58 
3 182 232 61 
3 32 58 1 
3 230 58 200 
3 200 58 201 
3 201 58 30 
3 30 58 31 
3 31 58 32 
3 5 101 61 
3 5 61 233 
3 99 25 58 
3 59 56 240 
3 59 240 239 
3 59 238 235 
3 34 241 4 
3 118 238 59 
3 96 118 59 
3 98 97 59 
3 98 59 55 
3 135 59 33 
3 33 59 241 
3 59 239 241 
3 57 62 53 
3 59 60 55 
