ply
format ascii 1.0
comment VCGLIB generated
element vertex 290
property float x
property float y
property float z
property float nx
property float ny
property float nz
element face 576
property list uchar int vertex_indices
end_header
-0.066809 0.02767 0.081032 -0.192292 0.08681 0.977491 
-0.070924 -0.01411 0.081032 -0.226867 -0.0451603 0.972878 
-0.066809 -0.02767 0.081032 -0.41085 -0.155554 0.898335 
0.081032 0.070924 -0.01411 0.999637 0.02644 -0.00517039 
0.081031 0.026907 0.066906 0.957614 0.121907 0.260988 
0.080455 -0.014372 0.071202 0.723271 -0.136752 0.676889 
0.081032 -0.072317 0 0.999798 -0.0200953 -0.000240891 
0.060118 0.040176 -0.081032 0.147743 0.0990634 -0.984052 
0.070998 0.013385 -0.080884 0.497062 0.120146 -0.859357 
0.072221 -0.00056 -0.080909 0.609873 0.0118731 -0.79241 
0.070773 -0.014399 -0.080891 0.668318 -0.162343 -0.725945 
-0.081032 0.02767 -0.066809 -0.998439 0.0234576 -0.0506892 
-0.081032 0 -0.072317 -0.940153 0.00971132 -0.340613 
-0.080967 -0.014403 -0.070698 -0.796148 -0.106476 -0.595661 
-0.080281 -0.027794 -0.067253 -0.699345 -0.277335 -0.658788 
-0.040176 0.081032 -0.060118 -0.019066 0.999353 -0.030491 
0.051127 0.081032 -0.051127 0.257984 0.934356 -0.245811 
0.040176 0.081032 -0.060118 0.142379 0.967733 -0.207899 
0.01411 0.081032 -0.070924 0.0443786 0.977791 -0.204831 
-0.013361 -0.081031 -0.070859 -0.0545382 -0.965462 -0.254772 
0 -0.081032 -0.072317 0.00639917 -0.994697 -0.102647 
-0.014403 -0.081032 -0.03095 -0.00441613 -0.999956 -0.00826347 
-0.02767 -0.066809 0.081032 -0.0144704 -0.0313824 0.999403 
-0.01411 -0.070924 0.081032 -0.157083 -0.674107 0.721737 
0.039859 -0.060321 -0.080854 0.378171 -0.553046 -0.742379 
-0.01411 -0.070924 -0.081032 -0.0196788 -0.101243 -0.994667 
-0.00056 -0.072221 -0.080909 0.00110349 -0.284665 -0.958627 
-0.027813 -0.081026 0.066515 -0.107664 -0.954922 0.276646 
0.039798 0.081032 0.030474 0 1 0 
0.001272 0.081032 0.001903 0 1 0 
-0.060118 0.081032 0.040176 -0.23978 0.959196 0.149828 
0.072317 0.081032 0 0.109484 0.993987 0.00177803 
0.027158 0.081032 -0.024134 0 1 0 
-0.081032 0.000818 0.000167 -1 0 0 
-0.081029 0.070861 0.013362 -0.969782 0.236957 0.0580891 
-0.081025 0.066913 0.026908 -0.969907 0.221295 0.101531 
-0.081031 0.013797 0.039971 -1 9.82664e-06 -0.000284554 
0.081032 0.025532 -0.030337 1 0 0 
-0.070863 0.081027 -0.013362 -0.44506 0.890308 -0.0963002 
-0.005078 -0.081031 -0.020222 0.00258296 -0.99996 0.0085365 
0.051127 -0.081032 -0.051127 0.200663 -0.956125 -0.213445 
-0.040176 -0.081032 -0.060118 -0.387382 -0.742213 -0.546859 
-0.02767 -0.081032 -0.066809 -0.0906947 -0.97436 -0.205905 
0.006739 -0.081032 -0.007788 -0.00058928 -0.999982 -0.00598503 
0.070924 -0.081032 -0.01411 0.0942553 -0.995283 -0.0229704 
0.072323 -0.080752 0 0.686238 -0.727377 -0.000579321 
-0.007024 -0.080916 -0.012611 0.00148945 -0.999998 -0.00149583 
0.081032 -0.060118 0.040176 0.787768 -0.49881 0.361399 
0.081029 -0.066909 0.026907 0.745174 -0.603812 0.283067 
-0.081032 -0.051127 -0.051127 -0.627236 -0.537251 -0.563858 
-0.081032 -0.060118 -0.040176 -0.742213 -0.546859 -0.387382 
-0.081032 -0.050438 -0.008506 -0.999993 -0.00223039 0.00313425 
0.081032 -0.051127 0.051127 0.829068 -0.379872 0.410297 
0.062082 -0.062759 0.060365 0.59341 -0.595923 0.541055 
-0.051127 0.081032 0.051127 -0.222543 0.952527 0.207765 
0.05116 -0.066177 0.066177 0.516333 -0.595401 0.615546 
0.039982 -0.070438 0.070438 0.427641 -0.636037 0.642324 
0.040176 -0.060118 0.081032 0.341117 -0.542644 0.767578 
0.02767 -0.066809 0.081032 0.0384271 -0.094574 0.994776 
-0.039847 -0.08102 0.059998 -0.273203 -0.868509 0.413586 
-0.05116 -0.066177 0.066177 -0.513922 -0.600217 0.612882 
-0.040176 -0.060118 0.081032 -0.43023 -0.622414 0.653837 
-0.081032 -0.059903 0.040439 -0.629205 -0.64874 0.428061 
-0.066511 -0.081031 -0.027813 -0.610883 -0.749881 -0.253971 
-0.080738 -0.071134 -0.013409 -0.909496 -0.404219 -0.097082 
-0.081032 -0.066809 -0.02767 -0.961222 -0.253702 -0.108112 
-0.070438 -0.070438 -0.039982 -0.638962 -0.642978 -0.422264 
-0.066177 -0.05116 0.066177 -0.598893 -0.5286 0.60159 
-0.070438 -0.039982 0.070438 -0.635267 -0.435811 0.637577 
-0.060118 -0.040176 0.081032 -0.469665 -0.28998 0.833862 
-0.080629 -0.026951 0.067283 -0.819899 -0.240042 0.519755 
-0.080737 -0.013409 0.071136 -0.88703 -0.102372 0.45022 
-0.081029 0.014407 0.070637 -0.974102 0.048421 0.220862 
-0.080654 0.027803 0.066883 -0.972963 0.0895643 0.212888 
-0.070924 0.01411 0.081032 -0.220118 0.0528906 0.974038 
-0.060118 0.040176 0.081032 -0.143334 0.101535 0.984452 
-0.051127 0.051127 0.081032 -0.16898 0.177348 0.969533 
-0.08103 0.060159 0.039843 -0.886343 0.377572 0.268021 
-0.066809 0.081032 0.02767 -0.230202 0.969237 0.0871048 
-0.070924 0.081032 0.01411 -0.234018 0.971391 0.0404283 
-0.072317 0.081032 0 -0.209522 0.977804 -0.000643157 
-0.070438 0.070438 -0.039982 -0.642938 0.63876 -0.42263 
-0.066809 0.081032 -0.02767 -0.494005 0.841818 -0.21749 
-0.060118 0.081032 -0.040176 -0.546859 0.742213 -0.387382 
-0.051127 0.081032 -0.051127 -0.530161 0.632584 -0.564594 
0.051127 0.081032 0.051127 0.521879 0.674749 0.521879 
0.039982 0.070438 0.070438 0.427641 0.642324 0.636037 
0.040176 0.081032 0.060118 0.0630124 0.992966 0.100239 
0.02767 0.081032 0.066809 0.0250147 0.997864 0.0603398 
-0.01411 0.081032 0.070924 -0.0229405 0.994989 0.0973181 
-0.01411 0.070924 0.081032 -0.046 0.227689 0.972647 
-0.05116 0.066177 0.066177 -0.5286 0.598893 0.60159 
0.066177 0.066177 0.05116 0.59583 0.616225 0.515027 
0.070438 0.070438 0.039982 0.641107 0.640832 0.422276 
0.071428 0.080427 0.013459 0.680118 0.718235 0.146896 
0.080527 0.072592 0.000507 0.731025 0.682351 0.000234483 
0.080229 0.067657 -0.026995 0.69265 0.658845 -0.293529 
0.070924 0.081032 -0.01411 0.167955 0.985182 -0.0347528 
0.081032 0.060118 -0.040176 0.736831 0.557805 -0.382011 
0.066177 0.066177 -0.05116 0.598893 0.60159 -0.5286 
0.039982 0.070438 -0.070438 0.435877 0.635243 -0.637556 
0.051127 0.051127 -0.081032 0.503854 0.526335 -0.684911 
0.026995 0.080229 -0.067657 0.291922 0.691905 -0.66034 
0.067182 0.026939 -0.080737 0.45209 0.208528 -0.867255 
0.081032 0.02767 -0.066809 0.93394 0.126514 -0.334291 
0.081032 0.01411 -0.070924 0.998239 0.0077591 -0.0588086 
0.066177 -0.05116 -0.066177 0.594574 -0.518985 -0.614115 
0.080982 -0.039847 -0.060203 0.867296 -0.288164 -0.405905 
0.081032 -0.051127 -0.051127 0.799042 -0.436788 -0.413218 
0.081032 -0.060118 -0.040176 0.785709 -0.524525 -0.327924 
0.081032 -0.066809 -0.02767 0.790799 -0.567393 -0.22957 
0.040176 -0.081032 -0.060118 0.148855 -0.960133 -0.236617 
0.014397 -0.080858 -0.070805 0.0295026 -0.990362 -0.135328 
-0.039982 -0.070438 -0.070438 -0.422771 -0.638685 -0.64292 
-0.027794 -0.067253 -0.080281 -0.275563 -0.663917 -0.695183 
-0.05116 -0.066177 -0.066177 -0.515055 -0.613099 -0.599023 
-0.081032 -0.040176 -0.060118 -0.999061 -0.023327 -0.0365098 
-0.070438 -0.039982 -0.070438 -0.64292 -0.422771 -0.638685 
-0.070773 0.014399 -0.080891 -0.091274 0.0117789 -0.995756 
-0.081032 0.01411 -0.070924 -0.718065 0.162901 -0.676643 
-0.066511 0.027813 -0.081031 -0.111675 0.0387063 -0.992991 
-0.081032 0.040176 -0.060118 -0.653828 0.430225 -0.622428 
0.066177 -0.05116 0.066177 0.598318 -0.517096 0.612069 
0.081032 -0.040176 0.060118 0.950859 -0.164782 0.262134 
0.066177 0.05116 0.066177 0.59583 0.515027 0.616225 
0.081032 0.040176 0.060118 0.958341 0.163341 0.234312 
-0.040176 -0.060118 -0.081032 -0.0199072 -0.0310019 -0.999321 
0.01411 -0.070924 -0.081032 0.0716424 -0.31837 -0.945256 
0.02767 -0.066809 -0.081032 0.1551 -0.361218 -0.919492 
0.027807 -0.0808 -0.066739 0.0872685 -0.97328 -0.212391 
0.051127 -0.051127 -0.081032 0.534502 -0.502981 -0.679204 
0.05116 -0.066177 -0.066177 0.533389 -0.598121 -0.598121 
-0.060118 -0.081032 -0.040176 -0.163945 -0.980522 -0.108165 
-0.070924 -0.081032 -0.01411 -0.674042 -0.729641 -0.115286 
-0.081029 -0.072105 0.000577 -0.933811 -0.357581 -0.0115236 
-0.080751 -0.070911 0.01439 -0.997809 -0.0651726 0.0113504 
-0.070924 -0.081032 0.01411 -0.676521 -0.71818 0.162903 
-0.066809 -0.081032 0.02767 -0.591447 -0.76089 0.266903 
-0.070438 -0.070438 0.039982 -0.643408 -0.638624 0.42212 
-0.080942 -0.066599 0.027811 -0.703627 -0.654544 0.276554 
-0.070924 -0.01411 -0.081032 -0.0549487 -0.0108481 -0.99843 
-0.066809 -0.02767 -0.081032 -0.498065 -0.225001 -0.83744 
-0.060118 -0.040176 -0.081032 -0.546859 -0.387382 -0.742213 
-0.051127 -0.051127 -0.081032 -0.534393 -0.558236 -0.634662 
0.000569 -0.072158 0.080975 -0.0140871 -0.607734 0.794016 
0.009283 -0.081036 0.072046 0.0434794 -0.946675 0.319244 
0.014407 -0.070649 0.081017 0.109178 -0.46775 0.877092 
0.02754 -0.073759 0.073759 0.276459 -0.682291 0.676793 
-0.070438 0.039982 0.070438 -0.64296 0.422503 0.638823 
-0.081032 -0 0.072317 -0.975843 -0.00632624 0.218381 
-0.072317 0 0.081032 -0.284323 0.0013439 0.958728 
-0.081032 -0.051127 0.051127 -0.627347 -0.563627 0.537365 
0.067138 -0.080784 -0.026934 0.201207 -0.975638 -0.0874449 
0.080824 -0.070839 -0.014395 0.719175 -0.680265 -0.141514 
0.060159 -0.08103 -0.039843 0.287962 -0.936994 -0.197788 
0.060118 -0.081032 0.040176 0.0858121 -0.994904 0.0529321 
0.070438 -0.070438 0.039982 0.629439 -0.631481 0.452813 
0.070924 -0.081032 0.01411 0.0636585 -0.997903 0.0117336 
0.081029 -0.070707 0.013856 0.721006 -0.678272 0.141768 
0.060118 0.040176 0.081032 0.21984 0.135599 0.966066 
0.070438 0.039982 0.070438 0.635297 0.435728 0.637604 
0.081032 0.013361 0.070858 0.97393 0.047445 0.22183 
0.066809 0.02767 0.081032 0.186524 0.0705817 0.979912 
0.070924 0.01411 0.081032 0.116618 0.023214 0.992906 
0.072317 0 0.081032 0.154987 -0.000458919 0.987916 
0.070924 -0.01411 0.081032 0.130343 -0.0301784 0.99101 
0.073759 -0.02754 0.073759 0.676548 -0.286361 0.67844 
0.060118 -0.040176 0.081032 0.138169 -0.097876 0.985561 
0.070438 -0.039982 0.070438 0.642324 -0.427641 0.636037 
0.051127 -0.051127 0.081032 0.537251 -0.563858 0.627236 
0.060118 -0.040176 -0.081032 0.634505 -0.396435 -0.663509 
0.081026 -0.026907 -0.066911 0.934963 -0.13898 -0.326386 
0.070438 0.039982 -0.070438 0.637583 0.435791 -0.635275 
-0.026929 0.067095 -0.08083 -0.0658763 0.153845 -0.985897 
-0.02767 0.081032 -0.066809 -0.251514 0.703664 -0.664528 
0 0.081032 -0.072317 0.0177679 0.880328 -0.474032 
-0.01411 0.081032 -0.070924 -0.0968677 0.802463 -0.588786 
0.014399 0.070773 -0.08089 0.0359004 0.187182 -0.981669 
0.060118 0.081032 -0.040176 0.168402 0.980209 -0.104075 
0.066809 0.081032 -0.02767 0.124243 0.990914 -0.0515067 
0.070438 0.070438 -0.039982 0.635243 0.637556 -0.435877 
0.060118 0.081032 0.040176 0.608552 0.68128 0.406843 
0.066809 0.081032 0.02767 0.0875539 0.995439 0.037894 
0.081013 0.066529 0.027812 0.815099 0.534785 0.222753 
-0.081032 0.060118 -0.040176 -0.951131 0.259299 -0.167672 
-0.081032 0.051127 -0.051127 -0.683682 0.528348 -0.503416 
-0.081032 0.072317 0 -0.998168 0.0605002 3.58466e-05 
-0.066177 0.066177 0.05116 -0.594571 0.614109 0.518994 
-0.039982 0.070438 0.070438 -0.427641 0.636037 0.642324 
-0.02767 0.066809 0.081032 -0.0288377 0.0695616 0.997161 
-0.040176 0.060118 0.081032 -0.0774481 0.123204 0.989355 
-0.02754 0.073759 0.073759 -0.287924 0.679677 0.67464 
0 0.072317 0.081032 0.00446458 0.123204 0.992371 
0.01411 0.081032 0.070924 0.0416222 0.977662 0.20602 
0 0.081032 0.072317 -0.00339764 0.995589 0.0937608 
0.01411 0.070924 0.081032 0.0391046 0.165889 0.985369 
0.02767 0.066809 0.081032 0.0468313 0.101868 0.993695 
0.02754 0.073759 0.073759 0.287924 0.67464 0.679677 
-0.051127 -0.081032 -0.051127 -0.563858 -0.627236 -0.537251 
-0.066177 -0.066177 -0.05116 -0.598893 -0.60159 -0.5286 
0.05116 0.066177 0.066177 0.5286 0.60159 0.598893 
0.061722 0.061722 0.061722 0.580277 0.575881 0.575881 
0.081032 0.051127 -0.051127 0.754713 0.452559 -0.474972 
0.066177 0.05116 -0.066177 0.616225 0.515027 -0.59583 
-0.061722 -0.061722 0.061722 -0.575881 -0.580277 0.575881 
-0.066177 -0.066177 0.05116 -0.616225 -0.59583 0.515027 
-0.061722 0.061722 -0.061722 -0.575881 0.580277 -0.575881 
-0.066177 0.05116 -0.066177 -0.600134 0.526273 -0.602392 
-0.051127 -0.051127 0.081032 -0.528348 -0.503416 0.683682 
0.061722 -0.061722 -0.061722 0.580277 -0.575881 -0.575881 
0.051127 -0.081032 0.051127 0.526839 -0.685616 0.502366 
0.066177 -0.066177 -0.05116 0.594571 -0.614109 -0.518994 
-0.061722 -0.061722 -0.061722 -0.575881 -0.575881 -0.580277 
-0.066177 -0.05116 -0.066177 -0.616225 -0.515027 -0.59583 
-0.05116 0.066177 -0.066177 -0.518994 0.594571 -0.614109 
-0.066177 0.066177 -0.05116 -0.616225 0.59583 -0.515027 
-0.081032 0.051127 0.051127 -0.904602 0.295789 0.306928 
-0.066177 0.05116 0.066177 -0.599023 0.515055 0.613099 
-0.061722 0.061722 0.061722 -0.580277 0.575881 0.575881 
0.081032 0.051127 0.051127 0.882372 0.332731 0.332731 
0.05116 0.066177 -0.066177 0.515055 0.613099 -0.599023 
0.061722 0.061722 -0.061722 0.575881 0.575881 -0.580277 
-0.033454 -0.008103 0.081032 0 0 1 
0.051127 0.051127 0.081032 0.190117 0.181146 0.964905 
0.010593 0.004774 0.081032 0 0 1 
0.018864 0.002838 0.081032 0 0 1 
-0.02767 0.003772 0.081032 0 0 1 
-0.020064 0.010443 0.081032 0 0 1 
-0.012463 0.009649 0.081032 0 0 1 
-0.005194 0.007284 0.081032 0 0 1 
0.040176 0.060118 0.081032 0.131749 0.185987 0.973679 
0.02547 -0.002049 0.081032 0 0 1 
0.029842 -0.009297 0.081032 0 0 1 
0.034473 -0.015806 0.081032 0 0 1 
0.066809 -0.02767 0.081032 0.135657 -0.0623654 0.988791 
0.081032 0.040176 -0.060118 0.89569 0.233569 -0.378398 
0.081032 0.060118 0.040176 0.890553 0.372294 0.261368 
0.081032 0.070924 0.01411 0.835306 0.539672 0.104965 
0.081033 -0.009283 -0.072049 0.987006 -0.0172275 -0.15976 
0.081032 -0.02767 0.066809 0.999073 -0.0157112 0.0400869 
0.081032 0.026485 0.040042 1 0 0 
0.081032 0.018197 0.009135 1 0 0 
-0.051127 0.051127 -0.081032 -0.11386 0.113276 -0.987018 
-0.039843 0.06016 -0.081029 -0.120307 0.179122 -0.976443 
0.066809 -0.02767 -0.081032 0.0116163 -0.00417711 -0.999924 
0.040176 0.060118 -0.081032 0.390304 0.631545 -0.669936 
0.02767 0.066809 -0.081032 0.0350013 0.0933213 -0.995021 
0.00056 0.072221 -0.080909 -0.00399973 0.120278 -0.992732 
-0.013385 0.070997 -0.080884 -0.0325016 0.126566 -0.991426 
-0.05999 0.039846 -0.081028 -0.168015 0.111 -0.979515 
-0.072221 0.00056 -0.080909 -0.0896812 0.00119385 -0.99597 
-0.080484 0.067052 -0.027799 -0.695184 0.663912 -0.275573 
-0.081032 0.070924 -0.01411 -0.97775 0.204936 -0.0447923 
-0.081032 0.040176 0.060118 -0.963077 0.139814 0.230075 
-0.040176 0.081032 0.060118 -0.0898428 0.987848 0.126829 
-0.005022 0.081032 0.005649 0 1 0 
-0.011858 0.081032 0.008239 0 1 0 
-0.02767 0.081032 0.066809 -0.0423132 0.994856 0.0920397 
0.002189 -0.081032 0.007339 0 -1 0 
0.00774 -0.081032 0.015922 0 -1 0 
-0.005299 -0.081032 0.020331 0 -1 0 
0.040176 -0.081032 0.060118 0.434087 -0.660345 0.612791 
-0.072317 -0.081032 0 -0.023138 -0.999732 0.000939941 
-0.060118 -0.081032 0.040176 -0.456986 -0.828474 0.323719 
-0.014407 -0.081028 0.070638 -0.0235197 -0.984605 0.173204 
0.02767 -0.081032 0.066809 0.0642652 -0.987079 0.146784 
-0.001264 -0.081032 0.047476 4.1072e-05 -1 -6.12991e-05 
-0.081032 -0.019763 -0.009004 -1 0 0 
-0.051127 -0.081032 0.051127 -0.384674 -0.836883 0.389427 
0.081032 -0.015123 -0.023442 1 0 0 
0.081032 0.011562 0.03461 1 0 0 
0.081032 -0.02399 0.037595 1 0 0 
0.081032 0.000416 -0.007165 1 0 0 
0.081032 -0.031457 0.013458 1 0 0 
0.081032 0 0.072317 0.98898 -0.00299233 0.14802 
0.018569 0.081032 -0.011914 0 1 0 
-0.081032 -0.05978 0.040357 -0.999768 -0.0101752 0.0189801 
-0.081032 -0.040176 0.060118 -0.751049 -0.375695 0.542935 
-0.081032 -0.059874 0.04042 -0.997502 0.0499812 -0.0499161 
-0.081029 -0.059845 0.0404 -0.999158 -0.0180151 0.0368631 
-0.081032 -0.05974 0.040331 -0.999975 0.00336004 -0.00627703 
-0.08103 -0.059813 0.040379 -0.999144 -0.0237439 0.0338779 
-0.08103 0.01582 0.02463 -1 7.76105e-05 0.000277753 
-0.081032 0.003786 0.02079 -0.999995 -0.00208904 0.00218245 
-0.081028 0.011135 0.032734 -1 0.000116594 -4.31567e-05 
-0.081032 0.006082 0.046693 -0.999993 -0.0020863 0.00321441 
0.066809 -0.081032 0.02767 0.226234 -0.97029 0.0857581 
-0.011948 -0.081035 0.053301 -0.000134274 -1 9.65462e-05 
-0.007356 -0.081032 -0.026905 2.8341e-05 -1 6.84282e-05 
0.003022 0.007297 0.081032 0 0 1 
3 22 76 75 
3 22 75 0 
3 22 0 74 
3 22 74 150 
3 22 150 1 
3 22 1 2 
3 22 2 69 
3 3 125 4 
3 3 4 161 
3 3 161 240 
3 274 5 239 
3 6 123 52 
3 7 103 244 
3 244 103 8 
3 244 8 9 
3 244 9 10 
3 244 170 130 
3 11 119 12 
3 11 12 116 
3 116 12 13 
3 116 13 14 
3 15 16 17 
3 17 102 18 
3 17 18 15 
3 15 18 175 
3 15 175 176 
3 15 176 174 
3 265 155 210 
3 262 42 19 
3 19 20 262 
3 262 20 112 
3 262 112 129 
3 262 129 21 
3 111 40 21 
3 167 22 58 
3 167 58 57 
3 22 146 58 
3 22 144 146 
3 22 23 144 
3 244 130 24 
3 126 244 25 
3 126 25 114 
3 244 26 25 
3 244 127 26 
3 244 128 127 
3 244 24 128 
3 27 262 264 
3 59 268 262 
3 59 262 27 
3 87 182 28 
3 87 29 88 
3 15 30 54 
3 31 32 182 
3 72 280 276 
3 72 276 149 
3 186 33 283 
3 77 36 216 
3 246 101 7 
3 35 34 282 
3 35 36 77 
3 34 186 282 
3 186 252 11 
3 252 184 11 
3 238 105 6 
3 3 272 37 
3 104 3 105 
3 6 109 108 
3 15 78 30 
3 15 79 78 
3 15 80 79 
3 15 38 80 
3 15 82 38 
3 15 83 82 
3 15 84 83 
3 154 39 40 
3 132 198 41 
3 132 41 42 
3 157 43 44 
3 157 44 45 
3 262 46 43 
3 262 39 46 
3 6 52 47 
3 6 110 109 
3 6 153 110 
3 158 6 48 
3 6 47 48 
3 116 49 50 
3 11 185 121 
3 116 50 65 
3 3 219 125 
3 167 57 169 
3 22 69 208 
3 22 208 61 
3 45 6 158 
3 156 48 47 
3 53 156 47 
3 53 47 52 
3 122 169 55 
3 122 55 53 
3 187 218 91 
3 187 91 54 
3 56 55 169 
3 56 169 57 
3 147 56 57 
3 147 57 58 
3 146 147 58 
3 264 144 23 
3 27 264 23 
3 27 23 22 
3 59 27 22 
3 59 22 61 
3 60 59 61 
3 60 61 208 
3 205 151 138 
3 138 151 62 
3 63 64 65 
3 66 63 65 
3 66 65 50 
3 199 66 50 
3 199 50 49 
3 68 67 208 
3 68 208 69 
3 70 68 69 
3 70 69 2 
3 71 70 2 
3 71 2 1 
3 150 71 1 
3 72 150 74 
3 73 72 74 
3 73 74 0 
3 148 73 0 
3 148 0 75 
3 217 148 75 
3 217 75 76 
3 77 187 54 
3 77 54 30 
3 35 77 30 
3 35 30 78 
3 34 35 78 
3 34 78 79 
3 186 34 79 
3 186 79 80 
3 38 186 80 
3 251 38 82 
3 81 251 82 
3 81 82 83 
3 215 81 83 
3 215 83 84 
3 86 200 85 
3 86 85 87 
3 197 86 87 
3 197 87 88 
3 193 197 88 
3 90 194 89 
3 191 90 89 
3 191 89 257 
3 188 191 257 
3 188 257 254 
3 91 188 254 
3 91 254 54 
3 92 219 236 
3 92 236 93 
3 183 93 236 
3 94 183 237 
3 95 94 237 
3 97 95 3 
3 96 97 3 
3 180 96 98 
3 99 180 98 
3 99 98 202 
3 100 220 101 
3 100 101 245 
3 102 100 245 
3 102 245 246 
3 177 102 246 
3 214 243 242 
3 172 203 202 
3 172 202 235 
3 103 172 235 
3 103 235 104 
3 8 103 104 
3 8 104 105 
3 9 8 105 
3 9 105 238 
3 10 9 238 
3 171 10 238 
3 106 107 108 
3 154 211 108 
3 154 108 109 
3 152 154 109 
3 152 109 110 
3 153 152 110 
3 45 153 6 
3 24 131 40 
3 24 40 111 
3 129 24 111 
3 26 112 20 
3 19 26 20 
3 114 19 42 
3 113 114 42 
3 113 42 41 
3 115 113 41 
3 115 41 198 
3 117 213 49 
3 117 49 116 
3 14 117 116 
3 250 13 12 
3 118 250 12 
3 118 12 119 
3 120 118 119 
3 120 119 11 
3 249 120 11 
3 249 11 121 
3 207 249 121 
3 207 121 185 
3 168 122 52 
3 168 52 123 
3 166 168 123 
3 166 123 239 
3 5 166 239 
3 164 5 274 
3 161 164 274 
3 160 4 125 
3 124 160 125 
3 124 125 219 
3 143 126 113 
3 143 113 115 
3 126 114 113 
3 114 25 19 
3 25 26 19 
3 26 127 112 
3 127 128 129 
3 127 129 112 
3 128 24 129 
3 24 130 131 
3 198 132 66 
3 198 66 199 
3 132 63 66 
3 63 133 64 
3 133 262 134 
3 133 134 64 
3 262 136 135 
3 262 135 134 
3 136 137 139 
3 136 139 135 
3 137 263 138 
3 137 138 139 
3 263 268 205 
3 263 205 138 
3 242 249 207 
3 250 140 13 
3 140 141 14 
3 140 14 13 
3 141 142 117 
3 141 117 14 
3 142 143 213 
3 142 213 117 
3 268 59 60 
3 264 145 144 
3 145 146 144 
3 145 265 147 
3 145 147 146 
3 265 261 56 
3 265 56 147 
3 261 210 55 
3 261 55 56 
3 216 253 148 
3 216 148 217 
3 253 73 148 
3 72 149 150 
3 149 71 150 
3 70 277 68 
3 277 151 67 
3 277 67 68 
3 45 44 153 
3 44 152 153 
3 154 40 211 
3 210 155 156 
3 210 156 53 
3 155 286 48 
3 155 48 156 
3 286 157 158 
3 286 158 48 
3 45 158 157 
3 223 159 160 
3 223 160 124 
3 159 162 4 
3 159 4 160 
3 162 163 161 
3 162 161 4 
3 163 164 161 
3 164 165 5 
3 165 234 166 
3 165 166 5 
3 234 167 168 
3 234 168 166 
3 167 169 122 
3 167 122 168 
3 130 170 107 
3 130 107 106 
3 170 244 171 
3 170 171 107 
3 244 10 171 
3 103 7 172 
3 7 101 203 
3 7 203 172 
3 84 15 243 
3 84 243 214 
3 15 174 173 
3 15 173 243 
3 174 176 248 
3 174 248 173 
3 176 175 247 
3 176 247 248 
3 175 18 177 
3 175 177 247 
3 18 102 177 
3 102 17 100 
3 17 16 220 
3 17 220 100 
3 16 178 180 
3 16 180 99 
3 178 179 96 
3 178 96 180 
3 179 97 96 
3 97 31 95 
3 31 94 95 
3 94 182 183 
3 182 181 93 
3 182 93 183 
3 85 92 93 
3 85 93 181 
3 185 184 81 
3 185 81 215 
3 184 251 81 
3 251 252 38 
3 252 186 38 
3 77 216 187 
3 76 190 188 
3 76 188 91 
3 190 189 191 
3 190 191 188 
3 189 90 191 
3 90 192 194 
3 192 195 193 
3 192 193 194 
3 195 196 197 
3 195 197 193 
3 196 230 86 
3 196 86 197 
3 230 223 200 
3 230 200 86 
3 211 40 131 
3 211 131 209 
3 115 198 199 
3 115 199 212 
3 214 242 207 
3 214 207 206 
3 200 223 124 
3 200 124 201 
3 99 202 203 
3 99 203 221 
3 205 204 67 
3 67 151 205 
3 92 85 200 
3 92 200 201 
3 220 16 99 
3 220 99 221 
3 215 206 207 
3 215 207 185 
3 213 212 199 
3 213 199 49 
3 60 208 67 
3 60 67 204 
3 106 209 131 
3 106 131 130 
3 52 122 53 
3 210 53 55 
3 108 211 209 
3 108 209 106 
3 143 115 212 
3 143 212 213 
3 84 214 206 
3 84 206 215 
3 217 76 91 
3 217 91 218 
3 216 217 218 
3 216 218 187 
3 219 92 201 
3 219 201 124 
3 101 220 221 
3 101 221 203 
3 268 60 204 
3 268 204 205 
3 190 76 22 
3 190 22 222 
3 223 224 225 
3 189 222 226 
3 90 189 227 
3 192 227 228 
3 195 192 229 
3 196 195 229 
3 230 196 224 
3 223 225 231 
3 159 231 162 
3 162 232 233 
3 163 233 22 
3 163 22 164 
3 164 22 165 
3 165 22 234 
3 234 22 167 
3 202 98 3 
3 202 3 235 
3 236 219 3 
3 183 236 3 
3 237 183 3 
3 95 237 3 
3 98 96 3 
3 107 6 108 
3 235 3 104 
3 238 6 171 
3 171 6 107 
3 6 239 123 
3 3 240 270 
3 3 270 241 
3 142 126 143 
3 242 243 244 
3 242 244 249 
3 244 246 7 
3 245 101 246 
3 177 246 244 
3 247 177 244 
3 248 247 244 
3 173 248 244 
3 243 173 244 
3 249 244 120 
3 120 244 118 
3 118 244 250 
3 250 244 140 
3 140 244 126 
3 140 126 141 
3 141 126 142 
3 184 185 11 
3 251 184 252 
3 73 280 72 
3 71 149 276 
3 71 276 281 
3 71 281 279 
3 71 279 70 
3 70 279 278 
3 70 278 277 
3 179 178 15 
3 97 179 15 
3 31 97 32 
3 94 31 182 
3 254 15 54 
3 88 255 256 
3 193 256 194 
3 194 15 89 
3 89 15 257 
3 257 15 254 
3 85 181 182 
3 85 182 87 
3 178 16 15 
3 262 258 259 
3 262 259 260 
3 262 132 42 
3 261 265 210 
3 63 132 262 
3 133 63 262 
3 137 136 262 
3 137 262 263 
3 264 287 145 
3 145 266 265 
3 262 260 266 
3 11 116 267 
3 262 268 263 
3 37 272 269 
3 6 269 272 
3 241 270 271 
3 271 270 239 
3 239 6 271 
3 271 272 241 
3 241 272 3 
3 272 273 6 
3 269 6 105 
3 105 3 37 
3 37 269 105 
3 6 273 271 
3 273 272 271 
3 270 240 239 
3 239 240 274 
3 240 161 274 
3 182 32 275 
3 275 32 15 
3 29 182 275 
3 275 15 29 
3 88 29 255 
3 255 29 15 
3 256 255 15 
3 256 193 88 
3 32 97 15 
3 194 256 15 
3 28 182 29 
3 29 87 28 
3 11 33 186 
3 151 277 278 
3 151 278 62 
3 285 253 216 
3 282 186 283 
3 282 284 35 
3 36 35 284 
3 216 36 285 
3 267 33 11 
3 65 51 116 
3 51 267 116 
3 266 155 265 
3 155 266 260 
3 259 157 286 
3 157 259 258 
3 43 157 258 
3 258 262 43 
3 260 259 155 
3 155 259 286 
3 287 264 262 
3 43 152 44 
3 152 43 46 
3 266 145 287 
3 287 262 266 
3 46 39 152 
3 152 39 154 
3 21 129 111 
3 288 39 262 
3 21 288 262 
3 40 39 288 
3 21 40 288 
3 232 22 233 
3 233 163 162 
3 224 289 22 
3 289 224 196 
3 228 227 22 
3 227 192 90 
3 225 224 22 
3 224 223 230 
3 225 22 231 
3 231 159 223 
3 229 228 22 
3 228 229 192 
3 226 222 22 
3 222 189 190 
3 162 231 232 
3 232 231 22 
3 229 22 289 
3 289 196 229 
3 227 226 22 
3 226 227 189 
3 139 138 62 
3 284 282 283 
3 51 65 64 
3 51 64 134 
3 285 36 284 
3 51 134 135 
3 283 33 267 
3 73 253 285 
3 283 267 51 
3 283 51 135 
3 285 284 283 
3 285 283 135 
3 280 73 285 
3 280 285 135 
3 280 135 139 
3 276 280 139 
3 281 276 139 
3 279 281 139 
3 278 279 139 
3 62 278 139 
