ply
format ascii 1.0
comment VCGLIB generated
element vertex 66
property float x
property float y
property float z
property float nx
property float ny
property float nz
element face 128
property list uchar int vertex_indices
end_header
-0 -0.006 -0 0 -6.28319 0 
-0 0.006 -0 0 6.28319 0 
-0 -0.006 -0.145 -1.49012e-08 -2.94525 -3.12647 
-0 0.006 -0.145 1.49012e-08 2.94525 -3.12647 
0.028288 -0.006 -0.142214 0.609919 -2.94525 -3.0664 
0.028288 0.006 -0.142214 0.609919 2.94525 -3.0664 
0.055489 -0.006 -0.133963 1.1964 -2.94525 -2.8885 
0.055489 0.006 -0.133963 1.1964 2.94525 -2.8885 
0.080558 -0.006 -0.120564 1.73698 -2.94519 -2.59955 
0.080558 0.006 -0.120564 1.73698 2.94519 -2.59955 
0.10253 -0.006 -0.102531 2.21077 -2.94528 -2.21072 
0.10253 0.006 -0.102531 2.21077 2.94528 -2.21072 
0.120563 -0.006 -0.080558 2.59956 -2.94523 -1.73697 
0.120563 0.006 -0.080558 2.59956 2.94523 -1.73697 
0.133962 -0.006 -0.05549 2.88847 -2.94527 -1.19647 
0.133962 0.006 -0.05549 2.88847 2.94527 -1.19647 
0.142214 -0.006 -0.028289 3.06638 -2.94521 -0.609964 
0.142214 0.006 -0.028289 3.06638 2.94521 -0.609964 
0.145 -0.006 -0 3.12647 -2.94526 5.39422e-06 
0.145 0.006 -0 3.12647 2.94526 5.39422e-06 
0.142214 -0.006 0.028288 3.06638 -2.94522 0.60997 
0.142214 0.006 0.028288 3.06638 2.94522 0.60997 
0.133962 -0.006 0.055489 2.88847 -2.94527 1.19647 
0.133962 0.006 0.055489 2.88847 2.94527 1.19647 
0.120563 -0.006 0.080557 2.59956 -2.94523 1.73697 
0.120563 0.006 0.080557 2.59956 2.94523 1.73697 
0.10253 -0.006 0.10253 2.21077 -2.94528 2.21072 
0.10253 0.006 0.10253 2.21077 2.94528 2.21072 
0.080558 -0.006 0.120563 1.73698 -2.94519 2.59955 
0.080558 0.006 0.120563 1.73698 2.94519 2.59955 
0.055489 -0.006 0.133962 1.1964 -2.94525 2.8885 
0.055489 0.006 0.133962 1.1964 2.94525 2.8885 
0.028288 -0.006 0.142213 0.609974 -2.94528 3.06639 
0.028288 0.006 0.142213 0.609974 2.94528 3.06639 
-0 -0.006 0.145 -7.45058e-09 -2.94518 3.12646 
-0 0.006 0.145 0 2.94518 3.12646 
-0.028288 -0.006 0.142213 -0.609974 -2.94528 3.06639 
-0.028288 0.006 0.142213 -0.609974 2.94528 3.06639 
-0.055489 -0.006 0.133962 -1.1964 -2.94525 2.8885 
-0.055489 0.006 0.133962 -1.1964 2.94525 2.8885 
-0.080558 -0.006 0.120563 -1.73695 -2.94522 2.59957 
-0.080558 0.006 0.120563 -1.73695 2.94522 2.59957 
-0.102531 -0.006 0.10253 -2.21077 -2.94523 2.21071 
-0.102531 0.006 0.10253 -2.21077 2.94523 2.21071 
-0.120563 -0.006 0.080557 -2.59956 -2.94529 1.73698 
-0.120563 0.006 0.080557 -2.59956 2.94529 1.73698 
-0.133963 -0.006 0.055489 -2.88846 -2.9452 1.19647 
-0.133963 0.006 0.055489 -2.88846 2.9452 1.19647 
-0.142214 -0.006 0.028288 -3.0664 -2.94525 0.609914 
-0.142214 0.006 0.028288 -3.0664 2.94525 0.609914 
-0.145 -0.006 -1e-06 -3.12647 -2.94526 -5.39422e-06 
-0.145 0.006 -1e-06 -3.12647 2.94526 -5.39422e-06 
-0.142214 -0.006 -0.028289 -3.0664 -2.94525 -0.609919 
-0.142214 0.006 -0.028289 -3.0664 2.94525 -0.609919 
-0.133963 -0.006 -0.05549 -2.88846 -2.9452 -1.19647 
-0.133963 0.006 -0.05549 -2.88846 2.9452 -1.19647 
-0.120563 -0.006 -0.080558 -2.59953 -2.94526 -1.73702 
-0.120563 0.006 -0.080558 -2.59953 2.94526 -1.73702 
-0.10253 -0.006 -0.102531 -2.21077 -2.94528 -2.21072 
-0.10253 0.006 -0.102531 -2.21077 2.94528 -2.21072 
-0.080558 -0.006 -0.120564 -1.73698 -2.94519 -2.59955 
-0.080558 0.006 -0.120564 -1.73698 2.94519 -2.59955 
-0.055489 -0.006 -0.133963 -1.1964 -2.94525 -2.8885 
-0.055489 0.006 -0.133963 -1.1964 2.94525 -2.8885 
-0.028288 -0.006 -0.142214 -0.609919 -2.94525 -3.0664 
-0.028288 0.006 -0.142214 -0.609919 2.94525 -3.0664 
3 0 2 4 
3 1 5 3 
3 2 3 5 
3 2 5 4 
3 0 4 6 
3 1 7 5 
3 4 5 7 
3 4 7 6 
3 0 6 8 
3 1 9 7 
3 6 7 9 
3 6 9 8 
3 0 8 10 
3 1 11 9 
3 8 9 11 
3 8 11 10 
3 0 10 12 
3 1 13 11 
3 10 11 13 
3 10 13 12 
3 0 12 14 
3 1 15 13 
3 12 13 15 
3 12 15 14 
3 0 14 16 
3 1 17 15 
3 14 15 17 
3 14 17 16 
3 0 16 18 
3 1 19 17 
3 16 17 19 
3 16 19 18 
3 0 18 20 
3 1 21 19 
3 18 19 21 
3 18 21 20 
3 0 20 22 
3 1 23 21 
3 20 21 23 
3 20 23 22 
3 0 22 24 
3 1 25 23 
3 22 23 25 
3 22 25 24 
3 0 24 26 
3 1 27 25 
3 24 25 27 
3 24 27 26 
3 0 26 28 
3 1 29 27 
3 26 27 29 
3 26 29 28 
3 0 28 30 
3 1 31 29 
3 28 29 31 
3 28 31 30 
3 0 30 32 
3 1 33 31 
3 30 31 33 
3 30 33 32 
3 0 32 34 
3 1 35 33 
3 32 33 35 
3 32 35 34 
3 0 34 36 
3 1 37 35 
3 34 35 37 
3 34 37 36 
3 0 36 38 
3 1 39 37 
3 36 37 39 
3 36 39 38 
3 0 38 40 
3 1 41 39 
3 38 39 41 
3 38 41 40 
3 0 40 42 
3 1 43 41 
3 40 41 43 
3 40 43 42 
3 0 42 44 
3 1 45 43 
3 42 43 45 
3 42 45 44 
3 0 44 46 
3 1 47 45 
3 44 45 47 
3 44 47 46 
3 0 46 48 
3 1 49 47 
3 46 47 49 
3 46 49 48 
3 0 48 50 
3 1 51 49 
3 48 49 51 
3 48 51 50 
3 0 50 52 
3 1 53 51 
3 50 51 53 
3 50 53 52 
3 0 52 54 
3 1 55 53 
3 52 53 55 
3 52 55 54 
3 0 54 56 
3 1 57 55 
3 54 55 57 
3 54 57 56 
3 0 56 58 
3 1 59 57 
3 56 57 59 
3 56 59 58 
3 0 58 60 
3 1 61 59 
3 58 59 61 
3 58 61 60 
3 0 60 62 
3 1 63 61 
3 60 61 63 
3 60 63 62 
3 0 62 64 
3 1 65 63 
3 62 63 65 
3 62 65 64 
3 0 64 2 
3 1 3 65 
3 64 65 3 
3 64 3 2 
