ply
format ascii 1.0
comment VCGLIB generated
element vertex 133
property float x
property float y
property float z
property float nx
property float ny
property float nz
element face 262
property list uchar int vertex_indices
end_header
0.133945 0.00449156 0.0554701 0.264188 0.782806 0.113761 
-0.0570232 0.00449156 -0.0302695 1.22029e-08 0.811924 3.85554e-09 
-0.0805473 0.00449156 0.120522 -0.258041 0.712886 0.474988 
0.0402795 0.00449156 0.059326 -1.50447e-08 0.811924 -1.7582e-08 
-0.0374955 -0.00449156 0.0559538 5.46078e-09 -0.811924 -7.31786e-09 
0.0645 0.00449156 -0.0968757 0 0.811924 0 
0.112583 0.00449156 -0.022776 6.61201e-09 0.811924 -8.28057e-10 
-0.021483 0.00449156 0.107554 -8.41932e-09 0.811924 2.10088e-09 
0.112167 0.00449156 -0.000421115 7.54576e-09 0.811924 1.11902e-09 
0.0136743 -0.00449156 -0.0701604 8.42339e-09 -0.811924 1.03278e-08 
0.0282844 -0.00449156 0.142165 0.04543 -0.779975 0.315087 
-0.109778 0.00449156 -0.0222565 -5.92084e-09 0.811924 -1.4016e-09 
0.0282844 0.00449156 -0.142165 0.0818396 0.702972 -0.567615 
-0.0282845 -0.00449156 0.142165 -0.0581814 -0.785185 0.285434 
-0.120548 -0.00449156 0.0805301 -0.201095 -0.791091 0.143077 
-0.0798566 0.00449156 -0.120891 -0.263357 0.729014 -0.419485 
-0.0582162 0.00449156 -0.0894633 1.23605e-09 0.811924 -5.62248e-09 
-0.133945 -0.00449156 -0.0554703 -0.135662 -0.803869 -0.0703616 
-0.10224 0.00449156 0.0419017 -6.93071e-09 0.811924 3.01669e-09 
0.102517 0.00449156 -0.102496 0.231434 0.767155 -0.282836 
0.0805472 0.00449156 -0.120522 0.295447 0.679153 -0.543844 
0.144981 -0.00449156 -7.39479e-08 0.167933 -0.801907 0.00630955 
-0.0616624 0.00449156 0.0918351 0 0.811924 0 
-0.102758 -0.00449156 -0.102203 -0.105695 -0.802743 -0.129784 
0.0763415 -0.00449156 6.38216e-05 -1.59402e-08 -0.811924 -1.86606e-08 
0.0145616 0.00449156 -0.111326 3.73932e-09 0.811924 -4.44082e-09 
-0.00861029 -0.00449156 0.0724849 1.0401e-08 -0.811924 -8.40121e-09 
-0.0776297 0.00449156 0.0771663 0 0.811924 0 
-0.0282845 0.00449156 0.142165 -0.0776515 0.714586 0.538561 
-0.0412084 0.00449156 -0.0999553 0 0.811924 0 
2.16039e-09 0.00449156 -0.14495 -0.0108337 0.766317 -0.379094 
-0.000588911 -0.00449156 0.00013562 1.23678e-09 -0.811924 -1.44529e-09 
0.081363 0.00449156 -0.0817259 0 0.811924 0 
0.142195 0.00449156 -0.0282784 0.531576 0.698116 -0.141906 
-1.42586e-07 -0.00449156 0.14495 -0.00625916 -0.797105 0.218192 
0.120547 0.00449156 -0.0805303 0.430185 0.700694 -0.352848 
-1.42586e-07 0.00449156 0.14495 0.0102528 0.771519 0.357409 
0.0554818 -0.00449156 0.133917 0.0702692 -0.795951 0.213721 
0.00524974 0.00449156 -0.067169 -8.42282e-09 0.811924 2.3611e-08 
0.0762632 0.00449156 0.0757659 0 0.811924 0 
-0.120548 0.00449156 0.0805301 -0.420897 0.705803 0.345233 
-0.142196 0.00449156 0.0282784 -0.493111 0.715078 0.131636 
0.0748299 -0.00449156 -0.0148727 -8.08694e-09 -0.811924 2.33962e-09 
-0.028123 0.00449156 -0.142181 -0.114385 0.703391 -0.560091 
-0.133945 0.00449156 0.0554701 -0.280394 0.776934 0.145427 
2.16039e-09 -0.00449156 -0.14495 0.00598066 -0.798405 -0.208482 
0.102517 -0.00449156 -0.102496 0.135115 -0.798923 -0.144795 
0.0151745 -0.00449156 0.0776769 1.30908e-10 -0.811924 -8.31555e-09 
-0.102517 0.00449156 0.102495 -0.206033 0.776655 0.251792 
-0.120547 0.00449156 -0.0805304 -0.394086 0.728675 -0.280387 
-0.0805473 -0.00449156 0.120522 -0.139532 -0.789454 0.22279 
0.0633585 0.00449156 -0.0269119 -1.4768e-08 0.811924 9.84179e-10 
0.0497439 0.00449156 0.0487663 -1.85687e-08 0.811924 -1.55544e-10 
0.00594777 0.00449156 0.0747538 -5.06806e-09 0.811924 -2.42764e-08 
-0.0402469 0.00449156 0.0593043 1.29212e-08 0.811924 -1.85764e-08 
-0.055482 0.00449156 0.133917 -0.105471 0.775474 0.320786 
-0.0781965 0.00449156 -0.0786256 -5.16029e-09 0.811924 -6.35464e-09 
0.0554818 0.00449156 -0.133917 0.108152 0.773551 -0.328942 
0.102517 0.00449156 0.102495 0.203962 0.781983 0.218576 
0.0805472 -0.00449156 -0.120522 0.148124 -0.786555 -0.236512 
0.0805472 -0.00449156 0.120522 0.149624 -0.780029 0.275422 
0.0144496 0.00449156 0.108977 3.02896e-09 0.811924 4.54688e-09 
-0.0895792 0.00449156 -0.0603233 -5.19173e-09 0.811924 -3.72751e-09 
-0.0502389 0.00449156 0.0492894 1.84432e-08 0.811924 1.68723e-09 
-0.0556057 -0.00449156 -0.133851 -0.0549566 -0.802165 -0.1674 
-0.0372756 -0.00449156 -0.0554753 4.6752e-09 -0.811924 1.31489e-08 
0.0805472 0.00449156 0.120522 0.270726 0.723712 0.43227 
0.0575017 -0.00449156 -0.045353 -7.08278e-09 -0.811924 7.52413e-09 
-0.0146741 0.00449156 0.0729059 -1.16193e-08 0.811924 -2.68544e-08 
-0.0580653 -0.00449156 0.0324444 5.14128e-09 -0.811924 -1.03294e-08 
0.120547 -0.00449156 0.0805303 0.232709 -0.781016 0.190875 
0.0554818 0.00449156 0.133917 0.111698 0.782477 0.282053 
0.0399042 -0.00449156 -0.0600817 -1.18064e-08 -0.811924 1.0586e-09 
0.0743047 -0.00449156 0.0211754 -7.37733e-09 -0.811924 -1.07831e-08 
-0.0128981 0.00449156 -0.0665681 -1.6938e-08 0.811924 2.84312e-08 
-0.102517 -0.00449156 0.102495 -0.112791 -0.802886 0.120872 
0.0279351 -0.00449156 -0.0680589 -5.72475e-09 -0.811924 1.70466e-08 
0.120547 0.00449156 0.0805303 0.371453 0.738428 0.264284 
-0.055482 -0.00449156 0.133917 -0.0648327 -0.802124 0.163711 
-0.0425095 0.00449156 0.102181 0 0.811924 0 
0.0635175 -0.00449156 0.0502637 -6.81564e-09 -0.811924 -5.72148e-09 
-0.0573906 -0.00449156 -0.0318381 4.02623e-09 -0.811924 1.44613e-08 
-0.0282842 -0.00449156 -0.142165 -0.040538 -0.786795 -0.280012 
0.0690786 -0.00449156 -0.0286594 -7.58923e-09 -0.811924 2.66916e-08 
0.142195 -0.00449156 0.0282785 0.264914 -0.7852 0.0707195 
0.0554818 -0.00449156 -0.133917 0.0715889 -0.799959 -0.180771 
-0.144981 0.00449156 -2.26465e-07 -0.318174 0.775367 0.0116367 
0.0603918 0.00449156 0.089891 0 0.811924 0 
0.0944409 0.00449156 -0.0634902 7.71432e-10 0.811924 -6.69733e-09 
0.133945 -0.00449156 -0.0554701 0.155341 -0.801976 -0.0668901 
0.144981 0.00449156 -7.39479e-08 0.312953 0.776582 -0.0117582 
0.0676163 0.00449156 0.0043208 -1.28301e-08 0.811924 1.80942e-10 
1.85599e-05 0.00449156 -0.00185995 4.11556e-10 0.811924 1.33056e-09 
0.041824 0.00449156 0.100482 1.07847e-08 0.811924 -5.04053e-09 
-0.00856862 -0.00449156 -0.0701281 1.75294e-08 -0.811924 9.13593e-09 
0.133945 -0.00449156 0.0554701 0.166021 -0.799831 0.0861073 
0.120547 -0.00449156 -0.0805303 0.218752 -0.787212 -0.155638 
0.0435209 0.00449156 -0.105438 1.08248e-08 0.811924 3.08616e-09 
0.0998907 0.00449156 0.0408924 6.89287e-09 0.811924 4.06203e-09 
-0.0601145 0.00449156 0.0297353 1.67335e-08 0.811924 5.86549e-09 
0.106934 0.00449156 0.0208038 6.15266e-09 0.811924 1.80109e-09 
-0.142195 0.00449156 -0.0282785 -0.500513 0.715054 -0.0947732 
-0.0652429 -0.00449156 5.01699e-05 6.32942e-09 -0.811924 9.64052e-11 
-0.0604696 0.00449156 -0.00100732 1.27085e-08 0.811924 9.24316e-10 
-0.0940483 0.00449156 0.0624217 -6.93729e-10 0.811924 5.58701e-09 
-0.101669 0.00449156 -0.042554 -6.4185e-09 0.811924 -3.89678e-09 
-0.10966 0.00449156 0.0213834 -6.09012e-09 0.811924 1.05988e-09 
-0.0437634 0.00449156 -0.0527355 1.69532e-08 0.811924 3.02759e-09 
-0.144926 -0.00449156 -0.000565679 -0.23388 -0.792379 -0.00878783 
0.0282844 -0.00449156 -0.142165 0.0572219 -0.786073 -0.280731 
-0.142195 -0.00449156 -0.0282785 -0.225108 -0.792709 -0.0603325 
-0.133945 0.00449156 -0.0554703 -0.280083 0.779121 -0.120604 
0.0625246 0.00449156 0.0308915 -1.68954e-08 0.811924 3.41651e-09 
-0.0268122 0.00449156 -0.0657007 1.55971e-08 0.811924 8.1437e-09 
0.108113 0.00449156 -0.0451295 6.95642e-09 0.811924 -3.54654e-09 
-0.0280936 0.00449156 0.0669136 6.50289e-09 0.811924 -1.39889e-08 
0.0390058 -0.00449156 0.0703343 -1.03741e-08 -0.811924 -5.05359e-09 
0.133945 0.00449156 -0.0554701 0.313403 0.767962 -0.162547 
-0.133945 -0.00449156 0.0554701 -0.139971 -0.803857 0.0602717 
-0.142196 -0.00449156 0.0282784 -0.226823 -0.793011 0.0423721 
-0.120547 -0.00449156 -0.0805304 -0.19081 -0.791286 -0.156411 
0.142195 -0.00449156 -0.0282784 0.265812 -0.785816 -0.0501944 
-0.102517 0.00449156 -0.102496 -0.210267 0.779852 -0.226802 
0.0289964 0.00449156 0.0690791 7.2933e-09 0.811924 -2.09177e-08 
-0.112997 0.00449156 -0.000410416 -6.85743e-09 0.811924 2.12464e-11 
-0.0805471 -0.00449156 -0.120522 -0.124939 -0.789982 -0.228877 
0.142195 0.00449156 0.0282785 0.469019 0.727567 0.0885662 
0.0357348 0.00449156 -0.0546682 -3.38613e-09 0.811924 9.86766e-09 
-0.0554817 0.00449156 -0.133917 -0.119909 0.777679 -0.303868 
0.087727 0.00449156 0.0580951 7.45308e-10 0.811924 5.43099e-09 
-0.0215368 0.00449156 -0.109845 -9.21357e-09 0.811924 -1.91068e-09 
0.102517 -0.00449156 0.102495 0.127263 -0.798651 0.155528 
0.0282844 0.00449156 0.142165 0.108446 0.714738 0.532032 
3 72 46 67 
3 119 108 102 
3 55 13 28 
3 16 113 29 
3 47 10 34 
3 57 20 85 
3 44 118 14 
3 100 0 126 
3 31 47 26 
3 48 40 75 
3 80 31 73 
3 61 93 123 
3 95 84 0 
3 121 89 33 
3 106 99 103 
3 106 86 41 
3 35 46 19 
3 130 29 113 
3 90 6 8 
3 23 122 15 
3 1 105 11 
3 111 17 110 
3 64 43 82 
3 35 19 88 
3 38 25 130 
3 45 30 12 
3 107 113 16 
3 58 66 131 
3 48 50 2 
3 37 132 10 
3 60 131 66 
3 125 15 128 
3 22 55 79 
3 86 119 41 
3 94 82 45 
3 114 88 51 
3 6 51 91 
3 38 92 127 
3 107 1 92 
3 53 68 7 
3 77 0 129 
3 45 82 30 
3 107 16 56 
3 7 68 115 
3 104 27 63 
3 4 26 78 
3 57 97 5 
3 58 129 39 
3 72 76 85 
3 90 33 6 
3 52 39 129 
3 19 5 32 
3 14 75 40 
3 67 89 83 
3 21 121 90 
3 31 24 73 
3 123 93 87 
3 107 56 62 
3 31 76 72 
3 6 114 51 
3 62 56 122 
3 128 130 43 
3 111 110 101 
3 31 83 42 
3 51 127 92 
3 46 59 19 
3 37 10 47 
3 112 129 98 
3 58 77 129 
3 57 5 20 
3 45 12 109 
3 44 106 41 
3 36 10 132 
3 7 28 36 
3 107 62 1 
3 7 79 55 
3 7 55 28 
3 31 4 69 
3 25 97 57 
3 128 15 16 
3 21 84 73 
3 21 42 121 
3 64 128 43 
3 54 115 92 
3 111 11 105 
3 18 106 44 
3 123 3 92 
3 103 92 1 
3 103 1 11 
3 55 78 13 
3 63 27 22 
3 20 5 19 
3 26 34 13 
3 25 127 97 
3 128 29 130 
3 38 130 74 
3 38 74 92 
3 25 30 130 
3 4 78 50 
3 65 31 81 
3 77 70 95 
3 60 116 131 
3 127 5 97 
3 111 101 11 
3 36 28 34 
3 123 87 3 
3 80 95 70 
3 35 88 117 
3 16 122 56 
3 61 36 132 
3 100 98 0 
3 100 8 91 
3 104 48 27 
3 52 92 3 
3 106 124 86 
3 96 117 89 
3 21 24 42 
3 1 62 105 
3 72 85 59 
3 85 20 59 
3 120 23 81 
3 96 46 35 
3 44 14 40 
3 31 69 102 
3 90 121 33 
3 126 84 21 
3 58 70 77 
3 61 123 53 
3 86 108 119 
3 22 27 48 
3 120 122 23 
3 37 47 116 
3 18 44 104 
3 9 76 31 
3 117 114 6 
3 112 92 52 
3 127 88 32 
3 16 15 122 
3 58 131 70 
3 127 32 5 
3 61 53 7 
3 31 26 4 
3 126 21 90 
3 112 98 100 
3 110 102 108 
3 118 102 69 
3 61 7 36 
3 51 88 127 
3 99 92 103 
3 37 116 60 
3 9 109 85 
3 118 69 14 
3 82 43 30 
3 53 92 68 
3 4 75 69 
3 131 116 80 
3 86 11 101 
3 63 22 54 
3 95 73 84 
3 18 104 99 
3 58 87 66 
3 21 73 24 
3 100 126 90 
3 126 0 84 
3 57 85 109 
3 74 130 113 
3 116 47 31 
3 64 82 94 
3 71 87 93 
3 25 12 30 
3 61 71 93 
3 112 52 129 
3 104 40 48 
3 4 50 75 
3 71 66 87 
3 17 102 110 
3 17 120 81 
3 53 123 92 
3 22 79 115 
3 120 49 122 
3 117 6 33 
3 22 48 2 
3 48 75 50 
3 22 2 55 
3 99 63 92 
3 116 31 80 
3 65 23 125 
3 80 73 95 
3 104 63 99 
3 112 91 92 
3 20 19 59 
3 14 69 75 
3 9 85 76 
3 94 45 9 
3 44 40 104 
3 42 89 121 
3 71 60 66 
3 118 41 119 
3 111 105 62 
3 68 92 115 
3 19 32 88 
3 31 72 67 
3 110 108 101 
3 55 2 78 
3 65 94 31 
3 96 35 117 
3 7 115 79 
3 111 49 17 
3 57 109 12 
3 107 92 113 
3 30 43 130 
3 78 2 50 
3 71 132 37 
3 63 54 92 
3 94 9 31 
3 77 95 0 
3 131 80 70 
3 22 115 54 
3 125 23 15 
3 74 113 92 
3 31 102 81 
3 42 83 89 
3 61 132 71 
3 78 26 13 
3 86 124 11 
3 17 49 120 
3 0 98 129 
3 117 88 114 
3 36 34 10 
3 117 33 89 
3 18 99 106 
3 25 57 12 
3 65 81 23 
3 112 100 91 
3 72 59 46 
3 64 125 128 
3 6 91 8 
3 58 39 87 
3 44 41 118 
3 100 90 8 
3 34 28 13 
3 111 62 49 
3 86 101 108 
3 51 92 91 
3 106 103 124 
3 52 87 39 
3 128 16 29 
3 67 96 89 
3 45 109 9 
3 38 127 25 
3 31 42 24 
3 52 3 87 
3 71 37 60 
3 17 81 102 
3 65 64 94 
3 62 122 49 
3 65 125 64 
3 47 34 26 
3 118 119 102 
3 31 67 83 
3 103 11 124 
3 67 46 96 
