ply
format ascii 1.0
comment VCGLIB generated
element vertex 178
property float x
property float y
property float z
property float nx
property float ny
property float nz
element face 351
property list uchar int vertex_indices
end_header
0.075 -0.03 -0.1 1.5708 -1.5708 -1.5708
0.075 -0.03 0.1 1.5708 -1.5708 1.5708
-0.075 -0.03 -0.1 -1.5708 -1.5708 -1.5708
0.075 0.03 -0.1 1.5708 1.5708 -1.5708
-0.075 0.03 0.1 -1.5708 1.5708 1.5708
-0.075 0.03 -0.1 -1.5708 1.5708 -1.5708
0.075 0.03 0.026622666666667 3.14159 3.14159 0
0.075 0.002348 0.1 3.14159 0 3.14159
0.075 -0.03 0.025172666666667 3.14159 -3.14159 0
0.075 0.0102415 0.06313 6.28319 0 0
0.075 -0.012323 0.065619333333333 6.28319 0 0
0.075 -0.003457 0.027624666666667 6.28319 0 0
0.075 -0.01164 -0.013756666666667 6.28319 0 0
0.075 -0.0061835 -0.061222666666667 6.28319 0 0
0.075 0.0125485 -0.022534666666667 6.28319 0 0
0.075 0.017564 0.010527333333333 6.28319 0 0
0.075 0.010963 -0.084708 6.28319 0 0
0.075 -0.006881 -0.1 3.14159 0 -3.14159
0.075 0.009098 -0.1 3.14159 0 -3.14159
0.075 0.03 -0.082706666666667 3.14159 3.14159 0
0.075 -0.0161215 -0.077404 6.28319 0 0
0.075 -0.03 -0.058534666666667 3.14159 -3.14159 0
0.075 -0.03 -0.036794666666667 3.14159 -3.14159 0
0.075 -0.03 -0.007178666666667 3.14159 -3.14159 0
0.075 -0.003128 0.087167333333333 6.28319 0 0
0.075 -0.03 0.075061333333333 3.14159 0 0
0.075 0.0049655 5.13333333333333E-05 6.28319 0 0
0.075 0.012936 -0.061072 6.28319 0 0
0.04137 0.0130115 -0.1 0 0 -6.28319
0.041934 -0.009373 -0.1 0 0 -6.28319
0.02640675 -0.03 -0.1 0 -3.14159 -3.14159
-0.02921775 -0.03 -0.1 0 -3.14159 -3.14159
0.01025325 -0.0167915 -0.1 0 0 -6.28319
0.01772775 0.0005205 -0.1 0 0 -6.28319
0.00460725 0.018348 -0.1 0 0 -6.28319
-0.01196775 -0.0069175 -0.1 0 0 -6.28319
-0.0056175 0.03 -0.1 0 3.14159 -3.14159
-0.03744225 0.0176175 -0.1 0 0 -6.28319
-0.0351855 0.001174 -0.1 0 0 -6.28319
-0.04254375 -0.016827 -0.1 0 0 -6.28319
-0.0576315 -0.0066235 -0.1 0 0 -6.28319
-0.056952 0.0052985 -0.1 0 0 -6.28319
-0.075 0.0180075 -0.1 -3.14159 0 -3.14159
-0.06516225 0.011666 -0.1 0 0 -6.28319
0.04854525 -0.03 -0.1 0 -3.14159 -3.14159
0.02883675 0.00639 -0.1 0 0 -6.28319
0.02149575 0.03 -0.1 0 3.14159 -3.14159
0.075 -0.0180915 -0.1 3.14159 0 -3.14159
0.05940225 0.001116 -0.1 0 0 -6.28319
0.034533 0.0231475 -0.1 0 0 -6.28319
0.05839275 0.021611 -0.1 0 0 -6.28319
0.00317925 -0.03 -0.1 0 -3.14159 -3.14159
-0.0500355 -0.03 -0.1 0 -3.14159 -3.14159
-0.075 -0.0156885 -0.1 -3.14159 0 -3.14159
-0.075 0.0105235 -0.065359333333333 -6.28319 0 0
-0.075 -0.007725 -0.080805333333333 -6.28319 0 0
-0.075 0.0124195 -0.032076 -6.28319 0 0
-0.075 -0.0060095 -0.032439333333333 -6.28319 0 0
-0.075 -0.0181015 -0.05379 -6.28319 0 0
-0.075 -0.0096455 -0.06726 -6.28319 0 0
-0.075 -0.0189385 -0.01957 -6.28319 0 0
-0.075 -0.03 -0.007620666666667 -3.14159 -3.14159 0
-0.075 -0.03 -0.038327333333333 -3.14159 -3.14159 0
-0.075 -0.011948 0.000344666666667 -6.28319 0 0
-0.075 -0.016785 0.027047333333333 -6.28319 0 0
-0.075 -0.0205935 0.005676666666667 -6.28319 0 0
-0.075 -0.03 0.020689333333333 -3.14159 -3.14159 0
-0.075 -0.022891 0.060754666666667 -6.28319 0 0
-0.075 -0.015856 0.083895333333333 -6.28319 0 0
-0.075 0.000845 -0.046088 -6.28319 0 0
-0.075 0.018702 -0.008092 -6.28319 0 0
-0.075 0.0013645 -0.012488666666667 -6.28319 0 0
-0.075 -0.03 -0.057406 -3.14159 -3.14159 0
-0.075 0.03 0.041994666666667 -3.14159 3.14159 0
-0.075 0.03 0.024584 -3.14159 3.14159 0
-0.075 0.03 0.003364 -3.14159 3.14159 0
-0.075 0.002536 0.022459333333333 -6.28319 0 0
-0.075 0.0193645 0.015576666666667 -6.28319 0 0
-0.075 0.02187 0.035206 -6.28319 0 0
-0.075 0.0127135 0.040816666666667 -6.28319 0 0
-0.075 -0.0079495 0.047717333333333 -6.28319 0 0
-0.075 0.0066365 0.052965333333333 -6.28319 0 0
-0.075 0.0204425 0.058280666666667 -6.28318 0 0
-0.075 0.03 0.070088666666667 -3.14159 3.14159 0
-0.075 -0.002428 0.071304 -6.28319 0 0
-0.075 0.019443 0.079921333333333 -6.28319 0 0
-0.075 0.0115975 0.073895333333333 -6.28319 0 0
-0.075 -0.0028685 0.090662 -6.28319 0 0
-0.075 0.0080255 0.1 -3.14159 0 3.14159
-0.075 -0.010308 0.1 -3.14159 0 3.14159
-0.0479385 0.0148425 0.1 0 0 6.28319
-0.04650675 -0.0046025 0.1 0 0 6.28319
-0.05181075 -0.0201085 0.1 0 0 6.28319
-0.03512775 0.03 0.1 0 3.14159 3.14159
-0.0204045 0.01867 0.1 0 0 6.28319
-0.02473725 0.0058025 0.1 0 0 6.28319
-0.0248535 -0.012304 0.1 0 0 6.28319
0.01502175 0.03 0.1 0 3.14159 3.14159
0.00049575 0.0083555 0.1 0 0 6.28319
-0.005925 -0.0060015 0.1 0 0 6.28319
0.0180405 0.018267 0.1 0 0 6.28319
0.01832175 -0.001716 0.1 0 0 6.28319
0.01562775 -0.0172765 0.1 0 0 6.28319
0.02866725 -0.0239145 0.1 0 0 6.28319
0.03282 -0.008004 0.1 0 0 6.28319
0.03468225 0.0223525 0.1 0 0 6.28319
0.036918 0.012034 0.1 0 0 6.28319
0.03029775 0.003129 0.1 0 0 6.28319
0.0546645 -0.017893 0.1 0 0 6.28319
0.051021 -0.008153 0.1 0 0 6.28319
0.046098 0.0031065 0.1 0 0 6.28319
0.075 0.03 0.1 1.5708 1.5708 1.5708
0.05517 0.007392 0.1 0 0 6.28319
0.063543 0.03 0.1 0 3.14159 3.14159
0.042108 0.03 0.1 0 3.14159 3.14159
0.057561 0.018042 0.1 0 0 6.28319
-0.03797025 0.03 0.064030666666667 0 6.28319 0
0.00652125 0.03 0.072098666666667 0 6.28319 0
0.0344565 0.03 0.045836 0 6.28319 0
0.00104925 0.03 0.013417333333333 0 6.28319 0
-0.05255775 0.03 0.022713333333333 0 6.28319 0
-0.04533825 0.03 -0.023892 0 6.28319 0
-0.000597 0.03 -0.02811 0 6.28319 0
0.05105925 0.03 -0.005484 0 6.28319 0
0.0413415 0.03 -0.061650666666667 0 6.28319 0
-0.00853125 0.03 -0.071446 0 6.28319 0
-0.03951 0.03 -0.056491333333333 0 6.28319 0
0.075 0.03 0.047924666666667 3.14159 3.14159 0
-0.00646725 0.03 0.038356666666667 0 6.28319 0
-0.02216925 0.03 -0.006916 0 6.28319 0
-0.075 0.03 -0.024970666666667 -3.14159 3.14159 0
-0.01893225 0.03 -0.046150666666667 0 6.28319 0
0.028158 0.03 -0.040706666666667 0 6.28319 0
0.04781325 0.03 0.07593 0 6.28319 0
0.04351725 0.03 0.015155333333333 0 6.28319 0
0.075 0.03 -0.060937333333333 3.14159 3.14159 0
0.075 0.03 -0.013709333333333 3.14159 3.14159 0
0.05406975 0.03 -0.081573333333333 0 6.28319 0
0.02346525 0.03 -0.084624 0 6.28318 0
-0.075 0.03 -0.062380666666667 -3.14159 3.14159 0
-0.05363325 0.03 -0.1 0 3.14159 -3.14159
-0.04116375 0.03 -0.085464 0 6.28319 0
0.045438 0.03 -0.037972666666667 0 6.28319 0
0.00017475 0.03 -0.008651333333333 0 6.28319 0
-0.06243375 0.03 0.056724 0 6.28319 0
-0.05075175 0.03 0.1 0 3.14159 3.14159
-0.0142845 -0.03 0.1 0 -3.14159 3.14159
-0.075 -0.03 0.1 -1.5708 -1.5708 1.5708
0.02627625 -0.03 0.1 0 -3.14159 3.14159
-0.029046 -0.03 0.1 0 -3.14159 3.14159
0.075 -0.03 0.039271333333333 0 -3.14159 0
0.049656 -0.03 0.065210666666667 0 -6.28319 0
0.000963 -0.03 0.063826 0 -6.28319 0
0.04202925 -0.03 0.013317333333333 0 -6.28319 0
0.00867 -0.03 0.02733 0 -6.28319 0
-0.03652875 -0.03 0.074009333333333 0 -6.28319 0
-0.03173325 -0.03 0.036227333333333 0 -6.28319 0
-0.06693 -0.03 0.045404 0 -6.28319 0
0.04384425 -0.03 -0.026634 0 -6.28319 0
0.017706 -0.03 -0.017526666666667 0 -6.28319 0
-0.01175175 -0.03 -0.004211333333333 0 -6.28319 0
-0.05784975 -0.03 0.026848666666667 0 -6.28319 0
-0.0365235 -0.03 -0.005546666666667 0 -6.28319 0
-0.0597345 -0.03 -0.023114 0 -6.28319 0
-0.01157925 -0.03 -0.03807 0 -6.28319 0
-0.02954325 -0.03 -0.036089333333333 0 -6.28319 0
-0.075 -0.03 -0.046778666666667 -3.14159 -3.14159 0
0.075 -0.03 -0.06914 3.14159 -3.14159 0
0.0249855 -0.03 -0.048726666666667 0 -6.28319 0
0.004101 -0.03 -0.05553 0 -6.28319 0
-0.05329425 -0.03 -0.059996 0 -6.28319 0
-0.01583925 -0.03 -0.064144666666667 0 -6.28319 0
0.03897825 -0.03 -0.073699333333333 0 -6.28319 0
0.01846425 -0.03 -0.072816 0 -6.28319 0
-0.01096725 -0.03 -0.088946 0 -6.28319 0
0.017766 -0.03 -0.1 0 -3.14159 0
-0.075 -0.03 -0.082730666666667 -3.14159 -3.14159 0
-0.043053 -0.03 -0.081133333333333 0 -6.28319 0
3 0 172 44 
3 3 46 138 
3 0 20 167 
3 1 108 148 
3 3 49 46 
3 8 10 25 
3 7 9 111 
3 111 9 127 
3 127 9 11 
3 9 7 24 
3 9 24 10 
3 10 8 11 
3 10 11 9 
3 11 15 127 
3 127 15 6 
3 15 26 14 
3 13 14 12 
3 12 26 11 
3 14 13 27 
3 136 6 15 
3 15 14 136 
3 135 16 19 
3 13 16 27 
3 136 14 135 
3 19 16 18 
3 16 17 18 
3 19 18 3 
3 0 47 20 
3 20 47 17 
3 20 17 16 
3 16 13 20 
3 13 12 22 
3 22 12 23 
3 23 12 8 
3 8 12 11 
3 22 21 13 
3 167 20 21 
3 21 20 13 
3 25 24 1 
3 1 24 7 
3 24 25 10 
3 11 26 15 
3 14 26 12 
3 14 27 135 
3 27 16 135 
3 0 29 47 
3 31 35 32 
3 32 33 29 
3 29 44 30 
3 30 51 32 
3 32 29 30 
3 29 33 45 
3 28 45 34 
3 17 29 48 
3 17 48 18 
3 18 50 3 
3 35 33 32 
3 33 35 34 
3 34 49 28 
3 36 37 140 
3 31 39 35 
3 35 38 34 
3 34 37 36 
3 2 40 39 
3 2 39 52 
3 39 38 35 
3 38 37 34 
3 140 42 5 
3 53 41 40 
3 40 41 38 
3 41 37 38 
3 38 39 40 
3 40 2 53 
3 42 140 37 
3 37 41 43 
3 43 41 53 
3 53 42 43 
3 43 42 37 
3 46 34 36 
3 45 28 29 
3 44 29 0 
3 34 45 33 
3 48 29 28 
3 18 48 28 
3 28 49 50 
3 50 49 3 
3 50 18 28 
3 47 29 17 
3 46 49 34 
3 32 51 31 
3 52 39 31 
3 176 53 2 
3 53 176 55 
3 53 55 42 
3 42 54 5 
3 5 54 139 
3 139 54 56 
3 56 54 69 
3 57 69 58 
3 54 55 59 
3 55 54 42 
3 176 59 55 
3 59 58 54 
3 58 60 57 
3 66 64 65 
3 65 64 63 
3 63 57 60 
3 60 58 62 
3 58 59 176 
3 176 72 58 
3 62 61 60 
3 60 61 65 
3 61 66 65 
3 65 63 60 
3 147 68 67 
3 147 67 66 
3 64 66 67 
3 69 57 56 
3 56 57 71 
3 71 57 63 
3 56 70 130 
3 130 139 56 
3 58 72 166 
3 58 166 62 
3 58 69 54 
3 63 64 76 
3 76 64 80 
3 80 64 67 
3 76 71 63 
3 71 70 56 
3 70 75 130 
3 75 70 77 
3 77 70 76 
3 70 71 76 
3 76 81 79 
3 79 78 77 
3 77 78 74 
3 78 73 74 
3 74 75 77 
3 77 76 79 
3 73 78 82 
3 79 82 78 
3 67 84 80 
3 80 81 76 
3 80 84 81 
3 81 82 79 
3 82 83 73 
3 81 86 82 
3 82 85 83 
3 84 67 68 
3 4 83 85 
3 85 82 86 
3 86 81 84 
3 68 147 87 
3 87 147 89 
3 87 89 88 
3 84 68 87 
3 88 4 85 
3 85 86 88 
3 86 84 87 
3 88 86 87 
3 147 92 89 
3 89 91 88 
3 88 90 4 
3 149 92 147 
3 92 91 89 
3 91 90 88 
3 90 93 145 
3 90 145 4 
3 93 90 94 
3 90 91 95 
3 91 92 96 
3 149 96 92 
3 96 95 91 
3 95 94 90 
3 94 97 93 
3 146 96 149 
3 96 99 95 
3 95 98 94 
3 94 98 97 
3 97 98 100 
3 98 95 99 
3 99 96 146 
3 146 103 102 
3 102 104 101 
3 101 98 99 
3 99 146 102 
3 102 101 99 
3 101 100 98 
3 97 100 105 
3 105 100 106 
3 106 100 107 
3 101 107 100 
3 103 146 148 
3 103 148 108 
3 108 1 7 
3 109 110 104 
3 109 103 108 
3 103 104 102 
3 104 103 109 
3 104 107 101 
3 110 107 104 
3 107 110 106 
3 109 7 110 
3 110 112 106 
3 109 108 7 
3 106 112 115 
3 115 112 7 
3 7 111 115 
3 115 111 113 
3 113 114 115 
3 115 114 105 
3 114 97 105 
3 105 106 115 
3 112 110 7 
3 4 116 144 
3 93 116 145 
3 116 93 117 
3 127 113 111 
3 113 127 133 
3 114 117 97 
3 97 117 93 
3 120 128 119 
3 118 128 117 
3 117 128 116 
3 116 128 120 
3 119 129 120 
3 120 121 74 
3 119 128 118 
3 121 130 75 
3 121 75 74 
3 74 144 120 
3 130 126 139 
3 126 130 121 
3 121 122 131 
3 131 122 132 
3 123 132 122 
3 129 121 120 
3 129 122 121 
3 119 143 129 
3 127 118 117 
3 133 127 117 
3 117 114 113 
3 117 113 133 
3 127 134 118 
3 118 134 119 
3 119 134 123 
3 123 122 143 
3 137 138 124 
3 124 142 136 
3 123 134 6 
3 134 127 6 
3 6 136 123 
3 136 135 124 
3 124 135 137 
3 137 135 19 
3 137 19 3 
3 124 132 142 
3 132 124 125 
3 139 126 5 
3 125 126 131 
3 126 121 131 
3 131 132 125 
3 125 141 126 
3 125 140 141 
3 141 140 5 
3 126 141 5 
3 138 140 125 
3 125 124 138 
3 138 46 36 
3 138 36 140 
3 138 137 3 
3 136 142 123 
3 142 132 123 
3 129 143 122 
3 143 119 123 
3 144 116 120 
3 145 116 4 
3 144 74 73 
3 144 73 83 
3 144 83 4 
3 147 155 149 
3 149 155 146 
3 146 155 152 
3 146 152 148 
3 148 152 151 
3 148 151 1 
3 1 151 150 
3 150 151 153 
3 151 152 154 
3 152 155 156 
3 156 155 157 
3 61 162 66 
3 66 157 147 
3 147 157 155 
3 157 66 161 
3 156 154 152 
3 154 153 151 
3 153 8 150 
3 8 153 23 
3 23 153 158 
3 153 160 159 
3 161 162 156 
3 156 162 160 
3 160 153 154 
3 154 156 160 
3 161 156 157 
3 66 162 161 
3 61 163 162 
3 162 165 160 
3 160 164 159 
3 159 158 153 
3 158 22 23 
3 166 170 165 
3 165 162 163 
3 163 61 62 
3 163 62 166 
3 166 165 163 
3 165 164 160 
3 164 169 159 
3 159 168 158 
3 158 167 21 
3 167 158 168 
3 167 168 172 
3 168 159 169 
3 169 164 171 
3 171 164 170 
3 170 164 165 
3 171 174 169 
3 169 173 168 
3 44 172 173 
3 172 168 173 
3 173 175 30 
3 173 30 44 
3 172 0 167 
3 51 175 174 
3 51 174 31 
3 31 171 177 
3 31 177 52 
3 52 177 176 
3 176 177 170 
3 170 177 171 
3 171 31 174 
3 174 175 173 
3 173 169 174 
3 170 166 72 
3 170 72 176 
3 176 2 52 
3 1 150 8 
3 22 158 21 
3 175 51 30 
