ply
format ascii 1.0
comment VCGLIB generated
element vertex 45
property float x
property float y
property float z
property float nx
property float ny
property float nz
element face 86
property list uchar int vertex_indices
end_header
0.074694 0.0304455 -0.101487 1.5708 1.5708 -1.57079 
0.074694 -0.0304455 -0.101487 1.5708 -1.5708 -1.5708 
-0.074694 0.0304455 -0.101487 -1.5708 1.5708 -1.5708 
-0.074694 -0.0304455 -0.101487 -1.5708 -1.5708 -1.5708 
0.074694 0.0304455 0.101487 1.5708 1.5708 1.5708 
0.074694 -0.0304455 0.101487 1.5708 -1.5708 1.5708 
-0.074694 0.0304455 0.101487 -1.5708 1.5708 1.5708 
-0.074694 -0.0304455 0.101487 -1.5708 -1.5708 1.5708 
0.00658399 -0.0304455 -0.101487 -2.74647e-07 -3.14159 -3.14159 
-0.041786 -0.0304455 -0.101487 -2.74647e-07 -3.14159 -3.14159 
-0.074694 -0.0304455 -0.0727635 -3.14159 -3.14159 4.1197e-07 
-0.074694 -0.0304455 -0.0111075 -3.14159 -3.14159 4.1197e-07 
-0.074694 -0.0304455 0.0524715 -3.14159 -3.14159 4.1197e-07 
-0.053483 -0.0304455 0.101487 2.74647e-07 -3.14159 3.14159 
-0.00187999 -0.0304455 0.101487 2.74647e-07 -3.14159 3.14159 
0.0448 -0.0304455 0.101487 2.74647e-07 -3.14159 3.14159 
0.074694 -0.0304455 0.0610605 3.14159 -3.14159 -1.37323e-07 
0.074694 -0.0304455 0.0078815 3.14159 -3.14159 -1.37323e-07 
0.074694 -0.0304455 -0.0427725 3.14159 -3.14159 -1.37323e-07 
0.046275 -0.0304455 -0.0694635 2.40104e-14 -6.28318 2.74647e-07 
0.041469 -0.0304455 -0.0147705 2.40104e-14 -6.28318 2.74647e-07 
0.039792 -0.0304455 0.0338635 2.40104e-14 -6.28318 2.74647e-07 
0.022338 -0.0304455 0.0650075 2.40104e-14 -6.28318 2.74647e-07 
-0.023723 -0.0304455 0.0613825 2.40104e-14 -6.28318 2.74647e-07 
-0.046832 -0.0304455 0.0299385 2.40104e-14 -6.28318 2.74647e-07 
-0.039393 -0.0304455 -0.0392305 2.40101e-14 -6.2831 2.74643e-07 
-0.016185 -0.0304455 -0.0597575 2.40104e-14 -6.28318 2.74647e-07 
0.017294 -0.0304455 -0.0397725 2.40104e-14 -6.28319 2.74647e-07 
0.014697 -0.0304455 -0.0095885 2.40104e-14 -6.28318 2.74647e-07 
0.019849 -0.0304455 0.0127565 2.40104e-14 -6.28318 2.74647e-07 
0.016288 -0.0304455 0.0395465 2.40104e-14 -6.28318 2.74647e-07 
-0.000477994 -0.0304455 0.0372285 2.40104e-14 -6.28318 2.74647e-07 
-0.018296 -0.0304455 0.0212145 2.40104e-14 -6.28318 2.74647e-07 
-0.020414 -0.0304455 -0.0044095 2.40104e-14 -6.28318 2.74647e-07 
-0.011021 -0.0304455 -0.0218085 2.40104e-14 -6.28318 2.74647e-07 
0.002725 -0.0304455 -0.0150115 2.40104e-14 -6.28318 2.74647e-07 
0.007027 -0.0304455 0.0052625 2.40104e-14 -6.28319 2.74647e-07 
0.002259 -0.0304455 -0.0023275 2.40104e-14 -6.28318 2.74647e-07 
-0.00488 -0.0304455 -0.0053585 2.40104e-14 -6.28318 2.74647e-07 
-0.009506 -0.0304455 -0.0012665 2.40104e-14 -6.28318 2.74647e-07 
-0.009352 -0.0304455 0.0056905 2.40104e-14 -6.28318 2.74647e-07 
-0.003433 -0.0304455 0.0138685 2.40104e-14 -6.28318 2.74647e-07 
0.005654 -0.0304455 0.0211845 2.40104e-14 -6.28318 2.74647e-07 
0.008617 -0.0304455 0.0155185 2.40104e-14 -6.28318 2.74647e-07 
-2.09976e-05 -0.0304455 0.0058435 2.40104e-14 -6.28318 2.74647e-07 
3 0 1 8 
3 0 8 9 
3 0 9 3 
3 0 3 2 
3 2 3 10 
3 2 10 11 
3 2 11 12 
3 2 12 7 
3 2 7 6 
3 6 7 13 
3 6 13 14 
3 6 14 15 
3 6 15 5 
3 6 5 4 
3 4 5 16 
3 4 16 17 
3 4 17 18 
3 4 18 1 
3 4 1 0 
3 2 6 4 
3 2 4 0 
3 7 12 13 
3 13 12 24 
3 13 24 23 
3 23 24 32 
3 32 24 33 
3 23 31 22 
3 22 30 21 
3 21 29 20 
3 20 28 27 
3 27 26 8 
3 27 8 19 
3 19 8 1 
3 1 18 19 
3 19 18 20 
3 19 20 27 
3 20 18 17 
3 17 16 21 
3 16 15 22 
3 16 22 21 
3 21 20 17 
3 22 15 14 
3 14 13 23 
3 23 22 14 
3 15 16 5 
3 8 26 9 
3 9 10 3 
3 10 9 26 
3 10 26 25 
3 25 26 34 
3 25 33 24 
3 24 12 11 
3 11 10 25 
3 25 24 11 
3 27 35 26 
3 33 25 34 
3 34 26 35 
3 35 27 28 
3 28 20 29 
3 29 21 30 
3 30 22 31 
3 31 23 32 
3 32 33 40 
3 40 33 39 
3 32 41 31 
3 31 42 30 
3 30 43 29 
3 29 36 28 
3 28 37 35 
3 35 38 34 
3 34 39 33 
3 39 34 38 
3 38 35 37 
3 37 28 36 
3 36 29 43 
3 43 30 42 
3 42 31 41 
3 41 32 40 
3 40 39 44 
3 43 44 36 
3 41 44 42 
3 42 44 43 
3 39 38 44 
3 44 41 40 
3 44 38 37 
3 37 36 44 
