ply
format ascii 1.0
comment VCGLIB generated
element vertex 386
property float x
property float y
property float z
property float nx
property float ny
property float nz
element face 768
property list uchar int vertex_indices
end_header
-0.03725 -0.029 -0.1 0 -3.14159 -3.14159 
-0.0745 -0.0145 -0.1 -3.14159 0 -3.14159 
-0.03725 -0.0145 -0.1 0 0 -6.28319 
-0.0745 -0.0145 0.1 -3.14159 0 3.14159 
-0.03725 -0.029 0.1 0 -3.14159 3.14159 
-0.03725 -0.0145 0.1 0 0 6.28319 
0.0745 -0.0145 0.05 6.28319 0 0 
0.0745 -0.029 0.1 1.5708 -1.5708 1.5708 
0.0745 -0.029 0.05 3.14159 -3.14159 0 
-0.0745 -0.029 0.05 -3.14159 -3.14159 0 
-0.03725 -0.029 0.05 0 -6.28319 0 
-0.0745 0.0145 0.05 -6.28319 0 0 
-0.0745 0.029 0.1 -1.5708 1.5708 1.5708 
-0.0745 0.029 0.05 -3.14159 3.14159 0 
-0.03725 0.029 -0.1 0 3.14159 -3.14159 
-0.0745 0.029 -0.05 -3.14159 3.14159 0 
-0.03725 0.029 -0.05 0 6.28319 0 
-0.03725 0.029 0 0 6.28319 0 
-0.03725 0.029 0.05 0 6.28319 0 
0.03725 0.029 0 0 6.28319 0 
0 0.029 0.05 0 6.28319 0 
0.03725 0.029 0.05 0 6.28319 0 
0.03725 0.029 -0.1 0 3.14159 -3.14159 
0 0.029 -0.05 0 6.28319 0 
0.03725 0.029 -0.05 0 6.28319 0 
-0.0745 0.0145 0 -6.28319 0 0 
-0.0745 0.0145 -0.05 -6.28319 0 0 
-0.0745 -0.0145 -0 -6.28319 0 0 
-0.0745 0 -0.05 -6.28319 0 0 
-0.0745 -0.0145 -0.05 -6.28319 0 0 
-0.0745 -0 0.05 -6.28319 0 0 
-0.0745 -0.0145 0.05 -6.28319 0 0 
-0.03725 -0.029 -0 0 -6.28319 0 
-0.0745 -0.029 -0.05 -3.14159 -3.14159 0 
-0.03725 -0.029 -0.05 0 -6.28319 0 
0.03725 -0.029 -0 0 -6.28319 0 
0 -0.029 -0.05 0 -6.28319 0 
0.03725 -0.029 -0.05 0 -6.28319 0 
0.03725 -0.029 0.1 0 -3.14159 3.14159 
0 -0.029 0.05 0 -6.28319 0 
0.03725 -0.029 0.05 0 -6.28319 0 
0.0745 -0.0145 -0 6.28319 0 0 
0.0745 -0.029 -0.05 3.14159 -3.14159 0 
0.0745 -0.0145 -0.05 6.28319 0 0 
0.0745 0.0145 0 6.28319 0 0 
0.0745 0 -0.05 6.28319 0 0 
0.0745 0.0145 -0.05 6.28319 0 0 
0.0745 0.0145 0.1 3.14159 0 3.14159 
0.0745 -0 0.05 6.28319 0 0 
0.0745 0.0145 0.05 6.28319 0 0 
0 -0.0145 0.1 0 0 6.28319 
0.03725 -0.0145 0.1 0 0 6.28319 
0 0.0145 0.1 0 0 6.28319 
0.03725 -0 0.1 0 0 6.28319 
0.03725 0.0145 0.1 0 0 6.28319 
-0.0745 0.0145 0.1 -3.14159 0 3.14159 
-0.03725 -0 0.1 0 0 6.28319 
-0.03725 0.0145 0.1 0 0 6.28319 
-0.03725 0 -0.1 0 0 -6.28319 
-0.0745 0.0145 -0.1 -3.14159 0 -3.14159 
-0.03725 0.0145 -0.1 0 0 -6.28319 
0.03725 0 -0.1 0 0 -6.28319 
0 0.0145 -0.1 0 0 -6.28319 
0.03725 0.0145 -0.1 0 0 -6.28319 
0.03725 -0.029 -0.1 0 -3.14159 -3.14159 
0 -0.0145 -0.1 0 0 -6.28319 
0.03725 -0.0145 -0.1 0 0 -6.28319 
0 0 -0.1 0 0 -6.28319 
0.0745 -0.0145 -0.1 3.14159 0 -3.14159 
0.0745 0 -0.1 3.14159 0 -3.14159 
0.0745 -0.029 -0.1 1.5708 -1.5708 -1.5708 
0 0.029 -0.1 0 3.14159 -3.14159 
0.0745 0.0145 -0.1 3.14159 0 -3.14159 
0.0745 0.029 -0.1 1.5708 1.5708 -1.5708 
-0.0745 0.029 -0.1 -1.5708 1.5708 -1.5708 
0 -0 0.1 0 0 6.28319 
-0.03725 0.029 0.1 0 3.14159 3.14159 
0 0.029 0.1 0 3.14159 3.14159 
0.0745 -0 0.1 3.14159 0 3.14159 
0.03725 0.029 0.1 0 3.14159 3.14159 
0.0745 0.029 0.1 1.5708 1.5708 1.5708 
0.0745 -0.0145 0.1 3.14159 0 3.14159 
0.0745 0 0 6.28319 0 0 
0.0745 0.029 0.05 3.14159 3.14159 0 
0.0745 0.029 0 3.14159 3.14159 0 
0.0745 0.029 -0.05 3.14159 3.14159 0 
0 -0.029 -0 0 -6.28319 0 
0.0745 -0.029 -0 3.14159 -3.14159 0 
0 -0.029 -0.1 0 -3.14159 -3.14159 
-0.0745 -0.029 -0.1 -1.5708 -1.5708 -1.5708 
-0.0745 0 0 -6.28319 0 0 
-0.0745 -0.029 -0 -3.14159 -3.14159 0 
-0.0745 -0.029 0.1 -1.5708 -1.5708 1.5708 
-0.0745 0 -0.1 -3.14159 0 -3.14159 
0 0.029 0 0 6.28319 0 
-0.0745 0.029 0 -3.14159 3.14159 0 
-0.0745 -0 0.1 -3.14159 0 3.14159 
0 -0.029 0.1 0 -3.14159 3.14159 
-0.018625 0 -0.1 0 0 -6.28319 
0 0.029 -0.075 0 6.28319 0 
0.055875 -0.029 0.075 0 -6.28319 0 
0.0745 -0.02175 -0.075 6.28319 0 0 
0.0745 -0.0145 -0.025 6.28319 0 0 
-0.018625 -0 0.1 0 0 6.28319 
0.018625 0.029 0.1 0 3.14159 3.14159 
0.0745 0.02175 -0.1 3.14159 0 -3.14159 
-0.0745 0.02175 0.1 -3.14159 0 3.14159 
0.0745 0.0145 -0.075 6.28319 0 0 
-0.0745 -0.00725 -0.05 -6.28319 0 0 
0 -0.00725 0.1 0 0 6.28319 
-0.0745 -0.02175 0.025 -6.28319 0 0 
-0.03725 -0.029 -0.075 0 -6.28319 0 
-0.018625 0.029 0.1 0 3.14159 3.14159 
-0.055875 0.0145 -0.1 0 0 -6.28319 
-0.0745 0.02175 0 -6.28319 0 0 
-0.0745 -0.02175 -0.05 -6.28319 0 0 
-0.0745 0.00725 -0.075 -6.28319 0 0 
-0.055875 -0.029 -0.1 0 -3.14159 -3.14159 
0.0745 0.029 0.025 3.14159 3.14159 0 
0 0.00725 0.1 0 0 6.28319 
0.055875 0.029 -0.05 0 6.28319 0 
-0.018625 0.0145 -0.1 0 0 -6.28319 
0.0745 0.00725 -0.025 6.28319 0 0 
0 -0.00725 -0.1 0 0 -6.28319 
0.0745 -0.00725 -0.1 3.14159 0 -3.14159 
0.018625 -0.029 0.1 0 -3.14159 3.14159 
-0.0745 -0.02175 -0 -6.28319 0 0 
0.0745 0.00725 0.1 3.14159 0 3.14159 
-0.018625 0.0145 0.1 0 0 6.28319 
-0.018625 -0.029 0.05 0 -6.28319 0 
0.03725 0.02175 0.1 0 0 6.28319 
0 -0.02175 -0.1 0 0 -6.28319 
-0.0745 -0.02175 -0.025 -6.28319 0 0 
-0.0745 0.029 0.075 -3.14159 3.14159 0 
0.055875 -0.029 0.025 0 -6.28319 0 
0.055875 0.029 0.1 0 3.14159 3.14159 
0.018625 -0.029 -0.05 0 -6.28319 0 
-0.055875 -0.029 -0 0 -6.28319 0 
-0.018625 0.029 0.025 0 6.28319 0 
-0.055875 -0.029 0.075 0 -6.28319 0 
0.018625 -0.02175 -0.1 0 0 -6.28319 
0.018625 0.029 -0.05 0 6.28319 0 
-0.0745 -0.029 0.025 -3.14159 -3.14159 0 
-0.03725 -0.02175 0.1 0 0 6.28319 
-0.0745 0 -0.075 -6.28319 0 0 
-0.0745 -0.029 -0.075 -3.14159 -3.14159 0 
0.03725 0.029 -0.025 0 6.28319 0 
-0.0745 0.00725 -0.1 -3.14159 0 -3.14159 
0.055875 0.0145 0.1 0 0 6.28319 
0.055875 -0.00725 -0.1 0 0 -6.28319 
0.018625 0.029 0.025 0 6.28319 0 
0.0745 -0.0145 0.075 6.28319 0 0 
-0.0745 0.029 0.025 -3.14159 3.14159 0 
-0.055875 -0.029 -0.025 0 -6.28319 0 
0.0745 0.02175 0.025 6.28319 0 0 
0.055875 -0.029 -0.075 0 -6.28319 0 
-0.055875 0.02175 -0.1 0 0 -6.28319 
0.055875 0.0145 -0.1 0 0 -6.28319 
0.018625 0.00725 0.1 0 0 6.28319 
-0.0745 0.029 -0.025 -3.14159 3.14159 0 
0.055875 -0.0145 0.1 0 0 6.28319 
-0.0745 -0.00725 -0.025 -6.28319 0 0 
0.055875 0.029 0.025 0 6.28319 0 
-0.0745 0.00725 -0.025 -6.28319 0 0 
0.055875 -0.00725 0.1 0 0 6.28319 
-0.055875 -0.02175 -0.1 0 0 -6.28319 
-0.0745 -0.00725 0.1 -3.14159 0 3.14159 
-0.018625 -0.0145 0.1 0 0 6.28319 
-0.0745 -0.02175 0.1 -3.14159 0 3.14159 
0 0.029 0.025 0 6.28319 0 
0.0745 -0.029 -0.025 3.14159 -3.14159 0 
-0.03725 0.02175 0.1 0 0 6.28319 
0.0745 -0 0.075 6.28319 0 0 
0.0745 0 -0.075 6.28319 0 0 
0.0745 -0.02175 -0.025 6.28319 0 0 
-0.055875 -0.00725 0.1 0 0 6.28319 
0.0745 0.00725 0.05 6.28319 0 0 
0.055875 0.029 0 0 6.28319 0 
0.055875 -0.02175 -0.1 0 0 -6.28319 
0.0745 0.00725 -0.05 6.28319 0 0 
-0.0745 0 -0.025 -6.28319 0 0 
0.055875 -0.029 0.05 0 -6.28319 0 
0.055875 0.00725 0.1 0 0 6.28319 
0.03725 0.00725 -0.1 0 0 -6.28319 
-0.0745 -0 0.025 -6.28319 0 0 
0.0745 0.00725 -0.1 3.14159 0 -3.14159 
-0.0745 0.02175 0.075 -6.28319 0 0 
0.055875 -0.029 -0.05 0 -6.28319 0 
0.03725 0.02175 -0.1 0 0 -6.28319 
0.0745 -0.02175 -0.1 3.14159 0 -3.14159 
0.0745 0.029 0.075 3.14159 3.14159 0 
0.018625 0.029 -0.025 0 6.28319 0 
-0.03725 0.00725 0.1 0 0 6.28319 
-0.0745 -0.0145 -0.075 -6.28319 0 0 
0.055875 -0.029 -0.1 0 -3.14159 -3.14159 
-0.018625 -0.00725 -0.1 0 0 -6.28319 
-0.03725 0.02175 -0.1 0 0 -6.28319 
0.0745 0.0145 0.075 6.28319 0 0 
-0.0745 -0.02175 0.075 -6.28319 0 0 
0.03725 -0.029 0.075 0 -6.28319 0 
0.03725 -0.02175 0.1 0 0 6.28319 
-0.018625 0.029 -0.05 0 6.28319 0 
0.0745 0.029 -0.075 3.14159 3.14159 0 
-0.03725 -0.029 0.075 0 -6.28319 0 
-0.0745 0.00725 0.1 -3.14159 0 3.14159 
-0.018625 -0.0145 -0.1 0 0 -6.28319 
-0.018625 -0.029 -0.05 0 -6.28319 0 
0.0745 0.00725 0 6.28319 0 0 
-0.055875 0.029 -0.05 0 6.28319 0 
0.03725 -0.02175 -0.1 0 0 -6.28319 
0.03725 0.029 0.025 0 6.28319 0 
-0.0745 0.00725 0.075 -6.28319 0 0 
0.018625 0.029 -0.075 0 6.28319 0 
-0.0745 0.0145 -0.075 -6.28319 0 0 
-0.055875 0.029 -0.1 0 3.14159 -3.14159 
0.018625 0 -0.1 0 0 -6.28319 
-0.055875 0.029 -0.025 0 6.28319 0 
-0.0745 -0.029 0.075 -3.14159 -3.14159 0 
-0.055875 -0.029 -0.05 0 -6.28319 0 
0.018625 -0.029 -0.075 0 -6.28319 0 
-0.018625 -0.029 -0.025 0 -6.28319 0 
0.0745 -0.029 0.075 3.14159 -3.14159 0 
0.03725 0.00725 0.1 0 0 6.28319 
-0.0745 -0.0145 -0.025 -6.28319 0 0 
-0.018625 -0.02175 0.1 0 0 6.28319 
0 -0.029 -0.025 0 -6.28319 0 
0.018625 0.02175 -0.1 0 0 -6.28319 
-0.055875 0.029 0.025 0 6.28319 0 
-0.055875 -0.02175 0.1 0 0 6.28319 
0.0745 -0 0.025 6.28319 0 0 
-0.055875 0.029 0.075 0 6.28319 0 
0.018625 0.029 0.075 0 6.28319 0 
0.055875 -0.02175 0.1 0 0 6.28319 
-0.018625 -0.00725 0.1 0 0 6.28319 
0.0745 -0.00725 0.05 6.28319 0 0 
-0.018625 -0.029 -0 0 -6.28319 0 
0.0745 -0.00725 -0.05 6.28319 0 0 
-0.03725 -0.02175 -0.1 0 0 -6.28319 
0.055875 -0.029 0.1 0 -3.14159 3.14159 
0.0745 -0.00725 -0.075 6.28319 0 0 
-0.018625 0.029 -0.075 0 6.28319 0 
0.0745 -0.029 -0.075 3.14159 -3.14159 0 
0.018625 -0.029 0.025 0 -6.28319 0 
-0.018625 0.00725 0.1 0 0 6.28319 
-0.0745 0.0145 0.025 -6.28319 0 0 
-0.0745 -0.00725 -0.1 -3.14159 0 -3.14159 
0.055875 0.029 -0.025 0 6.28319 0 
-0.018625 -0.029 -0.075 0 -6.28319 0 
0.018625 0.029 -0.1 0 3.14159 -3.14159 
0.018625 -0.00725 0.1 0 0 6.28319 
-0.03725 0.00725 -0.1 0 0 -6.28319 
0.0745 -0.02175 -0.05 6.28319 0 0 
-0.0745 0.02175 -0.025 -6.28319 0 0 
-0.0745 0.02175 0.05 -6.28319 0 0 
-0.0745 -0.00725 0.05 -6.28319 0 0 
0.0745 -0.0145 -0.075 6.28319 0 0 
0.018625 -0 0.1 0 0 6.28319 
-0.0745 0.0145 0.075 -6.28319 0 0 
-0.0745 0.02175 0.025 -6.28319 0 0 
-0.0745 -0.02175 -0.1 -3.14159 0 -3.14159 
0.018625 0.02175 0.1 0 0 6.28319 
-0.055875 0.02175 0.1 0 0 6.28319 
0 -0.029 0.075 0 -6.28319 0 
-0.0745 -0.02175 -0.075 -6.28319 0 0 
0.018625 -0.029 -0.1 0 -3.14159 -3.14159 
0.018625 0.00725 -0.1 0 0 -6.28319 
0.018625 -0.02175 0.1 0 0 6.28319 
-0.0745 0.02175 -0.075 -6.28319 0 0 
0 0.02175 0.1 0 0 6.28319 
0.018625 -0.00725 -0.1 0 0 -6.28319 
-0.0745 -0.00725 0.075 -6.28319 0 0 
0.0745 -0.02175 0.025 6.28319 0 0 
0.03725 -0.029 -0.025 0 -6.28319 0 
-0.018625 -0.029 0.025 0 -6.28319 0 
0.03725 -0.029 -0.075 0 -6.28319 0 
0.0745 -0.029 0.025 3.14159 -3.14159 0 
-0.055875 0.0145 0.1 0 0 6.28319 
-0.0745 -0.029 -0.025 -3.14159 -3.14159 0 
0.0745 -0.0145 0.025 6.28319 0 0 
0.0745 0.02175 0.1 3.14159 0 3.14159 
0.03725 -0.00725 -0.1 0 0 -6.28319 
-0.055875 0.029 -0.075 0 6.28319 0 
0.055875 0.029 0.075 0 6.28319 0 
0.018625 -0.029 0.075 0 -6.28319 0 
0.03725 0.029 -0.075 0 6.28319 0 
-0.018625 0.029 0.05 0 6.28319 0 
0.018625 0.029 0 0 6.28319 0 
0.055875 -0.029 -0.025 0 -6.28319 0 
-0.03725 0.029 0.075 0 6.28319 0 
-0.055875 0 -0.1 0 0 -6.28319 
0.0745 0.02175 0.05 6.28319 0 0 
-0.018625 0.029 -0.1 0 3.14159 -3.14159 
-0.055875 -0.0145 0.1 0 0 6.28319 
-0.055875 -0.029 0.025 0 -6.28319 0 
-0.0745 -0.00725 -0.075 -6.28319 0 0 
-0.055875 -0.029 -0.075 0 -6.28319 0 
0.0745 0.02175 0.075 6.28319 0 0 
0.0745 -0.02175 0.075 6.28319 0 0 
-0.03725 -0.00725 -0.1 0 0 -6.28319 
-0.018625 0.029 0.075 0 6.28319 0 
-0.0745 -0.00725 0.025 -6.28319 0 0 
0.0745 -0.02175 0.1 3.14159 0 3.14159 
-0.03725 0.029 0.025 0 6.28319 0 
-0.018625 0.029 0 0 6.28319 0 
0.0745 0.02175 -0.05 6.28319 0 0 
0.03725 -0.00725 0.1 0 0 6.28319 
0.0745 -0.02175 -0 6.28319 0 0 
-0.0745 0.00725 -0.05 -6.28319 0 0 
-0.055875 0.029 0.05 0 6.28319 0 
0.0745 -0.00725 0.075 6.28319 0 0 
0.055875 -0.029 -0 0 -6.28319 0 
0.0745 -0.00725 0.025 6.28319 0 0 
0.0745 0.00725 -0.075 6.28319 0 0 
0 0.029 -0.025 0 6.28319 0 
-0.0745 0.0145 -0.025 -6.28319 0 0 
-0.03725 -0.00725 0.1 0 0 6.28319 
-0.0745 0.00725 0.05 -6.28319 0 0 
0.055875 0.02175 -0.1 0 0 -6.28319 
0.018625 -0.0145 0.1 0 0 6.28319 
-0.03725 -0.029 0.025 0 -6.28319 0 
0 -0.02175 0.1 0 0 6.28319 
-0.0745 0.02175 -0.05 -6.28319 0 0 
-0.055875 -0.029 0.1 0 -3.14159 3.14159 
-0.055875 0.00725 -0.1 0 0 -6.28319 
0.0745 0.0145 -0.025 6.28319 0 0 
0.0745 0.029 -0.025 3.14159 3.14159 0 
0.0745 -0.00725 0.1 3.14159 0 3.14159 
-0.018625 0.02175 0.1 0 0 6.28319 
-0.0745 0.02175 -0.1 -3.14159 0 -3.14159 
-0.018625 -0.029 -0.1 0 -3.14159 -3.14159 
-0.055875 -0.029 0.05 0 -6.28319 0 
0.055875 -0.0145 -0.1 0 0 -6.28319 
0.0745 0.00725 0.075 6.28319 0 0 
0.0745 0.0145 0.025 6.28319 0 0 
-0.018625 -0.02175 -0.1 0 0 -6.28319 
0.055875 -0 0.1 0 0 6.28319 
0.055875 0.02175 0.1 0 0 6.28319 
0.018625 0.0145 -0.1 0 0 -6.28319 
-0.03725 0.029 -0.075 0 6.28319 0 
-0.0745 -0.0145 0.075 -6.28319 0 0 
-0.018625 0.029 -0.025 0 6.28319 0 
0.018625 -0.029 0.05 0 -6.28319 0 
0.0745 -0.00725 -0 6.28319 0 0 
0.018625 0.029 0.05 0 6.28319 0 
-0.055875 0.029 0 0 6.28319 0 
0.03725 -0.029 0.025 0 -6.28319 0 
0.0745 -0.00725 -0.025 6.28319 0 0 
0.055875 0.029 -0.1 0 3.14159 -3.14159 
-0.0745 0.00725 0 -6.28319 0 0 
0.0745 0 -0.025 6.28319 0 0 
-0.018625 0.02175 -0.1 0 0 -6.28319 
0.018625 -0.029 -0.025 0 -6.28319 0 
-0.0745 -0.00725 -0 -6.28319 0 0 
0.018625 -0.0145 -0.1 0 0 -6.28319 
0.0745 -0.02175 0.05 6.28319 0 0 
-0.0745 -0 0.075 -6.28319 0 0 
0.0745 0.02175 -0.075 6.28319 0 0 
0 0.00725 -0.1 0 0 -6.28319 
-0.03725 -0.029 -0.025 0 -6.28319 0 
-0.055875 -0 0.1 0 0 6.28319 
-0.0745 0.029 -0.075 -3.14159 3.14159 0 
0 -0.029 -0.075 0 -6.28319 0 
-0.018625 0.00725 -0.1 0 0 -6.28319 
0.055875 0.00725 -0.1 0 0 -6.28319 
0 -0.029 0.025 0 -6.28319 0 
0.055875 0.029 -0.075 0 6.28319 0 
0.03725 0.029 0.075 0 6.28319 0 
0.0745 0.02175 -0.025 6.28319 0 0 
0.018625 0.0145 0.1 0 0 6.28319 
0.018625 -0.029 -0 0 -6.28319 0 
0.0745 0.02175 0 6.28319 0 0 
-0.03725 0.029 -0.025 0 6.28319 0 
-0.018625 -0.029 0.1 0 -3.14159 3.14159 
-0.0745 -0.0145 0.025 -6.28319 0 0 
-0.055875 -0.00725 -0.1 0 0 -6.28319 
-0.055875 0.029 0.1 0 3.14159 3.14159 
0.055875 0 -0.1 0 0 -6.28319 
-0.055875 -0.0145 -0.1 0 0 -6.28319 
-0.0745 0.00725 0.025 -6.28319 0 0 
0 0.02175 -0.1 0 0 -6.28319 
-0.055875 0.00725 0.1 0 0 6.28319 
0.055875 0.029 0.05 0 6.28319 0 
0.0745 0.00725 0.025 6.28319 0 0 
-0.018625 -0.029 0.075 0 -6.28319 0 
0 0.029 0.075 0 6.28319 0 
-0.0745 -0.02175 0.05 -6.28319 0 0 
3 0 165 237 
3 3 228 292 
3 6 297 354 
3 4 139 203 
3 11 186 253 
3 14 281 338 
3 17 227 302 
3 19 150 210 
3 22 212 284 
3 25 252 314 
3 27 161 223 
3 3 270 339 
3 32 153 358 
3 35 351 272 
3 38 283 199 
3 41 174 102 
3 44 122 324 
3 47 332 197 
3 50 266 318 
3 52 158 368 
3 55 380 276 
3 58 323 250 
3 61 265 183 
3 64 140 209 
3 66 269 280 
3 68 149 124 
3 70 178 189 
3 63 226 188 
3 72 317 105 
3 69 363 185 
3 60 156 196 
3 62 350 379 
3 67 362 357 
3 57 243 128 
3 76 327 112 
3 12 261 375 
3 54 182 148 
3 79 336 135 
3 77 260 104 
3 51 232 160 
3 53 164 335 
3 75 249 256 
3 49 382 333 
3 83 154 118 
3 83 296 290 
3 46 312 107 
3 85 356 202 
3 84 367 325 
3 43 101 255 
3 45 239 173 
3 82 346 349 
3 40 242 345 
3 8 134 275 
3 7 100 221 
3 37 219 274 
3 42 155 241 
3 87 287 170 
3 34 295 111 
3 36 247 361 
3 86 220 225 
3 27 300 352 
3 9 110 142 
3 92 198 217 
3 29 294 193 
3 89 263 259 
3 91 132 277 
3 59 267 328 
3 93 116 147 
3 28 163 307 
3 24 191 146 
3 85 246 325 
3 73 365 202 
3 79 231 104 
3 83 282 190 
3 84 162 118 
3 76 230 375 
3 20 299 384 
3 94 138 169 
3 16 216 371 
3 23 340 313 
3 71 240 99 
3 25 258 114 
3 90 378 348 
3 96 211 355 
3 10 293 319 
3 39 273 364 
3 97 383 262 
3 6 271 278 
3 48 311 229 
3 48 309 234 
3 5 224 167 
3 56 233 103 
3 96 175 359 
3 2 374 298 
3 65 195 123 
3 88 334 131 
3 0 117 165 
3 3 168 228 
3 6 151 297 
3 4 322 139 
3 11 257 186 
3 14 214 281 
3 17 344 227 
3 19 286 150 
3 22 248 212 
3 25 114 252 
3 27 352 161 
3 3 166 270 
3 32 137 153 
3 35 369 351 
3 38 125 283 
3 41 306 174 
3 44 207 122 
3 47 127 332 
3 50 320 266 
3 52 119 158 
3 55 204 380 
3 58 289 323 
3 61 215 265 
3 64 264 140 
3 66 353 269 
3 68 331 149 
3 70 194 178 
3 63 337 226 
3 72 157 317 
3 69 376 363 
3 60 113 156 
3 62 121 350 
3 67 98 362 
3 57 192 243 
3 76 171 327 
3 12 106 261 
3 54 222 182 
3 79 130 336 
3 77 268 260 
3 51 200 232 
3 53 305 164 
3 75 109 249 
3 49 176 382 
3 83 290 154 
3 83 190 296 
3 46 179 312 
3 85 304 356 
3 84 370 367 
3 43 251 101 
3 45 236 239 
3 82 342 346 
3 40 341 242 
3 8 181 134 
3 7 238 100 
3 37 136 219 
3 42 187 155 
3 87 310 287 
3 34 218 295 
3 36 206 247 
3 86 235 220 
3 27 373 300 
3 9 385 110 
3 92 168 198 
3 29 108 294 
3 89 145 263 
3 91 126 132 
3 59 213 267 
3 93 144 116 
3 28 180 163 
3 24 141 191 
3 85 120 246 
3 73 347 365 
3 79 366 231 
3 83 381 282 
3 84 177 162 
3 76 288 230 
3 20 285 299 
3 94 303 138 
3 16 208 216 
3 23 201 340 
3 71 291 240 
3 25 244 258 
3 90 184 378 
3 96 204 211 
3 10 330 293 
3 39 129 273 
3 97 372 383 
3 6 354 271 
3 48 234 311 
3 48 172 309 
3 5 143 224 
3 56 315 233 
3 96 166 175 
3 2 377 374 
3 65 205 195 
3 88 329 334 
3 334 237 2 
3 334 329 237 
3 329 0 237 
3 195 298 58 
3 195 205 298 
3 205 2 298 
3 374 245 93 
3 374 377 245 
3 377 1 245 
3 175 292 5 
3 175 166 292 
3 166 3 292 
3 233 167 50 
3 233 315 167 
3 315 5 167 
3 224 372 97 
3 224 143 372 
3 143 4 372 
3 309 326 81 
3 309 172 326 
3 172 78 326 
3 311 278 41 
3 311 234 278 
3 234 6 278 
3 271 275 87 
3 271 354 275 
3 354 8 275 
3 383 203 10 
3 383 372 203 
3 372 4 203 
3 273 319 32 
3 273 129 319 
3 129 10 319 
3 293 142 91 
3 293 330 142 
3 330 9 142 
3 211 257 11 
3 211 204 257 
3 204 55 257 
3 378 316 11 
3 378 184 316 
3 184 30 316 
3 258 253 13 
3 258 244 253 
3 244 11 253 
3 240 338 16 
3 240 291 338 
3 291 14 338 
3 340 371 17 
3 340 201 371 
3 201 16 371 
3 216 159 95 
3 216 208 159 
3 208 15 159 
3 138 302 18 
3 138 303 302 
3 303 17 302 
3 299 288 76 
3 299 285 288 
3 285 18 288 
3 230 308 13 
3 230 288 308 
3 288 18 308 
3 162 210 21 
3 162 177 210 
3 177 19 210 
3 282 366 79 
3 282 381 366 
3 381 21 366 
3 231 343 20 
3 231 366 343 
3 366 21 343 
3 365 284 24 
3 365 347 284 
3 347 22 284 
3 246 146 19 
3 246 120 146 
3 120 24 146 
3 191 313 94 
3 191 141 313 
3 141 23 313 
3 163 348 25 
3 163 180 348 
3 180 90 348 
3 116 307 26 
3 116 144 307 
3 144 28 307 
3 267 321 15 
3 267 213 321 
3 213 26 321 
3 132 223 29 
3 132 126 223 
3 126 27 223 
3 263 115 29 
3 263 145 115 
3 145 33 115 
3 294 144 93 
3 294 108 144 
3 108 28 144 
3 198 339 31 
3 198 168 339 
3 168 3 339 
3 110 373 27 
3 110 385 373 
3 385 31 373 
3 300 254 30 
3 300 373 254 
3 373 31 254 
3 220 358 34 
3 220 235 358 
3 235 32 358 
3 247 111 0 
3 247 206 111 
3 206 34 111 
3 295 145 89 
3 295 218 145 
3 218 33 145 
3 287 272 37 
3 287 310 272 
3 310 35 272 
3 155 274 64 
3 155 187 274 
3 187 37 274 
3 219 361 88 
3 219 136 361 
3 136 36 361 
3 100 199 40 
3 100 238 199 
3 238 38 199 
3 134 345 35 
3 134 181 345 
3 181 40 345 
3 242 364 86 
3 242 341 364 
3 341 39 364 
3 346 102 43 
3 346 342 102 
3 342 41 102 
3 239 255 68 
3 239 236 255 
3 236 43 255 
3 101 241 70 
3 101 251 241 
3 251 42 241 
3 367 324 46 
3 367 370 324 
3 370 44 324 
3 356 107 72 
3 356 304 107 
3 304 46 107 
3 312 173 69 
3 312 179 173 
3 179 45 173 
3 296 279 47 
3 296 190 279 
3 190 80 279 
3 154 333 44 
3 154 290 333 
3 290 49 333 
3 382 229 82 
3 382 176 229 
3 176 48 229 
3 249 318 51 
3 249 109 318 
3 109 50 318 
3 164 160 81 
3 164 305 160 
3 305 51 160 
3 232 238 7 
3 232 200 238 
3 200 38 238 
3 260 368 54 
3 260 268 368 
3 268 52 368 
3 336 148 47 
3 336 130 148 
3 130 54 148 
3 182 335 78 
3 182 222 335 
3 222 53 335 
3 261 276 57 
3 261 106 276 
3 106 55 276 
3 327 128 52 
3 327 171 128 
3 171 57 128 
3 243 103 75 
3 243 192 103 
3 192 56 103 
3 362 250 60 
3 362 98 250 
3 98 58 250 
3 350 196 14 
3 350 121 196 
3 121 60 196 
3 156 328 74 
3 156 113 328 
3 113 59 328 
3 363 183 63 
3 363 376 183 
3 376 61 183 
3 317 188 22 
3 317 157 188 
3 157 63 188 
3 226 379 71 
3 226 337 379 
3 337 62 379 
3 178 209 66 
3 178 194 209 
3 194 64 209 
3 149 280 61 
3 149 331 280 
3 331 66 280 
3 269 123 67 
3 269 353 123 
3 353 65 123 
3 140 131 65 
3 140 264 131 
3 264 88 131 
3 265 357 62 
3 265 215 357 
3 215 67 357 
3 323 147 59 
3 323 289 147 
3 289 93 147 
3 380 359 56 
3 380 204 359 
3 204 96 359 
3 158 256 53 
3 158 119 256 
3 119 75 256 
3 266 125 38 
3 266 320 125 
3 320 97 125 
3 332 172 48 
3 332 127 172 
3 127 78 172 
3 122 349 45 
3 122 207 349 
3 207 82 349 
3 174 170 42 
3 174 306 170 
3 306 87 170 
3 283 262 39 
3 283 125 262 
3 125 97 262 
3 351 225 36 
3 351 369 225 
3 369 86 225 
3 153 277 33 
3 153 137 277 
3 137 91 277 
3 270 355 30 
3 270 166 355 
3 166 96 355 
3 161 180 28 
3 161 352 180 
3 352 90 180 
3 252 159 15 
3 252 114 159 
3 114 95 159 
3 212 99 23 
3 212 248 99 
3 248 71 99 
3 150 169 20 
3 150 286 169 
3 286 94 169 
3 227 152 13 
3 227 344 152 
3 344 95 152 
3 281 360 15 
3 281 214 360 
3 214 74 360 
3 186 106 12 
3 186 257 106 
3 257 55 106 
3 139 217 9 
3 139 322 217 
3 322 92 217 
3 297 301 7 
3 297 151 301 
3 151 81 301 
3 228 322 4 
3 228 168 322 
3 168 92 322 
3 165 259 1 
3 165 117 259 
3 117 89 259 
3 131 205 65 
3 131 334 205 
3 334 2 205 
3 123 98 67 
3 123 195 98 
3 195 58 98 
3 298 289 58 
3 298 374 289 
3 374 93 289 
3 359 315 56 
3 359 175 315 
3 175 5 315 
3 103 109 75 
3 103 233 109 
3 233 50 109 
3 167 320 50 
3 167 224 320 
3 224 97 320 
3 234 151 6 
3 234 309 151 
3 309 81 151 
3 229 342 82 
3 229 311 342 
3 311 41 342 
3 278 306 41 
3 278 271 306 
3 271 87 306 
3 262 129 39 
3 262 383 129 
3 383 10 129 
3 364 235 86 
3 364 273 235 
3 273 32 235 
3 319 137 32 
3 319 293 137 
3 293 91 137 
3 355 316 30 
3 355 211 316 
3 211 11 316 
3 348 244 25 
3 348 378 244 
3 378 11 244 
3 114 152 95 
3 114 258 152 
3 258 13 152 
3 99 201 23 
3 99 240 201 
3 240 16 201 
3 313 303 94 
3 313 340 303 
3 340 17 303 
3 371 344 17 
3 371 216 344 
3 216 95 344 
3 169 285 20 
3 169 138 285 
3 138 18 285 
3 384 112 77 
3 384 299 112 
3 299 76 112 
3 375 133 12 
3 375 230 133 
3 230 13 133 
3 118 381 83 
3 118 162 381 
3 162 21 381 
3 190 135 80 
3 190 282 135 
3 282 79 135 
3 104 384 77 
3 104 231 384 
3 231 20 384 
3 202 120 85 
3 202 365 120 
3 365 24 120 
3 325 177 84 
3 325 246 177 
3 246 19 177 
3 146 286 19 
3 146 191 286 
3 191 94 286 
3 307 314 26 
3 307 163 314 
3 163 25 314 
3 147 213 59 
3 147 116 213 
3 116 26 213 
3 328 360 74 
3 328 267 360 
3 267 15 360 
3 277 115 33 
3 277 132 115 
3 132 29 115 
3 259 193 1 
3 259 263 193 
3 263 29 193 
3 193 245 1 
3 193 294 245 
3 294 93 245 
3 217 385 9 
3 217 198 385 
3 198 31 385 
3 142 126 91 
3 142 110 126 
3 110 27 126 
3 352 184 90 
3 352 300 184 
3 300 30 184 
3 225 206 36 
3 225 220 206 
3 220 34 206 
3 361 329 88 
3 361 247 329 
3 247 0 329 
3 111 117 0 
3 111 295 117 
3 295 89 117 
3 170 187 42 
3 170 287 187 
3 287 37 187 
3 241 194 70 
3 241 155 194 
3 155 64 194 
3 274 264 64 
3 274 219 264 
3 219 88 264 
3 221 181 8 
3 221 100 181 
3 100 40 181 
3 275 310 87 
3 275 134 310 
3 134 35 310 
3 345 369 35 
3 345 242 369 
3 242 86 369 
3 349 236 45 
3 349 346 236 
3 346 43 236 
3 173 124 69 
3 173 239 124 
3 239 68 124 
3 255 189 68 
3 255 101 189 
3 101 70 189 
3 325 304 85 
3 325 367 304 
3 367 46 304 
3 202 105 73 
3 202 356 105 
3 356 72 105 
3 107 185 72 
3 107 312 185 
3 312 69 185 
3 290 197 49 
3 290 296 197 
3 296 47 197 
3 118 370 84 
3 118 154 370 
3 154 44 370 
3 333 207 44 
3 333 382 207 
3 382 82 207 
3 256 305 53 
3 256 249 305 
3 249 51 305 
3 335 326 78 
3 335 164 326 
3 164 81 326 
3 160 301 81 
3 160 232 301 
3 232 7 301 
3 104 130 79 
3 104 260 130 
3 260 54 130 
3 135 279 80 
3 135 336 279 
3 336 47 279 
3 148 127 47 
3 148 182 127 
3 182 78 127 
3 375 171 76 
3 375 261 171 
3 261 57 171 
3 112 268 77 
3 112 327 268 
3 327 52 268 
3 128 119 52 
3 128 243 119 
3 243 75 119 
3 357 121 62 
3 357 362 121 
3 362 60 121 
3 379 291 71 
3 379 350 291 
3 350 14 291 
3 196 214 14 
3 196 156 214 
3 156 74 214 
3 185 157 72 
3 185 363 157 
3 363 63 157 
3 105 347 73 
3 105 317 347 
3 317 22 347 
3 188 248 22 
3 188 226 248 
3 226 71 248 
3 189 331 68 
3 189 178 331 
3 178 66 331 
3 124 376 69 
3 124 149 376 
3 149 61 376 
3 280 215 61 
3 280 269 215 
3 269 67 215 
3 209 353 66 
3 209 140 353 
3 140 65 353 
3 183 337 63 
3 183 265 337 
3 265 62 337 
3 250 113 60 
3 250 323 113 
3 323 59 113 
3 276 192 57 
3 276 380 192 
3 380 56 192 
3 368 222 54 
3 368 158 222 
3 158 53 222 
3 318 200 51 
3 318 266 200 
3 266 38 200 
3 197 176 49 
3 197 332 176 
3 332 48 176 
3 324 179 46 
3 324 122 179 
3 122 45 179 
3 102 251 43 
3 102 174 251 
3 174 42 251 
3 199 341 40 
3 199 283 341 
3 283 39 341 
3 272 136 37 
3 272 351 136 
3 351 36 136 
3 358 218 34 
3 358 153 218 
3 153 33 218 
3 339 254 31 
3 339 270 254 
3 270 30 254 
3 223 108 29 
3 223 161 108 
3 161 28 108 
3 314 321 26 
3 314 252 321 
3 252 15 321 
3 284 141 24 
3 284 212 141 
3 212 23 141 
3 210 343 21 
3 210 150 343 
3 150 20 343 
3 302 308 18 
3 302 227 308 
3 227 13 308 
3 338 208 16 
3 338 281 208 
3 281 15 208 
3 253 133 13 
3 253 186 133 
3 186 12 133 
3 203 330 10 
3 203 139 330 
3 139 9 330 
3 354 221 8 
3 354 297 221 
3 297 7 221 
3 292 143 5 
3 292 228 143 
3 228 4 143 
3 237 377 2 
3 237 165 377 
3 165 1 377 
