ply
format ascii 1.0
comment VCGLIB generated
element vertex 66
property float x
property float y
property float z
property float nx
property float ny
property float nz
element face 128
property list uchar int vertex_indices
end_header
0 -0.006 0 0 -7.12809 0 
0 0.006 0 0 7.12809 0 
0 -0.006 -0.119999 -1.39902e-08 -3.3413 -2.93533 
0 0.006 -0.119999 1.39902e-08 3.3413 -2.93533 
0.0234106 -0.006 -0.117693 0.572632 -3.3413 -2.87893 
0.0234106 0.006 -0.117693 0.572632 3.3413 -2.87893 
0.0459216 -0.006 -0.110865 1.12326 -3.3413 -2.71191 
0.0459216 0.006 -0.110865 1.12326 3.3413 -2.71191 
0.0666682 -0.006 -0.0997763 1.63079 -3.34124 -2.44063 
0.0666682 0.006 -0.0997763 1.63079 3.34124 -2.44063 
0.0848518 -0.006 -0.0848526 2.07562 -3.34133 -2.07557 
0.0848518 0.006 -0.0848526 2.07562 3.34133 -2.07557 
0.0997755 -0.006 -0.0666682 2.44063 -3.34128 -1.63078 
0.0997755 0.006 -0.0666682 2.44063 3.34128 -1.63078 
0.110864 -0.006 -0.0459224 2.71188 -3.34132 -1.12333 
0.110864 0.006 -0.0459224 2.71188 3.34132 -1.12333 
0.117693 -0.006 -0.0234114 2.87892 -3.34126 -0.572674 
0.117693 0.006 -0.0234114 2.87892 3.34126 -0.572674 
0.119999 -0.006 0 2.93533 -3.34131 5.06445e-06 
0.119999 0.006 0 2.93533 3.34131 5.06445e-06 
0.117693 -0.006 0.0234106 2.87892 -3.34126 0.572679 
0.117693 0.006 0.0234106 2.87892 3.34126 0.572679 
0.110864 -0.006 0.0459216 2.71188 -3.34132 1.12333 
0.110864 0.006 0.0459216 2.71188 3.34132 1.12333 
0.0997755 -0.006 0.0666674 2.44063 -3.34128 1.63078 
0.0997755 0.006 0.0666674 2.44063 3.34128 1.63078 
0.0848518 -0.006 0.0848518 2.07562 -3.34133 2.07557 
0.0848518 0.006 0.0848518 2.07562 3.34133 2.07557 
0.0666682 -0.006 0.0997755 1.63079 -3.34124 2.44063 
0.0666682 0.006 0.0997755 1.63079 3.34124 2.44063 
0.0459216 -0.006 0.110864 1.12326 -3.3413 2.71191 
0.0459216 0.006 0.110864 1.12326 3.3413 2.71191 
0.0234106 -0.006 0.117693 0.572683 -3.34134 2.87893 
0.0234106 0.006 0.117693 0.572683 3.34134 2.87893 
0 -0.006 0.119999 -6.99509e-09 -3.34122 2.93532 
0 0.006 0.119999 0 3.34122 2.93532 
-0.0234106 -0.006 0.117693 -0.572683 -3.34134 2.87893 
-0.0234106 0.006 0.117693 -0.572683 3.34134 2.87893 
-0.0459216 -0.006 0.110864 -1.12326 -3.3413 2.71191 
-0.0459216 0.006 0.110864 -1.12326 3.3413 2.71191 
-0.0666682 -0.006 0.0997755 -1.63076 -3.34126 2.44065 
-0.0666682 0.006 0.0997755 -1.63076 3.34126 2.44065 
-0.0848526 -0.006 0.0848518 -2.07562 -3.34128 2.07556 
-0.0848526 0.006 0.0848518 -2.07562 3.34128 2.07556 
-0.0997755 -0.006 0.0666674 -2.44064 -3.34135 1.63079 
-0.0997755 0.006 0.0666674 -2.44064 3.34135 1.63079 
-0.110865 -0.006 0.0459216 -2.71188 -3.34125 1.12332 
-0.110865 0.006 0.0459216 -2.71188 3.34125 1.12332 
-0.117693 -0.006 0.0234106 -2.87893 -3.3413 0.572627 
-0.117693 0.006 0.0234106 -2.87893 3.3413 0.572627 
-0.119999 -0.006 -8.2758e-07 -2.93533 -3.34131 -5.06445e-06 
-0.119999 0.006 -8.2758e-07 -2.93533 3.34131 -5.06445e-06 
-0.117693 -0.006 -0.0234114 -2.87893 -3.3413 -0.572632 
-0.117693 0.006 -0.0234114 -2.87893 3.3413 -0.572632 
-0.110865 -0.006 -0.0459224 -2.71188 -3.34125 -1.12332 
-0.110865 0.006 -0.0459224 -2.71188 3.34125 -1.12332 
-0.0997755 -0.006 -0.0666682 -2.44061 -3.34132 -1.63082 
-0.0997755 0.006 -0.0666682 -2.44061 3.34132 -1.63082 
-0.0848518 -0.006 -0.0848526 -2.07562 -3.34133 -2.07557 
-0.0848518 0.006 -0.0848526 -2.07562 3.34133 -2.07557 
-0.0666682 -0.006 -0.0997763 -1.63079 -3.34124 -2.44063 
-0.0666682 0.006 -0.0997763 -1.63079 3.34124 -2.44063 
-0.0459216 -0.006 -0.110865 -1.12326 -3.3413 -2.71191 
-0.0459216 0.006 -0.110865 -1.12326 3.3413 -2.71191 
-0.0234106 -0.006 -0.117693 -0.572632 -3.3413 -2.87893 
-0.0234106 0.006 -0.117693 -0.572632 3.3413 -2.87893 
3 0 2 4 
3 1 5 3 
3 2 3 5 
3 2 5 4 
3 0 4 6 
3 1 7 5 
3 4 5 7 
3 4 7 6 
3 0 6 8 
3 1 9 7 
3 6 7 9 
3 6 9 8 
3 0 8 10 
3 1 11 9 
3 8 9 11 
3 8 11 10 
3 0 10 12 
3 1 13 11 
3 10 11 13 
3 10 13 12 
3 0 12 14 
3 1 15 13 
3 12 13 15 
3 12 15 14 
3 0 14 16 
3 1 17 15 
3 14 15 17 
3 14 17 16 
3 0 16 18 
3 1 19 17 
3 16 17 19 
3 16 19 18 
3 0 18 20 
3 1 21 19 
3 18 19 21 
3 18 21 20 
3 0 20 22 
3 1 23 21 
3 20 21 23 
3 20 23 22 
3 0 22 24 
3 1 25 23 
3 22 23 25 
3 22 25 24 
3 0 24 26 
3 1 27 25 
3 24 25 27 
3 24 27 26 
3 0 26 28 
3 1 29 27 
3 26 27 29 
3 26 29 28 
3 0 28 30 
3 1 31 29 
3 28 29 31 
3 28 31 30 
3 0 30 32 
3 1 33 31 
3 30 31 33 
3 30 33 32 
3 0 32 34 
3 1 35 33 
3 32 33 35 
3 32 35 34 
3 0 34 36 
3 1 37 35 
3 34 35 37 
3 34 37 36 
3 0 36 38 
3 1 39 37 
3 36 37 39 
3 36 39 38 
3 0 38 40 
3 1 41 39 
3 38 39 41 
3 38 41 40 
3 0 40 42 
3 1 43 41 
3 40 41 43 
3 40 43 42 
3 0 42 44 
3 1 45 43 
3 42 43 45 
3 42 45 44 
3 0 44 46 
3 1 47 45 
3 44 45 47 
3 44 47 46 
3 0 46 48 
3 1 49 47 
3 46 47 49 
3 46 49 48 
3 0 48 50 
3 1 51 49 
3 48 49 51 
3 48 51 50 
3 0 50 52 
3 1 53 51 
3 50 51 53 
3 50 53 52 
3 0 52 54 
3 1 55 53 
3 52 53 55 
3 52 55 54 
3 0 54 56 
3 1 57 55 
3 54 55 57 
3 54 57 56 
3 0 56 58 
3 1 59 57 
3 56 57 59 
3 56 59 58 
3 0 58 60 
3 1 61 59 
3 58 59 61 
3 58 61 60 
3 0 60 62 
3 1 63 61 
3 60 61 63 
3 60 63 62 
3 0 62 64 
3 1 65 63 
3 62 63 65 
3 62 65 64 
3 0 64 2 
3 1 3 65 
3 64 65 3 
3 64 3 2 
